{"glyphs":{"0":{"ha":701,"x_min":51,"x_max":650,"o":"m 650 419 q 641 322 650 373 q 612 223 631 272 q 563 131 592 175 q 493 55 533 87 q 403 2 453 22 q 292 -17 353 -17 q 180 1 226 -17 q 105 52 134 20 q 64 129 77 85 q 51 225 51 174 q 60 322 51 271 q 90 421 70 372 q 139 513 109 469 q 208 590 168 557 q 298 642 248 623 q 410 661 349 661 q 521 643 475 661 q 596 592 567 625 q 637 515 625 559 q 650 419 650 471 m 156 228 q 189 113 156 153 q 296 73 222 73 q 396 101 351 73 q 475 178 442 130 q 527 288 509 226 q 545 416 545 350 q 512 532 545 492 q 405 572 479 572 q 305 543 351 572 q 226 466 259 514 q 175 356 193 418 q 156 228 156 294 z "},"1":{"ha":630,"x_min":37,"x_max":562,"o":"m 256 97 l 347 530 l 94 453 l 115 555 l 385 644 l 475 644 l 361 97 l 562 97 l 542 0 l 37 0 l 57 97 l 256 97 z "},"2":{"ha":700,"x_min":40,"x_max":591,"o":"m 235 90 q 374 97 317 97 l 570 97 l 551 0 l 40 0 l 54 73 q 222 182 144 130 q 360 283 301 234 q 452 381 418 333 q 486 480 486 430 q 458 546 486 522 q 368 571 430 571 q 262 556 316 571 q 150 516 208 541 l 169 608 q 264 646 208 630 q 375 661 319 661 q 473 648 432 661 q 540 611 513 634 q 578 556 566 587 q 591 488 591 524 q 562 375 591 428 q 484 275 533 323 q 371 182 435 227 q 235 93 307 137 l 235 90 z "},"3":{"ha":630,"x_min":-73,"x_max":560,"o":"m 454 456 q 443 507 454 486 q 410 543 431 529 q 362 564 390 557 q 304 571 335 571 q 203 559 256 571 q 101 531 150 548 l 119 621 q 226 652 173 642 q 321 661 279 661 q 424 647 379 661 q 499 608 469 633 q 545 548 529 583 q 560 471 560 513 q 546 381 560 423 q 505 306 531 340 q 441 249 478 273 q 358 212 404 224 l 357 209 q 415 191 390 205 q 458 154 441 176 q 485 103 476 132 q 494 41 494 73 q 464 -101 494 -40 q 382 -202 434 -162 q 264 -261 331 -241 q 122 -280 197 -280 q 12 -268 62 -280 q -73 -236 -39 -255 l -55 -151 q 27 -179 -16 -169 q 130 -190 70 -190 q 233 -174 186 -190 q 315 -130 281 -159 q 370 -58 350 -100 q 389 37 389 -15 q 379 89 389 66 q 346 127 369 111 q 286 151 323 142 q 196 159 249 159 l 123 159 l 142 249 l 196 249 q 299 265 252 249 q 380 309 346 281 q 435 375 415 337 q 454 456 454 413 z "},"4":{"ha":697,"x_min":14,"x_max":609,"o":"m 152 90 l 152 87 l 252 90 l 376 90 l 418 296 l 524 296 l 481 90 l 609 90 l 591 0 l 463 0 l 408 -262 l 302 -262 l 357 0 l 14 0 l 29 77 l 392 644 l 506 644 l 152 90 z "},"5":{"ha":677,"x_min":-31,"x_max":646,"o":"m 213 278 q 235 279 228 279 q 344 266 295 279 q 431 230 393 254 q 507 147 481 197 q 534 32 534 96 q 512 -82 534 -26 q 446 -182 490 -138 q 334 -253 401 -226 q 174 -280 266 -280 q 60 -268 114 -280 q -31 -235 7 -256 l -12 -149 q 81 -180 35 -171 q 170 -189 127 -189 q 282 -170 231 -189 q 366 -121 334 -152 q 413 -52 397 -91 q 429 28 429 -13 q 354 154 429 113 q 182 187 294 187 q 84 182 142 187 l 222 644 l 646 644 l 626 547 l 294 547 l 213 278 z "},"6":{"ha":705,"x_min":78,"x_max":698,"o":"m 634 323 q 614 203 634 264 q 555 94 594 143 q 457 14 516 45 q 321 -17 399 -17 q 223 1 268 -17 q 146 54 178 18 q 96 145 114 90 q 78 273 78 199 q 91 410 78 337 q 128 556 103 484 q 190 694 153 628 q 278 812 228 760 q 393 894 329 863 q 534 924 456 924 q 614 916 576 924 q 698 888 652 908 l 680 800 q 615 823 651 812 q 541 833 580 833 q 426 804 478 833 q 330 725 373 776 q 255 605 288 675 q 198 453 222 536 l 201 453 q 292 521 239 496 q 408 547 345 547 q 493 534 452 547 q 565 494 534 521 q 615 424 597 467 q 634 323 634 382 m 391 453 q 308 436 346 453 q 242 390 269 419 q 199 319 214 360 q 183 231 183 279 q 193 164 183 193 q 222 114 203 134 q 268 83 241 94 q 326 73 294 73 q 415 94 377 73 q 478 150 453 116 q 516 228 504 184 q 529 313 529 271 q 518 376 529 350 q 488 420 507 403 q 444 445 469 437 q 391 453 419 453 z "},"7":{"ha":583,"x_min":-1,"x_max":597,"o":"m 56 547 l 77 644 l 597 644 l 583 574 l 112 -262 l -1 -262 l 452 547 l 56 547 z "},"8":{"ha":700,"x_min":52,"x_max":700,"o":"m 165 661 q 188 773 165 724 q 250 856 211 822 q 341 907 290 889 q 450 924 393 924 q 557 909 511 924 q 636 867 604 895 q 684 801 667 840 q 700 716 700 763 q 686 633 700 673 q 646 562 672 594 q 581 504 619 529 q 493 465 542 479 l 492 463 q 543 440 519 456 q 586 403 567 425 q 616 351 605 380 q 627 286 627 322 q 602 157 627 214 q 531 62 576 101 q 428 3 487 24 q 301 -17 368 -17 q 191 -1 237 -17 q 113 43 144 15 q 67 110 82 71 q 52 195 52 149 q 69 295 52 250 q 116 377 86 341 q 189 437 146 413 q 281 473 231 462 l 281 475 q 237 506 258 489 q 200 545 216 523 q 174 596 184 568 q 165 661 165 625 m 595 713 q 558 802 595 768 q 452 836 521 836 q 378 823 412 836 q 320 788 344 810 q 283 732 296 765 q 270 659 270 700 q 279 604 270 627 q 304 562 288 580 q 345 533 321 545 q 397 513 368 521 q 476 537 439 520 q 538 579 512 553 q 580 638 565 604 q 595 713 595 671 m 522 275 q 511 333 522 309 q 481 376 500 358 q 436 404 463 393 q 378 420 410 415 q 292 400 332 416 q 222 357 252 385 q 175 292 193 330 q 157 203 157 253 q 196 107 157 141 q 311 73 234 73 q 391 86 353 73 q 458 126 429 100 q 505 190 488 152 q 522 275 522 227 z "},"9":{"ha":705,"x_min":-10,"x_max":628,"o":"m 628 368 q 613 204 628 287 q 570 49 598 121 q 500 -83 541 -23 q 408 -188 460 -144 q 293 -256 355 -231 q 159 -280 230 -280 q 58 -267 102 -280 q -10 -241 15 -254 l 11 -153 q 76 -178 39 -168 q 155 -189 113 -189 q 279 -159 220 -189 q 383 -79 337 -130 q 463 43 429 -27 q 518 196 497 114 l 515 196 q 475 156 499 174 q 424 125 452 138 q 363 105 395 112 q 298 98 332 98 q 210 111 251 98 q 138 153 169 125 q 91 222 108 180 q 73 320 73 264 q 96 453 73 391 q 158 562 118 515 q 253 634 198 608 q 374 661 309 661 q 471 645 425 661 q 552 593 517 628 q 608 502 587 557 q 628 368 628 447 m 312 191 q 400 209 361 191 q 467 256 440 227 q 509 325 494 286 q 523 406 523 363 q 513 473 523 442 q 485 525 504 503 q 439 559 467 547 q 377 572 412 572 q 298 553 335 572 q 235 501 261 534 q 193 423 208 468 q 178 326 178 378 q 214 224 179 258 q 312 191 250 191 z "},"\u0000":{"ha":0,"x_min":0,"x_max":0,"o":""},"\r":{"ha":278,"x_min":0,"x_max":0,"o":""}," ":{"ha":278,"x_min":0,"x_max":0,"o":""},"A":{"ha":849,"x_min":-27,"x_max":747,"o":"m -27 0 l 475 907 l 568 907 l 747 0 l 635 0 l 583 273 l 245 273 l 95 0 l -27 0 m 299 373 l 564 373 l 532 547 q 498 746 509 667 l 495 746 q 387 532 459 663 l 299 373 z "},"B":{"ha":821,"x_min":51,"x_max":766,"o":"m 581 463 q 643 443 614 457 q 691 405 671 428 q 723 353 711 382 q 734 288 734 323 q 717 197 734 240 q 666 118 700 153 q 582 56 633 82 q 464 15 532 29 q 386 4 427 7 q 290 0 344 0 l 51 0 l 240 907 l 452 907 q 524 905 492 907 q 588 895 555 903 q 661 867 628 886 q 717 822 694 848 q 753 763 741 796 q 766 692 766 730 q 717 545 766 602 q 581 466 667 489 l 581 463 m 248 415 l 182 100 l 306 100 q 385 102 352 100 q 444 111 417 105 q 526 141 492 122 q 579 184 559 160 q 609 236 600 208 q 618 291 618 263 q 595 362 618 332 q 528 405 572 391 q 444 415 496 415 l 248 415 m 330 808 l 269 515 l 434 515 q 519 525 480 515 q 588 556 559 535 q 634 610 618 578 q 651 686 651 642 q 626 758 651 730 q 553 798 600 786 q 512 806 534 804 q 462 808 490 808 l 330 808 z "},"C":{"ha":783,"x_min":88,"x_max":800,"o":"m 599 826 q 484 807 537 826 q 386 754 430 788 q 308 675 342 721 q 251 575 274 629 q 216 462 228 522 q 203 342 203 402 q 227 210 203 261 q 289 131 251 159 q 375 92 327 102 q 472 81 423 81 q 578 92 527 81 q 670 115 629 102 l 649 14 q 555 -9 606 -1 q 453 -17 504 -17 q 310 3 376 -17 q 194 66 243 24 q 116 176 144 109 q 88 334 88 242 q 102 472 88 402 q 144 608 116 543 q 216 731 173 673 q 316 832 258 789 q 447 900 374 875 q 607 924 519 924 q 714 915 665 924 q 800 891 764 905 l 779 793 q 699 816 741 806 q 599 826 656 826 z "},"D":{"ha":903,"x_min":51,"x_max":863,"o":"m 747 571 q 736 656 747 619 q 703 720 724 693 q 654 765 682 747 q 591 793 625 783 q 538 804 567 801 q 467 808 509 808 l 329 808 l 182 100 l 273 100 q 367 104 326 100 q 441 118 408 109 q 550 164 503 135 q 631 232 597 194 q 688 315 665 271 q 724 404 711 359 q 742 492 736 449 q 747 571 747 535 m 863 559 q 854 455 863 509 q 825 346 845 400 q 774 240 806 292 q 697 146 743 189 q 593 70 652 102 q 456 18 533 37 q 373 5 418 9 q 266 0 328 0 l 51 0 l 239 907 l 469 907 q 551 903 515 907 q 618 891 587 899 q 728 844 682 875 q 805 769 775 812 q 848 673 834 726 q 863 559 863 620 z "},"E":{"ha":728,"x_min":51,"x_max":758,"o":"m 182 100 l 615 100 l 595 0 l 51 0 l 239 907 l 758 907 l 737 808 l 329 808 l 268 515 l 633 515 l 612 415 l 248 415 l 182 100 z "},"F":{"ha":664,"x_min":51,"x_max":749,"o":"m 51 0 l 239 907 l 749 907 l 728 808 l 329 808 l 269 515 l 623 515 l 603 415 l 248 415 l 161 0 l 51 0 z "},"G":{"ha":932,"x_min":95,"x_max":871,"o":"m 639 924 q 707 921 673 924 q 771 912 741 918 q 827 900 802 907 q 871 886 853 893 l 851 788 q 756 815 808 804 q 644 826 704 826 q 515 808 574 826 q 409 757 456 789 q 324 680 361 724 q 263 581 288 635 q 225 468 238 528 q 213 347 213 409 q 230 229 213 279 q 277 146 246 179 q 353 97 309 113 q 454 81 398 81 q 621 131 557 81 q 709 289 684 180 l 728 367 l 520 367 l 541 467 l 859 467 l 815 266 q 762 130 798 184 q 679 43 727 75 q 571 -3 630 10 q 448 -17 513 -17 q 304 5 369 -17 q 192 70 239 26 q 120 180 146 114 q 95 336 95 246 q 109 474 95 404 q 152 609 123 544 q 225 732 181 675 q 330 832 269 789 q 467 900 390 875 q 639 924 545 924 z "},"H":{"ha":909,"x_min":51,"x_max":909,"o":"m 267 515 l 718 515 l 799 907 l 909 907 l 721 0 l 610 0 l 696 415 l 248 415 l 161 0 l 51 0 l 239 907 l 350 907 l 267 515 z "},"I":{"ha":347,"x_min":51,"x_max":350,"o":"m 51 0 l 239 907 l 350 907 l 161 0 l 51 0 z "},"J":{"ha":504,"x_min":-14,"x_max":507,"o":"m 397 907 l 507 907 l 358 189 q 347 142 353 162 q 332 105 340 123 q 302 58 321 80 q 257 19 284 36 q 193 -7 231 3 q 106 -17 156 -17 q 43 -12 75 -17 q -14 3 12 -7 l 7 98 q 52 86 28 90 q 102 81 75 81 q 180 96 149 81 q 228 140 210 111 q 240 166 235 151 q 250 205 245 181 l 397 907 z "},"K":{"ha":793,"x_min":51,"x_max":874,"o":"m 259 459 l 734 907 l 874 907 l 384 448 l 719 0 l 589 0 l 256 444 l 254 444 l 161 0 l 51 0 l 239 907 l 350 907 l 257 459 l 259 459 z "},"L":{"ha":690,"x_min":51,"x_max":615,"o":"m 182 100 l 615 100 l 595 0 l 51 0 l 239 907 l 350 907 l 182 100 z "},"M":{"ha":1099,"x_min":51,"x_max":1102,"o":"m 524 189 q 625 374 584 304 l 937 907 l 1102 907 l 913 0 l 803 0 l 903 477 q 940 640 920 561 q 975 779 959 719 l 969 779 q 828 521 914 666 l 515 0 l 460 0 l 365 503 q 318 779 338 644 l 312 779 q 263 495 288 618 l 161 0 l 51 0 l 239 907 l 393 907 l 494 355 q 522 189 512 259 l 524 189 z "},"N":{"ha":937,"x_min":51,"x_max":940,"o":"m 684 163 q 692 219 688 190 q 701 277 696 248 q 711 336 705 307 q 722 391 716 365 l 829 907 l 940 907 l 751 0 l 648 0 l 402 529 q 354 635 378 579 q 309 746 329 692 l 307 746 q 290 629 299 690 q 269 516 280 569 l 161 0 l 51 0 l 239 907 l 341 907 l 605 338 q 644 253 624 298 q 681 163 665 208 l 684 163 z "},"O":{"ha":968,"x_min":95,"x_max":927,"o":"m 436 -17 q 296 4 359 -17 q 188 68 233 26 q 119 172 143 110 q 95 317 95 235 q 109 456 95 385 q 149 595 122 528 q 217 723 176 663 q 313 827 258 783 q 436 898 368 872 q 587 924 505 924 q 727 903 664 924 q 834 840 790 882 q 903 735 879 798 q 927 591 927 673 q 913 451 927 523 q 873 312 900 380 q 805 185 846 245 q 710 80 764 125 q 587 9 655 35 q 436 -17 518 -17 m 437 81 q 550 103 498 81 q 643 163 602 125 q 716 251 685 201 q 769 356 748 300 q 801 470 790 412 q 812 583 812 528 q 755 764 812 703 q 585 826 699 826 q 472 804 524 826 q 379 744 420 782 q 306 657 337 707 q 253 551 274 607 q 221 437 232 496 q 210 325 210 379 q 267 143 210 205 q 437 81 323 81 z "},"P":{"ha":791,"x_min":51,"x_max":774,"o":"m 348 370 q 239 377 290 370 l 161 0 l 51 0 l 239 907 l 461 907 q 539 904 507 907 q 595 895 570 901 q 674 865 641 884 q 730 819 708 845 q 763 760 752 792 q 774 692 774 728 q 751 573 774 631 q 677 470 728 515 q 544 397 626 425 q 348 370 461 370 m 260 476 q 355 469 306 469 q 463 479 414 469 q 544 506 511 489 q 600 545 578 523 q 635 592 623 568 q 653 641 648 616 q 659 686 659 665 q 636 756 659 728 q 567 798 614 785 q 529 805 551 803 q 473 808 507 808 l 329 808 l 260 476 z "},"Q":{"ha":968,"x_min":88,"x_max":920,"o":"m 920 591 q 902 435 920 511 q 850 291 884 358 q 770 171 817 224 q 667 86 724 118 l 667 83 q 823 94 736 94 q 871 93 838 94 l 850 -7 q 682 0 766 0 q 609 -2 643 0 q 543 -5 574 -3 q 479 -9 511 -7 q 411 -11 447 -11 q 278 11 338 -11 q 176 75 218 33 q 111 178 134 117 q 88 317 88 239 q 102 457 88 385 q 143 596 115 528 q 211 723 170 663 q 308 828 252 783 q 432 898 363 872 q 583 924 500 924 q 721 903 659 924 q 828 839 783 881 q 896 734 872 797 q 920 591 920 672 m 430 81 q 543 103 492 81 q 636 163 595 125 q 710 251 678 201 q 762 356 741 300 q 794 470 783 412 q 805 583 805 528 q 748 764 805 703 q 578 826 692 826 q 465 804 517 826 q 372 744 414 782 q 299 657 330 707 q 246 551 267 607 q 214 437 225 496 q 203 325 203 379 q 260 143 203 205 q 430 81 317 81 z "},"R":{"ha":807,"x_min":51,"x_max":790,"o":"m 239 376 l 161 0 l 51 0 l 239 907 l 477 907 q 552 904 516 907 q 615 893 588 901 q 747 814 704 869 q 790 684 790 759 q 773 583 790 631 q 722 497 757 536 q 631 431 686 458 q 499 390 576 404 l 499 387 l 707 0 l 583 0 l 386 376 l 239 376 m 260 475 l 363 475 q 447 479 412 475 q 511 490 483 483 q 592 525 560 503 q 642 571 623 546 q 668 624 661 597 q 675 678 675 652 q 651 750 675 719 q 578 798 628 782 q 484 808 545 808 l 329 808 l 260 475 z "},"S":{"ha":760,"x_min":26,"x_max":730,"o":"m 143 642 q 165 758 143 706 q 230 847 188 810 q 333 904 272 884 q 469 924 393 924 q 615 909 547 924 q 730 872 682 893 l 710 772 q 597 811 660 795 q 473 826 534 826 q 384 814 424 826 q 316 781 345 802 q 273 729 288 760 q 258 662 258 699 q 272 606 258 629 q 308 567 285 583 q 360 539 330 551 q 422 519 389 528 q 515 488 471 505 q 593 445 559 471 q 646 378 627 418 q 666 279 666 337 q 638 155 666 210 q 562 62 611 100 q 442 3 512 24 q 290 -17 372 -17 q 203 -11 246 -17 q 125 3 159 -5 q 65 23 91 12 q 26 44 40 34 l 47 142 q 96 118 68 129 q 154 98 123 106 q 218 86 185 90 q 284 81 251 81 q 399 95 349 81 q 483 133 449 109 q 533 194 516 158 q 550 273 550 229 q 533 338 550 311 q 487 382 515 365 q 422 410 458 399 q 348 433 386 421 q 269 461 306 445 q 204 502 232 478 q 159 560 176 526 q 143 642 143 594 z "},"T":{"ha":718,"x_min":117,"x_max":811,"o":"m 341 0 l 231 0 l 398 808 l 117 808 l 138 907 l 811 907 l 790 808 l 509 808 l 341 0 z "},"U":{"ha":895,"x_min":95,"x_max":912,"o":"m 393 81 q 478 92 439 81 q 547 120 516 102 q 602 165 578 139 q 642 221 625 191 q 669 283 658 250 q 688 359 680 317 l 802 907 l 912 907 l 792 326 q 772 248 783 283 q 745 182 761 213 q 689 102 722 139 q 612 39 656 66 q 513 -2 568 13 q 389 -17 457 -17 q 257 3 312 -17 q 165 58 201 23 q 112 142 130 94 q 95 245 95 190 q 99 303 95 272 q 110 366 103 334 l 222 907 l 332 907 l 219 360 q 209 306 213 330 q 205 260 205 281 q 216 189 205 222 q 248 132 226 156 q 306 95 271 108 q 393 81 342 81 z "},"V":{"ha":795,"x_min":142,"x_max":897,"o":"m 774 907 l 897 907 l 401 0 l 307 0 l 142 907 l 252 907 l 340 401 q 378 151 367 251 l 380 151 q 497 391 420 247 l 774 907 z "},"W":{"ha":1193,"x_min":142,"x_max":1295,"o":"m 689 486 q 684 675 684 612 q 685 745 685 739 l 682 745 q 592 515 641 635 l 375 0 l 271 0 l 142 907 l 253 907 l 317 410 q 344 155 342 208 l 347 155 q 443 403 374 235 l 650 907 l 766 907 l 791 393 q 798 155 796 262 l 801 155 q 848 267 822 208 q 914 406 873 325 l 1173 907 l 1295 907 l 815 0 l 711 0 l 689 486 z "},"X":{"ha":806,"x_min":-50,"x_max":892,"o":"m 82 0 l -50 0 l 363 472 l 165 907 l 284 907 l 446 551 l 448 551 l 760 907 l 892 907 l 493 452 l 700 0 l 581 0 l 410 373 l 408 373 l 82 0 z "},"Y":{"ha":744,"x_min":136,"x_max":832,"o":"m 271 0 l 348 367 l 136 907 l 248 907 l 412 475 l 414 475 l 704 907 l 832 907 l 458 366 l 382 0 l 271 0 z "},"Z":{"ha":788,"x_min":7,"x_max":822,"o":"m 648 808 l 174 808 l 195 907 l 822 907 l 808 838 l 182 102 l 182 100 l 675 100 l 655 0 l 7 0 l 21 69 l 648 805 l 648 808 z "},"À":{"ha":849,"x_min":-27,"x_max":747,"o":"m -27 0 l 475 907 l 568 907 l 747 0 l 635 0 l 583 273 l 245 273 l 95 0 l -27 0 m 299 373 l 564 373 l 532 547 q 498 746 509 667 l 495 746 q 387 532 459 663 l 299 373 m 513 1123 l 577 956 l 486 956 l 397 1123 l 513 1123 m 203 907 z "},"Á":{"ha":849,"x_min":-27,"x_max":747,"o":"m -27 0 l 475 907 l 568 907 l 747 0 l 635 0 l 583 273 l 245 273 l 95 0 l -27 0 m 299 373 l 564 373 l 532 547 q 498 746 509 667 l 495 746 q 387 532 459 663 l 299 373 m 740 1123 l 583 956 l 486 956 l 616 1123 l 740 1123 m 328 907 z "},"Â":{"ha":849,"x_min":-27,"x_max":747,"o":"m -27 0 l 475 907 l 568 907 l 747 0 l 635 0 l 583 273 l 245 273 l 95 0 l -27 0 m 299 373 l 564 373 l 532 547 q 498 746 509 667 l 495 746 q 387 532 459 663 l 299 373 m 616 1123 l 729 956 l 627 956 l 555 1058 l 552 1058 l 439 956 l 327 956 l 507 1123 l 616 1123 m 238 907 z "},"Ã":{"ha":849,"x_min":-27,"x_max":768,"o":"m -27 0 l 475 907 l 568 907 l 747 0 l 635 0 l 583 273 l 245 273 l 95 0 l -27 0 m 299 373 l 564 373 l 532 547 q 498 746 509 667 l 495 746 q 387 532 459 663 l 299 373 m 768 1107 q 752 1051 763 1077 q 725 1005 741 1025 q 685 975 708 986 q 631 964 661 964 q 597 967 613 964 q 567 977 581 971 q 540 990 553 983 q 516 1004 528 998 q 485 1021 500 1015 q 456 1028 471 1028 q 420 1012 435 1028 q 401 969 406 996 l 313 969 q 328 1026 317 1000 q 356 1072 339 1053 q 396 1102 372 1091 q 449 1113 419 1113 q 504 1103 479 1113 q 553 1079 530 1093 q 589 1058 572 1067 q 624 1048 606 1048 q 660 1065 646 1048 q 680 1107 674 1081 l 768 1107 m 231 907 z "},"Ä":{"ha":849,"x_min":-27,"x_max":747,"o":"m -27 0 l 475 907 l 568 907 l 747 0 l 635 0 l 583 273 l 245 273 l 95 0 l -27 0 m 299 373 l 564 373 l 532 547 q 498 746 509 667 l 495 746 q 387 532 459 663 l 299 373 m 355 982 l 378 1097 l 488 1097 l 464 982 l 355 982 m 614 982 l 638 1097 l 747 1097 l 724 982 l 614 982 m 239 907 z "},"Ā":{"ha":849,"x_min":-27,"x_max":747,"o":"m -27 0 l 475 907 l 568 907 l 747 0 l 635 0 l 583 273 l 245 273 l 95 0 l -27 0 m 299 373 l 564 373 l 532 547 q 498 746 509 667 l 495 746 q 387 532 459 663 l 299 373 m 370 1072 l 736 1072 l 718 982 l 352 982 l 370 1072 m 233 907 z "},"Ă":{"ha":849,"x_min":-27,"x_max":769,"o":"m -27 0 l 475 907 l 568 907 l 747 0 l 635 0 l 583 273 l 245 273 l 95 0 l -27 0 m 299 373 l 564 373 l 532 547 q 498 746 509 667 l 495 746 q 387 532 459 663 l 299 373 m 530 1038 q 571 1042 550 1038 q 612 1058 593 1047 q 648 1087 631 1069 q 674 1133 664 1105 l 769 1133 q 731 1055 755 1088 q 674 999 706 1021 q 604 966 642 977 q 525 956 566 956 q 450 967 484 956 q 393 1001 416 979 q 362 1051 371 1023 q 353 1107 353 1080 q 354 1133 353 1120 l 439 1133 q 439 1121 439 1126 q 463 1061 439 1084 q 530 1038 486 1038 m 233 907 z "},"Å":{"ha":849,"x_min":-27,"x_max":747,"o":"m -27 0 l 475 907 l 568 907 l 747 0 l 635 0 l 583 273 l 245 273 l 95 0 l -27 0 m 299 373 l 564 373 l 532 547 q 498 746 509 667 l 495 746 q 387 532 459 663 l 299 373 m 567 1187 q 627 1179 602 1187 q 671 1157 653 1171 q 697 1123 688 1143 q 706 1082 706 1104 q 695 1028 706 1055 q 663 981 684 1002 q 608 946 641 960 q 530 933 575 933 q 470 941 496 933 q 427 963 444 949 q 400 997 409 977 q 391 1038 391 1016 q 402 1092 391 1065 q 435 1139 413 1118 q 489 1174 456 1160 q 567 1187 522 1187 m 536 1000 q 572 1006 556 1000 q 599 1022 588 1012 q 616 1045 610 1032 q 622 1073 622 1059 q 607 1107 622 1093 q 562 1120 592 1120 q 525 1114 541 1120 q 498 1098 509 1108 q 481 1075 487 1088 q 475 1047 475 1061 q 490 1013 475 1027 q 536 1000 505 1000 m 237 907 z "},"Ǻ":{"ha":849,"x_min":-27,"x_max":787,"o":"m 787 1318 l 631 1183 l 548 1183 l 668 1318 l 787 1318 m 567 1164 q 671 1136 636 1164 q 706 1065 706 1107 q 695 1015 706 1040 q 663 969 684 989 q 608 937 641 949 q 530 924 575 924 q 426 952 461 924 q 391 1023 391 981 q 402 1074 391 1049 q 435 1119 413 1099 q 489 1152 456 1139 q 567 1164 522 1164 m 621 1057 q 606 1087 621 1076 q 561 1098 591 1098 q 498 1078 521 1098 q 476 1032 476 1059 q 491 1002 476 1013 q 536 991 506 991 q 599 1010 576 991 q 621 1057 621 1030 m -27 0 l 475 907 l 568 907 l 747 0 l 635 0 l 583 273 l 245 273 l 95 0 l -27 0 m 299 373 l 564 373 l 532 547 q 498 746 509 667 l 495 746 q 387 532 459 663 l 299 373 z "},"Ą":{"ha":849,"x_min":-27,"x_max":747,"o":"m 583 273 l 245 273 l 95 0 l -27 0 l 475 907 l 568 907 l 747 0 q 679 -34 715 -13 q 613 -80 643 -54 q 565 -134 584 -105 q 545 -191 545 -163 q 561 -229 545 -218 q 606 -241 577 -241 q 646 -237 625 -241 q 691 -225 666 -233 l 672 -316 q 629 -329 652 -325 q 583 -332 606 -332 q 485 -302 518 -332 q 451 -216 451 -271 q 467 -144 451 -178 q 509 -80 483 -109 q 568 -26 535 -50 q 633 14 600 -3 l 583 273 m 299 373 l 564 373 l 532 547 q 498 746 509 667 l 495 746 q 387 532 459 663 l 299 373 z "},"Æ":{"ha":1154,"x_min":-27,"x_max":1174,"o":"m -27 0 l 588 907 l 1174 907 l 1153 808 l 757 808 l 726 515 l 1059 515 l 1039 415 l 717 415 l 684 100 l 1082 100 l 1061 0 l 564 0 l 591 273 l 284 273 l 100 0 l -27 0 m 644 808 l 351 373 l 602 373 l 647 808 l 644 808 z "},"Ǽ":{"ha":1154,"x_min":-27,"x_max":1174,"o":"m -27 0 l 588 907 l 1174 907 l 1153 808 l 757 808 l 726 515 l 1059 515 l 1039 415 l 717 415 l 684 100 l 1082 100 l 1061 0 l 564 0 l 591 273 l 284 273 l 100 0 l -27 0 m 644 808 l 351 373 l 602 373 l 647 808 l 644 808 m 1070 1123 l 913 956 l 816 956 l 947 1123 l 1070 1123 m 659 907 z "},"Ć":{"ha":783,"x_min":88,"x_max":801,"o":"m 599 826 q 484 807 537 826 q 386 754 430 788 q 308 675 342 721 q 251 575 274 629 q 216 462 228 522 q 203 342 203 402 q 227 210 203 261 q 289 131 251 159 q 375 92 327 102 q 472 81 423 81 q 578 92 527 81 q 670 115 629 102 l 649 14 q 555 -9 606 -1 q 453 -17 504 -17 q 310 3 376 -17 q 194 66 243 24 q 116 176 144 109 q 88 334 88 242 q 102 472 88 402 q 144 608 116 543 q 216 731 173 673 q 316 832 258 789 q 447 900 374 875 q 607 924 519 924 q 714 915 665 924 q 800 891 764 905 l 779 793 q 699 816 741 806 q 599 826 656 826 m 801 1123 l 644 956 l 547 956 l 677 1123 l 801 1123 m 389 907 z "},"Ĉ":{"ha":783,"x_min":88,"x_max":800,"o":"m 599 826 q 484 807 537 826 q 386 754 430 788 q 308 675 342 721 q 251 575 274 629 q 216 462 228 522 q 203 342 203 402 q 227 210 203 261 q 289 131 251 159 q 375 92 327 102 q 472 81 423 81 q 578 92 527 81 q 670 115 629 102 l 649 14 q 555 -9 606 -1 q 453 -17 504 -17 q 310 3 376 -17 q 194 66 243 24 q 116 176 144 109 q 88 334 88 242 q 102 472 88 402 q 144 608 116 543 q 216 731 173 673 q 316 832 258 789 q 447 900 374 875 q 607 924 519 924 q 714 915 665 924 q 800 891 764 905 l 779 793 q 699 816 741 806 q 599 826 656 826 m 674 1123 l 787 956 l 685 956 l 613 1058 l 610 1058 l 497 956 l 385 956 l 565 1123 l 674 1123 m 296 907 z "},"Č":{"ha":783,"x_min":88,"x_max":828,"o":"m 599 826 q 484 807 537 826 q 386 754 430 788 q 308 675 342 721 q 251 575 274 629 q 216 462 228 522 q 203 342 203 402 q 227 210 203 261 q 289 131 251 159 q 375 92 327 102 q 472 81 423 81 q 578 92 527 81 q 670 115 629 102 l 649 14 q 555 -9 606 -1 q 453 -17 504 -17 q 310 3 376 -17 q 194 66 243 24 q 116 176 144 109 q 88 334 88 242 q 102 472 88 402 q 144 608 116 543 q 216 731 173 673 q 316 832 258 789 q 447 900 374 875 q 607 924 519 924 q 714 915 665 924 q 800 891 764 905 l 779 793 q 699 816 741 806 q 599 826 656 826 m 539 956 l 426 1123 l 528 1123 l 600 1021 l 603 1021 l 716 1123 l 828 1123 l 648 956 l 539 956 m 297 907 z "},"Ċ":{"ha":783,"x_min":88,"x_max":800,"o":"m 599 826 q 484 807 537 826 q 386 754 430 788 q 308 675 342 721 q 251 575 274 629 q 216 462 228 522 q 203 342 203 402 q 227 210 203 261 q 289 131 251 159 q 375 92 327 102 q 472 81 423 81 q 578 92 527 81 q 670 115 629 102 l 649 14 q 555 -9 606 -1 q 453 -17 504 -17 q 310 3 376 -17 q 194 66 243 24 q 116 176 144 109 q 88 334 88 242 q 102 472 88 402 q 144 608 116 543 q 216 731 173 673 q 316 832 258 789 q 447 900 374 875 q 607 924 519 924 q 714 915 665 924 q 800 891 764 905 l 779 793 q 699 816 741 806 q 599 826 656 826 m 536 982 l 559 1098 l 670 1098 l 646 982 l 536 982 m 292 907 z "},"Ç":{"ha":783,"x_min":88,"x_max":800,"o":"m 599 826 q 484 807 537 826 q 386 754 430 788 q 308 675 342 721 q 251 575 274 629 q 216 462 228 522 q 203 342 203 402 q 227 210 203 261 q 289 131 251 159 q 375 92 327 102 q 472 81 423 81 q 578 92 527 81 q 670 115 629 102 l 649 14 q 555 -9 606 -1 q 453 -17 504 -17 q 420 -16 437 -17 l 391 -87 q 434 -98 414 -90 q 469 -119 454 -106 q 492 -150 484 -132 q 500 -190 500 -168 q 488 -247 500 -221 q 453 -292 477 -273 q 395 -322 430 -311 q 315 -332 361 -332 q 255 -327 283 -332 q 212 -316 227 -322 l 228 -240 q 266 -250 243 -246 q 312 -254 288 -254 q 385 -237 363 -254 q 408 -197 408 -219 q 401 -174 408 -183 q 379 -159 394 -165 q 340 -150 364 -153 q 281 -146 316 -146 l 341 -5 q 239 34 286 7 q 159 102 193 60 q 107 201 125 144 q 88 334 88 259 q 102 472 88 402 q 144 608 116 543 q 216 731 173 673 q 316 832 258 789 q 447 900 374 875 q 607 924 519 924 q 714 915 665 924 q 800 891 764 905 l 779 793 q 699 816 741 806 q 599 826 656 826 z "},"Ď":{"ha":903,"x_min":51,"x_max":863,"o":"m 747 571 q 736 656 747 619 q 703 720 724 693 q 654 765 682 747 q 591 793 625 783 q 538 804 567 801 q 467 808 509 808 l 329 808 l 182 100 l 273 100 q 367 104 326 100 q 441 118 408 109 q 550 164 503 135 q 631 232 597 194 q 688 315 665 271 q 724 404 711 359 q 742 492 736 449 q 747 571 747 535 m 863 559 q 854 455 863 509 q 825 346 845 400 q 774 240 806 292 q 697 146 743 189 q 593 70 652 102 q 456 18 533 37 q 373 5 418 9 q 266 0 328 0 l 51 0 l 239 907 l 469 907 q 551 903 515 907 q 618 891 587 899 q 728 844 682 875 q 805 769 775 812 q 848 673 834 726 q 863 559 863 620 m 462 956 l 349 1123 l 451 1123 l 523 1021 l 526 1021 l 639 1123 l 751 1123 l 571 956 l 462 956 m 220 907 z "},"Đ":{"ha":920,"x_min":54,"x_max":879,"o":"m 75 515 l 174 515 l 256 907 l 485 907 q 567 903 531 907 q 635 891 604 899 q 745 843 699 874 q 821 769 791 812 q 865 673 850 726 q 879 559 879 620 q 870 455 879 509 q 842 346 861 400 q 790 240 822 292 q 714 146 759 189 q 609 69 669 102 q 473 18 549 36 q 390 5 435 9 q 282 0 345 0 l 67 0 l 153 415 l 54 415 l 75 515 m 764 571 q 752 656 764 619 q 720 720 741 693 q 670 765 699 747 q 608 793 642 783 q 553 804 581 801 q 483 808 526 808 l 345 808 l 284 515 l 530 515 l 509 415 l 263 415 l 198 100 l 289 100 q 384 104 344 100 q 457 118 424 109 q 567 164 519 134 q 648 232 614 194 q 705 315 682 271 q 740 404 727 359 q 758 492 753 449 q 764 571 764 535 z "},"È":{"ha":728,"x_min":51,"x_max":758,"o":"m 182 100 l 615 100 l 595 0 l 51 0 l 239 907 l 758 907 l 737 808 l 329 808 l 268 515 l 633 515 l 612 415 l 248 415 l 182 100 m 500 1123 l 565 956 l 473 956 l 385 1123 l 500 1123 m 191 907 z "},"É":{"ha":728,"x_min":51,"x_max":758,"o":"m 182 100 l 615 100 l 595 0 l 51 0 l 239 907 l 758 907 l 737 808 l 329 808 l 268 515 l 633 515 l 612 415 l 248 415 l 182 100 m 696 1123 l 538 956 l 441 956 l 572 1123 l 696 1123 m 284 907 z "},"Ê":{"ha":728,"x_min":51,"x_max":758,"o":"m 182 100 l 615 100 l 595 0 l 51 0 l 239 907 l 758 907 l 737 808 l 329 808 l 268 515 l 633 515 l 612 415 l 248 415 l 182 100 m 600 1123 l 713 956 l 610 956 l 538 1058 l 536 1058 l 422 956 l 311 956 l 490 1123 l 600 1123 m 222 907 z "},"Ě":{"ha":728,"x_min":51,"x_max":758,"o":"m 182 100 l 615 100 l 595 0 l 51 0 l 239 907 l 758 907 l 737 808 l 329 808 l 268 515 l 633 515 l 612 415 l 248 415 l 182 100 m 444 956 l 330 1123 l 433 1123 l 505 1021 l 507 1021 l 621 1123 l 732 1123 l 553 956 l 444 956 m 201 907 z "},"Ë":{"ha":728,"x_min":51,"x_max":758,"o":"m 182 100 l 615 100 l 595 0 l 51 0 l 239 907 l 758 907 l 737 808 l 329 808 l 268 515 l 633 515 l 612 415 l 248 415 l 182 100 m 328 982 l 352 1097 l 461 1097 l 437 982 l 328 982 m 588 982 l 612 1097 l 721 1097 l 697 982 l 588 982 m 213 907 z "},"Ē":{"ha":728,"x_min":51,"x_max":758,"o":"m 182 100 l 615 100 l 595 0 l 51 0 l 239 907 l 758 907 l 737 808 l 329 808 l 268 515 l 633 515 l 612 415 l 248 415 l 182 100 m 342 1072 l 708 1072 l 690 982 l 323 982 l 342 1072 m 204 907 z "},"Ĕ":{"ha":728,"x_min":51,"x_max":758,"o":"m 182 100 l 615 100 l 595 0 l 51 0 l 239 907 l 758 907 l 737 808 l 329 808 l 268 515 l 633 515 l 612 415 l 248 415 l 182 100 m 503 1038 q 544 1042 523 1038 q 585 1058 566 1047 q 621 1087 604 1069 q 647 1133 637 1105 l 742 1133 q 704 1055 728 1088 q 647 999 679 1021 q 577 966 615 977 q 498 956 538 956 q 422 967 456 956 q 366 1001 389 979 q 335 1051 344 1023 q 326 1107 326 1080 q 327 1133 326 1120 l 412 1133 q 412 1121 412 1126 q 435 1061 412 1084 q 503 1038 458 1038 m 206 907 z "},"Ė":{"ha":728,"x_min":51,"x_max":758,"o":"m 182 100 l 615 100 l 595 0 l 51 0 l 239 907 l 758 907 l 737 808 l 329 808 l 268 515 l 633 515 l 612 415 l 248 415 l 182 100 m 441 982 l 465 1098 l 576 1098 l 552 982 l 441 982 m 198 907 z "},"Ę":{"ha":728,"x_min":51,"x_max":758,"o":"m 296 -214 q 312 -146 296 -178 q 351 -87 327 -114 q 404 -39 375 -60 q 462 -3 433 -18 l 462 0 l 51 0 l 239 907 l 758 907 l 737 808 l 329 808 l 268 515 l 633 515 l 612 415 l 248 415 l 182 100 l 615 100 l 595 0 q 552 -19 575 -7 q 507 -46 530 -31 q 463 -78 484 -61 q 426 -114 442 -95 q 400 -152 410 -132 q 391 -191 391 -172 q 456 -241 391 -241 q 496 -237 475 -241 q 542 -225 517 -233 l 523 -316 q 479 -329 503 -325 q 431 -332 454 -332 q 332 -302 367 -332 q 296 -214 296 -272 z "},"Ĝ":{"ha":932,"x_min":95,"x_max":871,"o":"m 639 924 q 707 921 673 924 q 771 912 741 918 q 827 900 802 907 q 871 886 853 893 l 851 788 q 756 815 808 804 q 644 826 704 826 q 515 808 574 826 q 409 757 456 789 q 324 680 361 724 q 263 581 288 635 q 225 468 238 528 q 213 347 213 409 q 230 229 213 279 q 277 146 246 179 q 353 97 309 113 q 454 81 398 81 q 621 131 557 81 q 709 289 684 180 l 728 367 l 520 367 l 541 467 l 859 467 l 815 266 q 762 130 798 184 q 679 43 727 75 q 571 -3 630 10 q 448 -17 513 -17 q 304 5 369 -17 q 192 70 239 26 q 120 180 146 114 q 95 336 95 246 q 109 474 95 404 q 152 609 123 544 q 225 732 181 675 q 330 832 269 789 q 467 900 390 875 q 639 924 545 924 m 682 1123 l 795 956 l 692 956 l 621 1058 l 618 1058 l 505 956 l 393 956 l 572 1123 l 682 1123 m 304 907 z "},"Ğ":{"ha":932,"x_min":95,"x_max":871,"o":"m 639 924 q 707 921 673 924 q 771 912 741 918 q 827 900 802 907 q 871 886 853 893 l 851 788 q 756 815 808 804 q 644 826 704 826 q 515 808 574 826 q 409 757 456 789 q 324 680 361 724 q 263 581 288 635 q 225 468 238 528 q 213 347 213 409 q 230 229 213 279 q 277 146 246 179 q 353 97 309 113 q 454 81 398 81 q 621 131 557 81 q 709 289 684 180 l 728 367 l 520 367 l 541 467 l 859 467 l 815 266 q 762 130 798 184 q 679 43 727 75 q 571 -3 630 10 q 448 -17 513 -17 q 304 5 369 -17 q 192 70 239 26 q 120 180 146 114 q 95 336 95 246 q 109 474 95 404 q 152 609 123 544 q 225 732 181 675 q 330 832 269 789 q 467 900 390 875 q 639 924 545 924 m 576 1038 q 617 1042 596 1038 q 658 1058 639 1047 q 694 1087 677 1069 q 720 1133 710 1105 l 815 1133 q 777 1055 802 1088 q 720 999 752 1021 q 650 966 688 977 q 571 956 612 956 q 496 967 530 956 q 439 1001 462 979 q 408 1051 417 1023 q 399 1107 399 1080 q 400 1133 399 1120 l 486 1133 q 485 1121 485 1126 q 509 1061 486 1084 q 576 1038 532 1038 m 279 907 z "},"Ġ":{"ha":932,"x_min":95,"x_max":871,"o":"m 639 924 q 707 921 673 924 q 771 912 741 918 q 827 900 802 907 q 871 886 853 893 l 851 788 q 756 815 808 804 q 644 826 704 826 q 515 808 574 826 q 409 757 456 789 q 324 680 361 724 q 263 581 288 635 q 225 468 238 528 q 213 347 213 409 q 230 229 213 279 q 277 146 246 179 q 353 97 309 113 q 454 81 398 81 q 621 131 557 81 q 709 289 684 180 l 728 367 l 520 367 l 541 467 l 859 467 l 815 266 q 762 130 798 184 q 679 43 727 75 q 571 -3 630 10 q 448 -17 513 -17 q 304 5 369 -17 q 192 70 239 26 q 120 180 146 114 q 95 336 95 246 q 109 474 95 404 q 152 609 123 544 q 225 732 181 675 q 330 832 269 789 q 467 900 390 875 q 639 924 545 924 m 532 982 l 555 1098 l 666 1098 l 642 982 l 532 982 m 288 907 z "},"Ģ":{"ha":932,"x_min":95,"x_max":871,"o":"m 639 924 q 707 921 673 924 q 771 912 741 918 q 827 900 802 907 q 871 886 853 893 l 851 788 q 756 815 808 804 q 644 826 704 826 q 515 808 574 826 q 409 757 456 789 q 324 680 361 724 q 263 581 288 635 q 225 468 238 528 q 213 347 213 409 q 230 229 213 279 q 277 146 246 179 q 353 97 309 113 q 454 81 398 81 q 621 131 557 81 q 709 289 684 180 l 728 367 l 520 367 l 541 467 l 859 467 l 815 266 q 762 130 798 184 q 679 43 727 75 q 571 -3 630 10 q 448 -17 513 -17 q 304 5 369 -17 q 192 70 239 26 q 120 180 146 114 q 95 336 95 246 q 109 474 95 404 q 152 609 123 544 q 225 732 181 675 q 330 832 269 789 q 467 900 390 875 q 639 924 545 924 m 415 -203 q 405 -179 415 -188 q 374 -170 395 -171 q 368 -170 371 -170 l 386 -83 q 403 -82 395 -82 q 490 -105 458 -82 q 522 -170 522 -127 q 502 -246 522 -206 q 442 -332 483 -286 l 341 -332 q 395 -262 375 -294 q 415 -203 415 -230 z "},"Ĥ":{"ha":909,"x_min":51,"x_max":909,"o":"m 267 515 l 718 515 l 799 907 l 909 907 l 721 0 l 610 0 l 696 415 l 248 415 l 161 0 l 51 0 l 239 907 l 350 907 l 267 515 m 668 1123 l 781 956 l 679 956 l 607 1058 l 604 1058 l 491 956 l 379 956 l 559 1123 l 668 1123 m 290 907 z "},"Ħ":{"ha":909,"x_min":51,"x_max":975,"o":"m 109 755 l 208 755 l 239 907 l 350 907 l 317 755 l 767 755 l 799 907 l 909 907 l 878 755 l 975 755 l 954 655 l 857 655 l 721 0 l 610 0 l 696 415 l 248 415 l 161 0 l 51 0 l 186 655 l 87 655 l 109 755 m 718 515 l 747 655 l 296 655 l 267 515 l 718 515 z "},"Ì":{"ha":347,"x_min":-23,"x_max":351,"o":"m 43 0 l 232 907 l 342 907 l 154 0 l 43 0 m 287 1123 l 351 956 l 260 956 l 172 1123 l 287 1123 m -23 907 z "},"Í":{"ha":347,"x_min":40,"x_max":491,"o":"m 40 0 l 229 907 l 339 907 l 151 0 l 40 0 m 491 1123 l 334 956 l 237 956 l 368 1123 l 491 1123 m 79 907 z "},"Î":{"ha":347,"x_min":0,"x_max":491,"o":"m 43 0 l 232 907 l 342 907 l 154 0 l 43 0 m 378 1123 l 491 956 l 389 956 l 317 1058 l 314 1058 l 201 956 l 89 956 l 269 1123 l 378 1123 m 0 907 z "},"Ĩ":{"ha":347,"x_min":-8,"x_max":529,"o":"m 43 0 l 232 907 l 342 907 l 154 0 l 43 0 m 529 1107 q 513 1051 524 1077 q 486 1005 503 1025 q 446 975 469 986 q 393 964 422 964 q 358 967 374 964 q 328 977 342 971 q 301 990 314 983 q 277 1004 289 998 q 247 1021 261 1015 q 218 1028 232 1028 q 182 1012 196 1028 q 162 969 168 996 l 74 969 q 90 1026 79 1000 q 117 1072 100 1053 q 157 1102 134 1091 q 210 1113 180 1113 q 266 1103 240 1113 q 314 1079 291 1093 q 351 1058 334 1067 q 385 1048 368 1048 q 421 1065 408 1048 q 441 1107 435 1081 l 529 1107 m -8 907 z "},"Ï":{"ha":347,"x_min":-1,"x_max":507,"o":"m 43 0 l 232 907 l 342 907 l 154 0 l 43 0 m 114 982 l 138 1097 l 247 1097 l 223 982 l 114 982 m 374 982 l 397 1097 l 507 1097 l 483 982 l 374 982 m -1 907 z "},"Ī":{"ha":347,"x_min":-8,"x_max":496,"o":"m 43 0 l 232 907 l 342 907 l 154 0 l 43 0 m 130 1072 l 496 1072 l 477 982 l 111 982 l 130 1072 m -8 907 z "},"Ĭ":{"ha":347,"x_min":-6,"x_max":530,"o":"m 43 0 l 232 907 l 342 907 l 154 0 l 43 0 m 291 1038 q 332 1042 311 1038 q 373 1058 353 1047 q 408 1087 392 1069 q 435 1133 425 1105 l 530 1133 q 491 1055 516 1088 q 435 999 467 1021 q 365 966 403 977 q 286 956 326 956 q 210 967 244 956 q 154 1001 176 979 q 122 1051 132 1023 q 113 1107 113 1080 q 115 1133 113 1120 l 200 1133 q 199 1121 199 1126 q 223 1061 200 1084 q 291 1038 246 1038 m -6 907 z "},"İ":{"ha":347,"x_min":0,"x_max":378,"o":"m 43 0 l 232 907 l 342 907 l 154 0 l 43 0 m 243 982 l 267 1098 l 378 1098 l 354 982 l 243 982 m 0 907 z "},"Į":{"ha":347,"x_min":-79,"x_max":350,"o":"m 161 0 q 100 -50 127 -24 q 54 -100 73 -75 q 25 -148 35 -125 q 16 -191 16 -172 q 29 -228 16 -214 q 74 -241 42 -241 q 112 -237 93 -241 q 155 -225 130 -233 l 136 -316 q 94 -329 115 -325 q 50 -332 73 -332 q -46 -302 -13 -332 q -79 -218 -79 -271 q -68 -153 -79 -184 q -40 -93 -58 -121 q 2 -39 -22 -64 q 52 7 26 -14 l 239 907 l 350 907 l 161 0 z "},"Ĳ":{"ha":831,"x_min":51,"x_max":833,"o":"m 51 0 l 239 907 l 350 907 l 161 0 l 51 0 m 723 907 l 833 907 l 684 189 q 673 142 679 162 q 659 105 667 123 q 629 58 647 80 q 584 19 610 36 q 519 -7 557 3 q 432 -17 482 -17 q 370 -12 401 -17 q 313 3 338 -7 l 333 98 q 378 86 355 90 q 428 81 401 81 q 506 96 475 81 q 554 140 536 111 q 566 166 562 151 q 576 205 571 181 l 723 907 z "},"Ĵ":{"ha":504,"x_min":-14,"x_max":655,"o":"m 397 907 l 507 907 l 358 189 q 347 142 353 162 q 332 105 340 123 q 302 58 321 80 q 257 19 284 36 q 193 -7 231 3 q 106 -17 156 -17 q 43 -12 75 -17 q -14 3 12 -7 l 7 98 q 52 86 28 90 q 102 81 75 81 q 180 96 149 81 q 228 140 210 111 q 240 166 235 151 q 250 205 245 181 l 397 907 m 542 1123 l 655 956 l 553 956 l 481 1058 l 478 1058 l 365 956 l 253 956 l 433 1123 l 542 1123 m 164 907 z "},"Ķ":{"ha":793,"x_min":51,"x_max":874,"o":"m 259 459 l 734 907 l 874 907 l 384 448 l 719 0 l 589 0 l 256 444 l 254 444 l 161 0 l 51 0 l 239 907 l 350 907 l 257 459 l 259 459 m 330 -203 q 320 -179 330 -188 q 290 -170 310 -171 q 283 -170 286 -170 l 301 -83 q 318 -82 310 -82 q 405 -105 373 -82 q 437 -170 437 -127 q 417 -246 437 -206 q 357 -332 398 -286 l 256 -332 q 310 -262 290 -294 q 330 -203 330 -230 z "},"Ĺ":{"ha":690,"x_min":51,"x_max":615,"o":"m 182 100 l 615 100 l 595 0 l 51 0 l 239 907 l 350 907 l 182 100 m 503 1123 l 345 956 l 248 956 l 379 1123 l 503 1123 m 91 907 z "},"Ľ":{"ha":690,"x_min":51,"x_max":615,"o":"m 182 100 l 615 100 l 595 0 l 51 0 l 239 907 l 350 907 l 182 100 m 508 791 q 497 815 508 806 q 467 824 487 824 q 460 824 464 824 l 479 911 q 497 912 489 912 q 583 889 551 912 q 614 825 614 866 q 595 748 614 788 q 535 662 576 708 l 434 662 q 488 732 468 700 q 508 791 508 764 z "},"Ļ":{"ha":690,"x_min":51,"x_max":615,"o":"m 182 100 l 615 100 l 595 0 l 51 0 l 239 907 l 350 907 l 182 100 m 294 -203 q 284 -179 294 -188 q 254 -170 274 -171 q 247 -170 250 -170 l 265 -83 q 282 -82 274 -82 q 369 -105 337 -82 q 401 -170 401 -127 q 381 -246 401 -206 q 321 -332 362 -286 l 220 -332 q 274 -262 254 -294 q 294 -203 294 -230 z "},"Ł":{"ha":690,"x_min":28,"x_max":615,"o":"m 502 510 l 248 420 l 182 100 l 615 100 l 595 0 l 51 0 l 130 380 l 28 344 l 50 451 l 152 487 l 239 907 l 350 907 l 271 527 l 524 617 l 502 510 z "},"Ŀ":{"ha":690,"x_min":51,"x_max":615,"o":"m 182 100 l 615 100 l 595 0 l 51 0 l 239 907 l 350 907 l 182 100 m 425 420 l 449 536 l 559 536 l 536 420 l 425 420 z "},"Ń":{"ha":937,"x_min":51,"x_max":940,"o":"m 684 163 q 692 219 688 190 q 701 277 696 248 q 711 336 705 307 q 722 391 716 365 l 829 907 l 940 907 l 751 0 l 648 0 l 402 529 q 354 635 378 579 q 309 746 329 692 l 307 746 q 290 629 299 690 q 269 516 280 569 l 161 0 l 51 0 l 239 907 l 341 907 l 605 338 q 644 253 624 298 q 681 163 665 208 l 684 163 m 785 1123 l 628 956 l 531 956 l 662 1123 l 785 1123 m 374 907 z "},"Ň":{"ha":937,"x_min":51,"x_max":940,"o":"m 684 163 q 692 219 688 190 q 701 277 696 248 q 711 336 705 307 q 722 391 716 365 l 829 907 l 940 907 l 751 0 l 648 0 l 402 529 q 354 635 378 579 q 309 746 329 692 l 307 746 q 290 629 299 690 q 269 516 280 569 l 161 0 l 51 0 l 239 907 l 341 907 l 605 338 q 644 253 624 298 q 681 163 665 208 l 684 163 m 527 956 l 414 1123 l 516 1123 l 588 1021 l 591 1021 l 704 1123 l 816 1123 l 636 956 l 527 956 m 285 907 z "},"Ñ":{"ha":937,"x_min":51,"x_max":940,"o":"m 684 163 q 692 219 688 190 q 701 277 696 248 q 711 336 705 307 q 722 391 716 365 l 829 907 l 940 907 l 751 0 l 648 0 l 402 529 q 354 635 378 579 q 309 746 329 692 l 307 746 q 290 629 299 690 q 269 516 280 569 l 161 0 l 51 0 l 239 907 l 341 907 l 605 338 q 644 253 624 298 q 681 163 665 208 l 684 163 m 832 1107 q 817 1051 827 1077 q 789 1005 806 1025 q 749 975 772 986 q 696 964 726 964 q 661 967 677 964 q 631 977 645 971 q 605 990 617 983 q 581 1004 592 998 q 550 1021 564 1015 q 521 1028 535 1028 q 485 1012 499 1028 q 465 969 471 996 l 377 969 q 393 1026 382 1000 q 420 1072 404 1053 q 460 1102 437 1091 q 513 1113 484 1113 q 569 1103 543 1113 q 617 1079 594 1093 q 654 1058 637 1067 q 688 1048 671 1048 q 725 1065 711 1048 q 744 1107 739 1081 l 832 1107 m 295 907 z "},"Ņ":{"ha":937,"x_min":51,"x_max":940,"o":"m 684 163 q 692 219 688 190 q 701 277 696 248 q 711 336 705 307 q 722 391 716 365 l 829 907 l 940 907 l 751 0 l 648 0 l 402 529 q 354 635 378 579 q 309 746 329 692 l 307 746 q 290 629 299 690 q 269 516 280 569 l 161 0 l 51 0 l 239 907 l 341 907 l 605 338 q 644 253 624 298 q 681 163 665 208 l 684 163 m 368 -203 q 357 -179 368 -188 q 327 -170 347 -171 q 320 -170 323 -170 l 338 -83 q 355 -82 347 -82 q 442 -105 410 -82 q 474 -170 474 -127 q 455 -246 474 -206 q 395 -332 435 -286 l 294 -332 q 348 -262 328 -294 q 368 -203 368 -230 z "},"Ò":{"ha":968,"x_min":95,"x_max":927,"o":"m 436 -17 q 296 4 359 -17 q 188 68 233 26 q 119 172 143 110 q 95 317 95 235 q 109 456 95 385 q 149 595 122 528 q 217 723 176 663 q 313 827 258 783 q 436 898 368 872 q 587 924 505 924 q 727 903 664 924 q 834 840 790 882 q 903 735 879 798 q 927 591 927 673 q 913 451 927 523 q 873 312 900 380 q 805 185 846 245 q 710 80 764 125 q 587 9 655 35 q 436 -17 518 -17 m 437 81 q 550 103 498 81 q 643 163 602 125 q 716 251 685 201 q 769 356 748 300 q 801 470 790 412 q 812 583 812 528 q 755 764 812 703 q 585 826 699 826 q 472 804 524 826 q 379 744 420 782 q 306 657 337 707 q 253 551 274 607 q 221 437 232 496 q 210 325 210 379 q 267 143 210 205 q 437 81 323 81 m 574 1123 l 639 956 l 547 956 l 459 1123 l 574 1123 m 264 907 z "},"Ó":{"ha":968,"x_min":95,"x_max":927,"o":"m 436 -17 q 296 4 359 -17 q 188 68 233 26 q 119 172 143 110 q 95 317 95 235 q 109 456 95 385 q 149 595 122 528 q 217 723 176 663 q 313 827 258 783 q 436 898 368 872 q 587 924 505 924 q 727 903 664 924 q 834 840 790 882 q 903 735 879 798 q 927 591 927 673 q 913 451 927 523 q 873 312 900 380 q 805 185 846 245 q 710 80 764 125 q 587 9 655 35 q 436 -17 518 -17 m 437 81 q 550 103 498 81 q 643 163 602 125 q 716 251 685 201 q 769 356 748 300 q 801 470 790 412 q 812 583 812 528 q 755 764 812 703 q 585 826 699 826 q 472 804 524 826 q 379 744 420 782 q 306 657 337 707 q 253 551 274 607 q 221 437 232 496 q 210 325 210 379 q 267 143 210 205 q 437 81 323 81 m 789 1123 l 631 956 l 534 956 l 665 1123 l 789 1123 m 377 907 z "},"Ô":{"ha":968,"x_min":95,"x_max":927,"o":"m 436 -17 q 296 4 359 -17 q 188 68 233 26 q 119 172 143 110 q 95 317 95 235 q 109 456 95 385 q 149 595 122 528 q 217 723 176 663 q 313 827 258 783 q 436 898 368 872 q 587 924 505 924 q 727 903 664 924 q 834 840 790 882 q 903 735 879 798 q 927 591 927 673 q 913 451 927 523 q 873 312 900 380 q 805 185 846 245 q 710 80 764 125 q 587 9 655 35 q 436 -17 518 -17 m 437 81 q 550 103 498 81 q 643 163 602 125 q 716 251 685 201 q 769 356 748 300 q 801 470 790 412 q 812 583 812 528 q 755 764 812 703 q 585 826 699 826 q 472 804 524 826 q 379 744 420 782 q 306 657 337 707 q 253 551 274 607 q 221 437 232 496 q 210 325 210 379 q 267 143 210 205 q 437 81 323 81 m 685 1123 l 798 956 l 696 956 l 624 1058 l 621 1058 l 508 956 l 396 956 l 576 1123 l 685 1123 m 307 907 z "},"Õ":{"ha":968,"x_min":95,"x_max":927,"o":"m 436 -17 q 296 4 359 -17 q 188 68 233 26 q 119 172 143 110 q 95 317 95 235 q 109 456 95 385 q 149 595 122 528 q 217 723 176 663 q 313 827 258 783 q 436 898 368 872 q 587 924 505 924 q 727 903 664 924 q 834 840 790 882 q 903 735 879 798 q 927 591 927 673 q 913 451 927 523 q 873 312 900 380 q 805 185 846 245 q 710 80 764 125 q 587 9 655 35 q 436 -17 518 -17 m 437 81 q 550 103 498 81 q 643 163 602 125 q 716 251 685 201 q 769 356 748 300 q 801 470 790 412 q 812 583 812 528 q 755 764 812 703 q 585 826 699 826 q 472 804 524 826 q 379 744 420 782 q 306 657 337 707 q 253 551 274 607 q 221 437 232 496 q 210 325 210 379 q 267 143 210 205 q 437 81 323 81 m 845 1107 q 829 1051 840 1077 q 802 1005 819 1025 q 762 975 785 986 q 709 964 739 964 q 674 967 690 964 q 644 977 658 971 q 617 990 630 983 q 593 1004 605 998 q 563 1021 577 1015 q 534 1028 548 1028 q 498 1012 512 1028 q 478 969 484 996 l 390 969 q 406 1026 395 1000 q 433 1072 416 1053 q 473 1102 450 1091 q 526 1113 496 1113 q 582 1103 556 1113 q 630 1079 607 1093 q 667 1058 650 1067 q 701 1048 684 1048 q 738 1065 724 1048 q 757 1107 751 1081 l 845 1107 m 308 907 z "},"Ö":{"ha":968,"x_min":95,"x_max":927,"o":"m 436 -17 q 296 4 359 -17 q 188 68 233 26 q 119 172 143 110 q 95 317 95 235 q 109 456 95 385 q 149 595 122 528 q 217 723 176 663 q 313 827 258 783 q 436 898 368 872 q 587 924 505 924 q 727 903 664 924 q 834 840 790 882 q 903 735 879 798 q 927 591 927 673 q 913 451 927 523 q 873 312 900 380 q 805 185 846 245 q 710 80 764 125 q 587 9 655 35 q 436 -17 518 -17 m 437 81 q 550 103 498 81 q 643 163 602 125 q 716 251 685 201 q 769 356 748 300 q 801 470 790 412 q 812 583 812 528 q 755 764 812 703 q 585 826 699 826 q 472 804 524 826 q 379 744 420 782 q 306 657 337 707 q 253 551 274 607 q 221 437 232 496 q 210 325 210 379 q 267 143 210 205 q 437 81 323 81 m 418 982 l 442 1097 l 551 1097 l 528 982 l 418 982 m 678 982 l 702 1097 l 811 1097 l 787 982 l 678 982 m 303 907 z "},"Ō":{"ha":968,"x_min":95,"x_max":927,"o":"m 436 -17 q 296 4 359 -17 q 188 68 233 26 q 119 172 143 110 q 95 317 95 235 q 109 456 95 385 q 149 595 122 528 q 217 723 176 663 q 313 827 258 783 q 436 898 368 872 q 587 924 505 924 q 727 903 664 924 q 834 840 790 882 q 903 735 879 798 q 927 591 927 673 q 913 451 927 523 q 873 312 900 380 q 805 185 846 245 q 710 80 764 125 q 587 9 655 35 q 436 -17 518 -17 m 437 81 q 550 103 498 81 q 643 163 602 125 q 716 251 685 201 q 769 356 748 300 q 801 470 790 412 q 812 583 812 528 q 755 764 812 703 q 585 826 699 826 q 472 804 524 826 q 379 744 420 782 q 306 657 337 707 q 253 551 274 607 q 221 437 232 496 q 210 325 210 379 q 267 143 210 205 q 437 81 323 81 m 435 1072 l 801 1072 l 783 982 l 416 982 l 435 1072 m 297 907 z "},"Ŏ":{"ha":968,"x_min":95,"x_max":927,"o":"m 436 -17 q 296 4 359 -17 q 188 68 233 26 q 119 172 143 110 q 95 317 95 235 q 109 456 95 385 q 149 595 122 528 q 217 723 176 663 q 313 827 258 783 q 436 898 368 872 q 587 924 505 924 q 727 903 664 924 q 834 840 790 882 q 903 735 879 798 q 927 591 927 673 q 913 451 927 523 q 873 312 900 380 q 805 185 846 245 q 710 80 764 125 q 587 9 655 35 q 436 -17 518 -17 m 437 81 q 550 103 498 81 q 643 163 602 125 q 716 251 685 201 q 769 356 748 300 q 801 470 790 412 q 812 583 812 528 q 755 764 812 703 q 585 826 699 826 q 472 804 524 826 q 379 744 420 782 q 306 657 337 707 q 253 551 274 607 q 221 437 232 496 q 210 325 210 379 q 267 143 210 205 q 437 81 323 81 m 601 1038 q 642 1042 621 1038 q 683 1058 663 1047 q 718 1087 702 1069 q 745 1133 734 1105 l 840 1133 q 801 1055 826 1088 q 745 999 777 1021 q 674 966 713 977 q 595 956 636 956 q 520 967 554 956 q 464 1001 486 979 q 432 1051 441 1023 q 423 1107 423 1080 q 425 1133 423 1120 l 510 1133 q 509 1121 509 1126 q 533 1061 510 1084 q 601 1038 556 1038 m 304 907 z "},"Ő":{"ha":968,"x_min":95,"x_max":927,"o":"m 436 -17 q 296 4 359 -17 q 188 68 233 26 q 119 172 143 110 q 95 317 95 235 q 109 456 95 385 q 149 595 122 528 q 217 723 176 663 q 313 827 258 783 q 436 898 368 872 q 587 924 505 924 q 727 903 664 924 q 834 840 790 882 q 903 735 879 798 q 927 591 927 673 q 913 451 927 523 q 873 312 900 380 q 805 185 846 245 q 710 80 764 125 q 587 9 655 35 q 436 -17 518 -17 m 437 81 q 550 103 498 81 q 643 163 602 125 q 716 251 685 201 q 769 356 748 300 q 801 470 790 412 q 812 583 812 528 q 755 764 812 703 q 585 826 699 826 q 472 804 524 826 q 379 744 420 782 q 306 657 337 707 q 253 551 274 607 q 221 437 232 496 q 210 325 210 379 q 267 143 210 205 q 437 81 323 81 m 690 1123 l 533 956 l 436 956 l 567 1123 l 690 1123 m 895 1123 l 728 956 l 629 956 l 770 1123 l 895 1123 m 345 907 z "},"Ø":{"ha":968,"x_min":53,"x_max":967,"o":"m 967 859 l 885 774 q 916 691 905 736 q 927 591 927 646 q 913 451 927 523 q 873 312 900 380 q 805 185 846 245 q 710 80 764 125 q 587 9 655 35 q 436 -17 518 -17 q 195 61 285 -17 l 119 -17 l 53 49 l 136 135 q 95 317 95 210 q 109 456 95 385 q 149 595 122 528 q 217 723 176 663 q 313 827 258 783 q 436 898 368 872 q 587 924 505 924 q 721 905 661 924 q 826 847 781 886 l 901 924 l 967 859 m 437 81 q 550 103 498 81 q 644 163 602 125 q 718 251 686 201 q 771 356 750 300 q 804 470 793 412 q 814 583 814 528 q 801 687 814 640 l 269 138 q 437 81 327 81 m 585 826 q 472 804 524 826 q 378 744 420 782 q 304 657 336 707 q 251 551 272 607 q 218 437 229 496 q 208 325 208 379 q 220 222 208 265 l 751 770 q 585 826 694 826 z "},"Ǿ":{"ha":968,"x_min":53,"x_max":967,"o":"m 967 859 l 885 774 q 916 691 905 736 q 927 591 927 646 q 913 451 927 523 q 873 312 900 380 q 805 185 846 245 q 710 80 764 125 q 587 9 655 35 q 436 -17 518 -17 q 195 61 285 -17 l 119 -17 l 53 49 l 136 135 q 95 317 95 210 q 109 456 95 385 q 149 595 122 528 q 217 723 176 663 q 313 827 258 783 q 436 898 368 872 q 587 924 505 924 q 721 905 661 924 q 826 847 781 886 l 901 924 l 967 859 m 437 81 q 550 103 498 81 q 644 163 602 125 q 718 251 686 201 q 771 356 750 300 q 804 470 793 412 q 814 583 814 528 q 801 687 814 640 l 269 138 q 437 81 327 81 m 585 826 q 472 804 524 826 q 378 744 420 782 q 304 657 336 707 q 251 551 272 607 q 218 437 229 496 q 208 325 208 379 q 220 222 208 265 l 751 770 q 585 826 694 826 m 787 1123 l 629 956 l 532 956 l 663 1123 l 787 1123 m 375 907 z "},"Œ":{"ha":1380,"x_min":95,"x_max":1411,"o":"m 418 -17 q 289 5 349 -17 q 187 69 230 26 q 119 176 144 112 q 95 325 95 240 q 109 460 95 391 q 149 597 122 530 q 217 723 176 663 q 311 827 257 783 q 433 898 366 872 q 583 924 501 924 q 757 886 688 924 q 862 776 826 848 l 865 776 l 892 907 l 1411 907 l 1390 808 l 981 808 l 920 515 l 1285 515 l 1265 415 l 900 415 l 834 100 l 1267 100 l 1247 0 l 703 0 l 729 123 l 726 123 q 666 66 699 92 q 596 22 634 41 q 514 -6 558 4 q 418 -17 470 -17 m 432 81 q 547 103 495 81 q 642 163 600 125 q 716 251 684 201 q 769 356 748 300 q 801 470 790 412 q 812 583 812 528 q 755 764 812 703 q 585 826 699 826 q 472 804 524 826 q 379 744 420 782 q 306 657 337 707 q 253 551 274 607 q 221 437 232 496 q 210 325 210 379 q 267 143 210 205 q 432 81 323 81 z "},"Ŕ":{"ha":807,"x_min":51,"x_max":790,"o":"m 239 376 l 161 0 l 51 0 l 239 907 l 477 907 q 552 904 516 907 q 615 893 588 901 q 747 814 704 869 q 790 684 790 759 q 773 583 790 631 q 722 497 757 536 q 631 431 686 458 q 499 390 576 404 l 499 387 l 707 0 l 583 0 l 386 376 l 239 376 m 260 475 l 363 475 q 447 479 412 475 q 511 490 483 483 q 592 525 560 503 q 642 571 623 546 q 668 624 661 597 q 675 678 675 652 q 651 750 675 719 q 578 798 628 782 q 484 808 545 808 l 329 808 l 260 475 m 675 1123 l 518 956 l 421 956 l 552 1123 l 675 1123 m 264 907 z "},"Ř":{"ha":807,"x_min":51,"x_max":790,"o":"m 239 376 l 161 0 l 51 0 l 239 907 l 477 907 q 552 904 516 907 q 615 893 588 901 q 747 814 704 869 q 790 684 790 759 q 773 583 790 631 q 722 497 757 536 q 631 431 686 458 q 499 390 576 404 l 499 387 l 707 0 l 583 0 l 386 376 l 239 376 m 260 475 l 363 475 q 447 479 412 475 q 511 490 483 483 q 592 525 560 503 q 642 571 623 546 q 668 624 661 597 q 675 678 675 652 q 651 750 675 719 q 578 798 628 782 q 484 808 545 808 l 329 808 l 260 475 m 432 956 l 319 1123 l 421 1123 l 493 1021 l 496 1021 l 609 1123 l 721 1123 l 541 956 l 432 956 m 190 907 z "},"Ŗ":{"ha":807,"x_min":51,"x_max":790,"o":"m 239 376 l 161 0 l 51 0 l 239 907 l 477 907 q 552 904 516 907 q 615 893 588 901 q 747 814 704 869 q 790 684 790 759 q 773 583 790 631 q 722 497 757 536 q 631 431 686 458 q 499 390 576 404 l 499 387 l 707 0 l 583 0 l 386 376 l 239 376 m 260 475 l 363 475 q 447 479 412 475 q 511 490 483 483 q 592 525 560 503 q 642 571 623 546 q 668 624 661 597 q 675 678 675 652 q 651 750 675 719 q 578 798 628 782 q 484 808 545 808 l 329 808 l 260 475 m 328 -203 q 317 -179 328 -188 q 287 -170 307 -171 q 280 -170 283 -170 l 298 -83 q 315 -82 307 -82 q 402 -105 370 -82 q 434 -170 434 -127 q 415 -246 434 -206 q 355 -332 395 -286 l 254 -332 q 308 -262 288 -294 q 328 -203 328 -230 z "},"Ś":{"ha":760,"x_min":26,"x_max":730,"o":"m 143 642 q 165 758 143 706 q 230 847 188 810 q 333 904 272 884 q 469 924 393 924 q 615 909 547 924 q 730 872 682 893 l 710 772 q 597 811 660 795 q 473 826 534 826 q 384 814 424 826 q 316 781 345 802 q 273 729 288 760 q 258 662 258 699 q 272 606 258 629 q 308 567 285 583 q 360 539 330 551 q 422 519 389 528 q 515 488 471 505 q 593 445 559 471 q 646 378 627 418 q 666 279 666 337 q 638 155 666 210 q 562 62 611 100 q 442 3 512 24 q 290 -17 372 -17 q 203 -11 246 -17 q 125 3 159 -5 q 65 23 91 12 q 26 44 40 34 l 47 142 q 96 118 68 129 q 154 98 123 106 q 218 86 185 90 q 284 81 251 81 q 399 95 349 81 q 483 133 449 109 q 533 194 516 158 q 550 273 550 229 q 533 338 550 311 q 487 382 515 365 q 422 410 458 399 q 348 433 386 421 q 269 461 306 445 q 204 502 232 478 q 159 560 176 526 q 143 642 143 594 m 671 1123 l 513 956 l 416 956 l 547 1123 l 671 1123 m 259 907 z "},"Ŝ":{"ha":760,"x_min":26,"x_max":730,"o":"m 143 642 q 165 758 143 706 q 230 847 188 810 q 333 904 272 884 q 469 924 393 924 q 615 909 547 924 q 730 872 682 893 l 710 772 q 597 811 660 795 q 473 826 534 826 q 384 814 424 826 q 316 781 345 802 q 273 729 288 760 q 258 662 258 699 q 272 606 258 629 q 308 567 285 583 q 360 539 330 551 q 422 519 389 528 q 515 488 471 505 q 593 445 559 471 q 646 378 627 418 q 666 279 666 337 q 638 155 666 210 q 562 62 611 100 q 442 3 512 24 q 290 -17 372 -17 q 203 -11 246 -17 q 125 3 159 -5 q 65 23 91 12 q 26 44 40 34 l 47 142 q 96 118 68 129 q 154 98 123 106 q 218 86 185 90 q 284 81 251 81 q 399 95 349 81 q 483 133 449 109 q 533 194 516 158 q 550 273 550 229 q 533 338 550 311 q 487 382 515 365 q 422 410 458 399 q 348 433 386 421 q 269 461 306 445 q 204 502 232 478 q 159 560 176 526 q 143 642 143 594 m 565 1123 l 678 956 l 576 956 l 504 1058 l 501 1058 l 388 956 l 276 956 l 456 1123 l 565 1123 m 187 907 z "},"Š":{"ha":760,"x_min":26,"x_max":730,"o":"m 143 642 q 165 758 143 706 q 230 847 188 810 q 333 904 272 884 q 469 924 393 924 q 615 909 547 924 q 730 872 682 893 l 710 772 q 597 811 660 795 q 473 826 534 826 q 384 814 424 826 q 316 781 345 802 q 273 729 288 760 q 258 662 258 699 q 272 606 258 629 q 308 567 285 583 q 360 539 330 551 q 422 519 389 528 q 515 488 471 505 q 593 445 559 471 q 646 378 627 418 q 666 279 666 337 q 638 155 666 210 q 562 62 611 100 q 442 3 512 24 q 290 -17 372 -17 q 203 -11 246 -17 q 125 3 159 -5 q 65 23 91 12 q 26 44 40 34 l 47 142 q 96 118 68 129 q 154 98 123 106 q 218 86 185 90 q 284 81 251 81 q 399 95 349 81 q 483 133 449 109 q 533 194 516 158 q 550 273 550 229 q 533 338 550 311 q 487 382 515 365 q 422 410 458 399 q 348 433 386 421 q 269 461 306 445 q 204 502 232 478 q 159 560 176 526 q 143 642 143 594 m 422 956 l 309 1123 l 411 1123 l 483 1021 l 486 1021 l 599 1123 l 711 1123 l 531 956 l 422 956 m 180 907 z "},"Ş":{"ha":760,"x_min":26,"x_max":730,"o":"m 143 642 q 165 758 143 706 q 230 847 188 810 q 333 904 272 884 q 469 924 393 924 q 615 909 547 924 q 730 872 682 893 l 710 772 q 597 811 660 795 q 473 826 534 826 q 384 814 424 826 q 316 781 345 802 q 273 729 288 760 q 258 662 258 699 q 272 606 258 629 q 308 567 285 583 q 360 539 330 551 q 422 519 389 528 q 515 488 471 505 q 593 445 559 471 q 646 378 627 418 q 666 279 666 337 q 638 155 666 210 q 561 62 611 100 q 449 6 511 24 q 325 -16 387 -12 l 296 -87 q 339 -98 319 -90 q 374 -119 359 -106 q 397 -150 389 -132 q 405 -190 405 -168 q 393 -247 405 -221 q 358 -292 382 -273 q 300 -322 335 -311 q 220 -332 266 -332 q 160 -327 189 -332 q 117 -316 132 -322 l 133 -240 q 171 -250 149 -246 q 217 -254 193 -254 q 289 -237 265 -254 q 313 -197 313 -220 q 306 -174 313 -183 q 284 -159 300 -165 q 245 -150 269 -153 q 186 -146 221 -146 l 241 -15 q 191 -9 222 -14 q 125 3 159 -5 q 65 23 91 12 q 26 44 40 34 l 47 142 q 96 118 68 129 q 154 98 123 106 q 218 86 185 90 q 284 81 251 81 q 399 95 349 81 q 483 133 449 109 q 533 194 516 158 q 550 273 550 229 q 533 338 550 311 q 487 382 515 365 q 422 410 458 399 q 348 433 386 421 q 269 461 306 445 q 204 502 232 478 q 159 560 176 526 q 143 642 143 594 z "},"Ș":{"ha":760,"x_min":26,"x_max":730,"o":"m 143 642 q 165 758 143 706 q 230 847 188 810 q 333 904 272 884 q 469 924 393 924 q 615 909 547 924 q 730 872 682 893 l 710 772 q 597 811 660 795 q 473 826 534 826 q 384 814 424 826 q 316 781 345 802 q 273 729 288 760 q 258 662 258 699 q 272 606 258 629 q 308 567 285 583 q 360 539 330 551 q 422 519 389 528 q 515 488 471 505 q 593 445 559 471 q 646 378 627 418 q 666 279 666 337 q 638 155 666 210 q 562 62 611 100 q 442 3 512 24 q 290 -17 372 -17 q 203 -11 246 -17 q 125 3 159 -5 q 65 23 91 12 q 26 44 40 34 l 47 142 q 96 118 68 129 q 154 98 123 106 q 218 86 185 90 q 284 81 251 81 q 399 95 349 81 q 483 133 449 109 q 533 194 516 158 q 550 273 550 229 q 533 338 550 311 q 487 382 515 365 q 422 410 458 399 q 348 433 386 421 q 269 461 306 445 q 204 502 232 478 q 159 560 176 526 q 143 642 143 594 m 271 -203 q 261 -179 271 -188 q 231 -170 251 -171 q 224 -170 227 -170 l 242 -83 q 259 -82 251 -82 q 346 -105 314 -82 q 378 -170 378 -127 q 358 -246 378 -206 q 298 -332 339 -286 l 197 -332 q 251 -262 231 -294 q 271 -203 271 -230 z "},"Ť":{"ha":718,"x_min":117,"x_max":811,"o":"m 341 0 l 231 0 l 398 808 l 117 808 l 138 907 l 811 907 l 790 808 l 509 808 l 341 0 m 417 956 l 304 1123 l 406 1123 l 478 1021 l 481 1021 l 594 1123 l 706 1123 l 526 956 l 417 956 m 175 907 z "},"Ţ":{"ha":718,"x_min":117,"x_max":811,"o":"m 341 0 l 231 0 l 398 808 l 117 808 l 138 907 l 811 907 l 790 808 l 509 808 l 341 0 m 242 -203 q 232 -179 242 -188 q 201 -170 222 -171 q 195 -170 198 -170 l 213 -83 q 230 -82 222 -82 q 317 -105 285 -82 q 349 -170 349 -127 q 329 -246 349 -206 q 269 -332 310 -286 l 168 -332 q 222 -262 202 -294 q 242 -203 242 -230 z "},"Ŧ":{"ha":718,"x_min":117,"x_max":811,"o":"m 187 515 l 337 515 l 398 808 l 117 808 l 138 907 l 811 907 l 790 808 l 509 808 l 448 515 l 608 515 l 587 415 l 427 415 l 341 0 l 231 0 l 317 415 l 166 415 l 187 515 z "},"Ù":{"ha":895,"x_min":95,"x_max":912,"o":"m 393 81 q 478 92 439 81 q 547 120 516 102 q 602 165 578 139 q 642 221 625 191 q 669 283 658 250 q 688 359 680 317 l 802 907 l 912 907 l 792 326 q 772 248 783 283 q 745 182 761 213 q 689 102 722 139 q 612 39 656 66 q 513 -2 568 13 q 389 -17 457 -17 q 257 3 312 -17 q 165 58 201 23 q 112 142 130 94 q 95 245 95 190 q 99 303 95 272 q 110 366 103 334 l 222 907 l 332 907 l 219 360 q 209 306 213 330 q 205 260 205 281 q 216 189 205 222 q 248 132 226 156 q 306 95 271 108 q 393 81 342 81 m 562 1123 l 627 956 l 535 956 l 447 1123 l 562 1123 m 252 907 z "},"Ú":{"ha":895,"x_min":95,"x_max":912,"o":"m 393 81 q 478 92 439 81 q 547 120 516 102 q 602 165 578 139 q 642 221 625 191 q 669 283 658 250 q 688 359 680 317 l 802 907 l 912 907 l 792 326 q 772 248 783 283 q 745 182 761 213 q 689 102 722 139 q 612 39 656 66 q 513 -2 568 13 q 389 -17 457 -17 q 257 3 312 -17 q 165 58 201 23 q 112 142 130 94 q 95 245 95 190 q 99 303 95 272 q 110 366 103 334 l 222 907 l 332 907 l 219 360 q 209 306 213 330 q 205 260 205 281 q 216 189 205 222 q 248 132 226 156 q 306 95 271 108 q 393 81 342 81 m 758 1123 l 600 956 l 503 956 l 634 1123 l 758 1123 m 346 907 z "},"Û":{"ha":895,"x_min":95,"x_max":912,"o":"m 393 81 q 478 92 439 81 q 547 120 516 102 q 602 165 578 139 q 642 221 625 191 q 669 283 658 250 q 688 359 680 317 l 802 907 l 912 907 l 792 326 q 772 248 783 283 q 745 182 761 213 q 689 102 722 139 q 612 39 656 66 q 513 -2 568 13 q 389 -17 457 -17 q 257 3 312 -17 q 165 58 201 23 q 112 142 130 94 q 95 245 95 190 q 99 303 95 272 q 110 366 103 334 l 222 907 l 332 907 l 219 360 q 209 306 213 330 q 205 260 205 281 q 216 189 205 222 q 248 132 226 156 q 306 95 271 108 q 393 81 342 81 m 661 1123 l 774 956 l 671 956 l 600 1058 l 597 1058 l 484 956 l 372 956 l 551 1123 l 661 1123 m 283 907 z "},"Ũ":{"ha":895,"x_min":95,"x_max":912,"o":"m 393 81 q 478 92 439 81 q 547 120 516 102 q 602 165 578 139 q 642 221 625 191 q 669 283 658 250 q 688 359 680 317 l 802 907 l 912 907 l 792 326 q 772 248 783 283 q 745 182 761 213 q 689 102 722 139 q 612 39 656 66 q 513 -2 568 13 q 389 -17 457 -17 q 257 3 312 -17 q 165 58 201 23 q 112 142 130 94 q 95 245 95 190 q 99 303 95 272 q 110 366 103 334 l 222 907 l 332 907 l 219 360 q 209 306 213 330 q 205 260 205 281 q 216 189 205 222 q 248 132 226 156 q 306 95 271 108 q 393 81 342 81 m 812 1107 q 797 1051 808 1077 q 769 1005 786 1025 q 729 975 753 986 q 676 964 706 964 q 642 967 658 964 q 611 977 625 971 q 585 990 597 983 q 561 1004 572 998 q 530 1021 545 1015 q 501 1028 515 1028 q 465 1012 479 1028 q 446 969 451 996 l 357 969 q 373 1026 362 1000 q 400 1072 384 1053 q 440 1102 417 1091 q 494 1113 464 1113 q 549 1103 524 1113 q 597 1079 574 1093 q 634 1058 617 1067 q 669 1048 651 1048 q 705 1065 691 1048 q 724 1107 719 1081 l 812 1107 m 275 907 z "},"Ü":{"ha":895,"x_min":95,"x_max":912,"o":"m 393 81 q 478 92 439 81 q 547 120 516 102 q 602 165 578 139 q 642 221 625 191 q 669 283 658 250 q 688 359 680 317 l 802 907 l 912 907 l 792 326 q 772 248 783 283 q 745 182 761 213 q 689 102 722 139 q 612 39 656 66 q 513 -2 568 13 q 389 -17 457 -17 q 257 3 312 -17 q 165 58 201 23 q 112 142 130 94 q 95 245 95 190 q 99 303 95 272 q 110 366 103 334 l 222 907 l 332 907 l 219 360 q 209 306 213 330 q 205 260 205 281 q 216 189 205 222 q 248 132 226 156 q 306 95 271 108 q 393 81 342 81 m 392 982 l 416 1097 l 525 1097 l 501 982 l 392 982 m 652 982 l 675 1097 l 785 1097 l 761 982 l 652 982 m 277 907 z "},"Ū":{"ha":895,"x_min":95,"x_max":912,"o":"m 393 81 q 478 92 439 81 q 547 120 516 102 q 602 165 578 139 q 642 221 625 191 q 669 283 658 250 q 688 359 680 317 l 802 907 l 912 907 l 792 326 q 772 248 783 283 q 745 182 761 213 q 689 102 722 139 q 612 39 656 66 q 513 -2 568 13 q 389 -17 457 -17 q 257 3 312 -17 q 165 58 201 23 q 112 142 130 94 q 95 245 95 190 q 99 303 95 272 q 110 366 103 334 l 222 907 l 332 907 l 219 360 q 209 306 213 330 q 205 260 205 281 q 216 189 205 222 q 248 132 226 156 q 306 95 271 108 q 393 81 342 81 m 410 1072 l 777 1072 l 758 982 l 392 982 l 410 1072 m 273 907 z "},"Ŭ":{"ha":895,"x_min":95,"x_max":912,"o":"m 393 81 q 478 92 439 81 q 547 120 516 102 q 602 165 578 139 q 642 221 625 191 q 669 283 658 250 q 688 359 680 317 l 802 907 l 912 907 l 792 326 q 772 248 783 283 q 745 182 761 213 q 689 102 722 139 q 612 39 656 66 q 513 -2 568 13 q 389 -17 457 -17 q 257 3 312 -17 q 165 58 201 23 q 112 142 130 94 q 95 245 95 190 q 99 303 95 272 q 110 366 103 334 l 222 907 l 332 907 l 219 360 q 209 306 213 330 q 205 260 205 281 q 216 189 205 222 q 248 132 226 156 q 306 95 271 108 q 393 81 342 81 m 570 1038 q 611 1042 589 1038 q 651 1058 632 1047 q 687 1087 671 1069 q 713 1133 703 1105 l 808 1133 q 770 1055 795 1088 q 713 999 745 1021 q 643 966 682 977 q 564 956 605 956 q 489 967 523 956 q 433 1001 455 979 q 401 1051 410 1023 q 392 1107 392 1080 q 393 1133 392 1120 l 479 1133 q 478 1121 478 1126 q 502 1061 479 1084 q 570 1038 525 1038 m 273 907 z "},"Ů":{"ha":895,"x_min":95,"x_max":912,"o":"m 393 81 q 478 92 439 81 q 547 120 516 102 q 602 165 578 139 q 642 221 625 191 q 669 283 658 250 q 688 359 680 317 l 802 907 l 912 907 l 792 326 q 772 248 783 283 q 745 182 761 213 q 689 102 722 139 q 612 39 656 66 q 513 -2 568 13 q 389 -17 457 -17 q 257 3 312 -17 q 165 58 201 23 q 112 142 130 94 q 95 245 95 190 q 99 303 95 272 q 110 366 103 334 l 222 907 l 332 907 l 219 360 q 209 306 213 330 q 205 260 205 281 q 216 189 205 222 q 248 132 226 156 q 306 95 271 108 q 393 81 342 81 m 604 1187 q 665 1179 639 1187 q 708 1157 690 1171 q 734 1123 726 1143 q 743 1082 743 1104 q 732 1028 743 1055 q 700 981 722 1002 q 645 946 678 960 q 568 933 612 933 q 507 941 533 933 q 464 963 481 949 q 437 997 446 977 q 429 1038 429 1016 q 439 1092 429 1065 q 472 1139 450 1118 q 527 1174 494 1160 q 604 1187 559 1187 m 573 1000 q 609 1006 593 1000 q 636 1022 625 1012 q 653 1045 648 1032 q 659 1073 659 1059 q 644 1107 659 1093 q 599 1120 629 1120 q 563 1114 578 1120 q 535 1098 547 1108 q 518 1075 524 1088 q 513 1047 513 1061 q 528 1013 513 1027 q 573 1000 543 1000 m 274 907 z "},"Ű":{"ha":895,"x_min":95,"x_max":912,"o":"m 393 81 q 478 92 439 81 q 547 120 516 102 q 602 165 578 139 q 642 221 625 191 q 669 283 658 250 q 688 359 680 317 l 802 907 l 912 907 l 792 326 q 772 248 783 283 q 745 182 761 213 q 689 102 722 139 q 612 39 656 66 q 513 -2 568 13 q 389 -17 457 -17 q 257 3 312 -17 q 165 58 201 23 q 112 142 130 94 q 95 245 95 190 q 99 303 95 272 q 110 366 103 334 l 222 907 l 332 907 l 219 360 q 209 306 213 330 q 205 260 205 281 q 216 189 205 222 q 248 132 226 156 q 306 95 271 108 q 393 81 342 81 m 667 1123 l 510 956 l 413 956 l 544 1123 l 667 1123 m 871 1123 l 705 956 l 606 956 l 747 1123 l 871 1123 m 321 907 z "},"Ų":{"ha":895,"x_min":95,"x_max":912,"o":"m 469 -5 q 377 -16 422 -16 q 254 4 308 -16 q 165 59 200 24 q 112 142 130 94 q 95 245 95 190 q 99 303 95 272 q 110 366 103 334 l 222 907 l 332 907 l 219 360 q 209 306 213 330 q 205 260 205 281 q 216 189 205 222 q 248 132 226 156 q 306 95 271 108 q 393 81 342 81 q 478 92 439 81 q 547 120 516 102 q 602 165 578 139 q 642 221 625 191 q 669 283 658 250 q 688 359 680 317 l 802 907 l 912 907 l 792 326 q 766 238 782 278 q 729 163 750 197 q 684 101 708 129 q 633 49 660 73 q 554 -17 593 14 q 482 -76 514 -48 q 430 -133 450 -104 q 410 -191 410 -162 q 473 -241 410 -241 q 513 -237 492 -241 q 559 -225 534 -233 l 541 -316 q 496 -329 521 -325 q 449 -332 472 -332 q 348 -302 385 -332 q 311 -214 311 -272 q 325 -152 311 -182 q 360 -97 338 -123 q 411 -48 382 -71 q 470 -7 439 -26 l 469 -5 z "},"Ẁ":{"ha":1193,"x_min":142,"x_max":1295,"o":"m 689 486 q 684 675 684 612 q 685 745 685 739 l 682 745 q 592 515 641 635 l 375 0 l 271 0 l 142 907 l 253 907 l 317 410 q 344 155 342 208 l 347 155 q 443 403 374 235 l 650 907 l 766 907 l 791 393 q 798 155 796 262 l 801 155 q 848 267 822 208 q 914 406 873 325 l 1173 907 l 1295 907 l 815 0 l 711 0 l 689 486 m 702 1123 l 766 956 l 675 956 l 587 1123 l 702 1123 m 392 907 z "},"Ẃ":{"ha":1193,"x_min":142,"x_max":1295,"o":"m 689 486 q 684 675 684 612 q 685 745 685 739 l 682 745 q 592 515 641 635 l 375 0 l 271 0 l 142 907 l 253 907 l 317 410 q 344 155 342 208 l 347 155 q 443 403 374 235 l 650 907 l 766 907 l 791 393 q 798 155 796 262 l 801 155 q 848 267 822 208 q 914 406 873 325 l 1173 907 l 1295 907 l 815 0 l 711 0 l 689 486 m 918 1123 l 761 956 l 664 956 l 795 1123 l 918 1123 m 507 907 z "},"Ŵ":{"ha":1193,"x_min":142,"x_max":1295,"o":"m 689 486 q 684 675 684 612 q 685 745 685 739 l 682 745 q 592 515 641 635 l 375 0 l 271 0 l 142 907 l 253 907 l 317 410 q 344 155 342 208 l 347 155 q 443 403 374 235 l 650 907 l 766 907 l 791 393 q 798 155 796 262 l 801 155 q 848 267 822 208 q 914 406 873 325 l 1173 907 l 1295 907 l 815 0 l 711 0 l 689 486 m 799 1123 l 912 956 l 810 956 l 738 1058 l 735 1058 l 622 956 l 510 956 l 690 1123 l 799 1123 m 421 907 z "},"Ẅ":{"ha":1193,"x_min":142,"x_max":1295,"o":"m 689 486 q 684 675 684 612 q 685 745 685 739 l 682 745 q 592 515 641 635 l 375 0 l 271 0 l 142 907 l 253 907 l 317 410 q 344 155 342 208 l 347 155 q 443 403 374 235 l 650 907 l 766 907 l 791 393 q 798 155 796 262 l 801 155 q 848 267 822 208 q 914 406 873 325 l 1173 907 l 1295 907 l 815 0 l 711 0 l 689 486 m 538 982 l 562 1097 l 671 1097 l 648 982 l 538 982 m 798 982 l 822 1097 l 931 1097 l 907 982 l 798 982 m 423 907 z "},"Ỳ":{"ha":744,"x_min":136,"x_max":832,"o":"m 271 0 l 348 367 l 136 907 l 248 907 l 412 475 l 414 475 l 704 907 l 832 907 l 458 366 l 382 0 l 271 0 m 463 1123 l 527 956 l 435 956 l 347 1123 l 463 1123 m 153 907 z "},"Ý":{"ha":744,"x_min":136,"x_max":832,"o":"m 271 0 l 348 367 l 136 907 l 248 907 l 412 475 l 414 475 l 704 907 l 832 907 l 458 366 l 382 0 l 271 0 m 669 1123 l 512 956 l 415 956 l 546 1123 l 669 1123 m 258 907 z "},"Ŷ":{"ha":744,"x_min":136,"x_max":832,"o":"m 271 0 l 348 367 l 136 907 l 248 907 l 412 475 l 414 475 l 704 907 l 832 907 l 458 366 l 382 0 l 271 0 m 572 1123 l 685 956 l 583 956 l 511 1058 l 508 1058 l 395 956 l 283 956 l 463 1123 l 572 1123 m 194 907 z "},"Ÿ":{"ha":744,"x_min":136,"x_max":832,"o":"m 271 0 l 348 367 l 136 907 l 248 907 l 412 475 l 414 475 l 704 907 l 832 907 l 458 366 l 382 0 l 271 0 m 303 982 l 327 1097 l 436 1097 l 412 982 l 303 982 m 563 982 l 587 1097 l 696 1097 l 672 982 l 563 982 m 188 907 z "},"Ź":{"ha":788,"x_min":7,"x_max":822,"o":"m 648 808 l 174 808 l 195 907 l 822 907 l 808 838 l 182 102 l 182 100 l 675 100 l 655 0 l 7 0 l 21 69 l 648 805 l 648 808 m 691 1123 l 534 956 l 437 956 l 568 1123 l 691 1123 m 279 907 z "},"Ž":{"ha":788,"x_min":7,"x_max":822,"o":"m 648 808 l 174 808 l 195 907 l 822 907 l 808 838 l 182 102 l 182 100 l 675 100 l 655 0 l 7 0 l 21 69 l 648 805 l 648 808 m 445 956 l 332 1123 l 434 1123 l 506 1021 l 509 1021 l 622 1123 l 734 1123 l 554 956 l 445 956 m 203 907 z "},"Ż":{"ha":788,"x_min":7,"x_max":822,"o":"m 648 808 l 174 808 l 195 907 l 822 907 l 808 838 l 182 102 l 182 100 l 675 100 l 655 0 l 7 0 l 21 69 l 648 805 l 648 808 m 446 982 l 470 1098 l 581 1098 l 557 982 l 446 982 m 203 907 z "},"Ŋ":{"ha":937,"x_min":51,"x_max":940,"o":"m 498 -186 q 555 -177 532 -186 q 594 -150 578 -169 q 621 -101 610 -132 q 640 -26 631 -71 l 646 4 l 402 529 q 309 746 353 631 l 307 746 q 269 516 288 609 l 161 0 l 51 0 l 239 907 l 341 907 l 605 338 q 681 163 649 246 l 684 163 q 722 391 702 295 l 829 907 l 940 907 l 736 -71 q 708 -162 726 -123 q 662 -228 690 -201 q 595 -267 634 -254 q 502 -280 555 -280 q 443 -273 467 -280 l 461 -181 q 498 -186 477 -186 z "},"Ð":{"ha":920,"x_min":54,"x_max":879,"o":"m 75 515 l 174 515 l 256 907 l 485 907 q 567 903 531 907 q 635 891 604 899 q 745 843 699 874 q 821 769 791 812 q 865 673 850 726 q 879 559 879 620 q 870 455 879 509 q 842 346 861 400 q 790 240 822 292 q 714 146 759 189 q 609 69 669 102 q 473 18 549 36 q 390 5 435 9 q 282 0 345 0 l 67 0 l 153 415 l 54 415 l 75 515 m 764 571 q 752 656 764 619 q 720 720 741 693 q 670 765 699 747 q 608 793 642 783 q 553 804 581 801 q 483 808 526 808 l 345 808 l 284 515 l 530 515 l 509 415 l 263 415 l 198 100 l 289 100 q 384 104 344 100 q 457 118 424 109 q 567 164 519 134 q 648 232 614 194 q 705 315 682 271 q 740 404 727 359 q 758 492 753 449 q 764 571 764 535 z "},"Þ":{"ha":760,"x_min":51,"x_max":732,"o":"m 311 724 l 420 724 q 497 721 466 724 q 554 711 529 718 q 633 681 600 701 q 689 635 667 661 q 722 576 711 608 q 732 509 732 544 q 710 392 732 448 q 637 294 687 336 q 507 226 587 252 q 313 201 427 201 q 257 203 288 201 q 204 208 227 205 l 161 0 l 51 0 l 239 907 l 350 907 l 311 724 m 225 307 q 272 302 247 304 q 319 300 298 300 q 457 315 400 300 q 549 358 513 331 q 601 423 585 386 q 617 503 617 460 q 595 572 617 544 q 526 614 572 601 q 487 622 509 619 q 431 624 465 624 l 291 624 l 225 307 z "},"a":{"ha":703,"x_min":58,"x_max":652,"o":"m 517 500 q 496 525 508 512 q 469 548 484 538 q 434 565 453 559 q 390 572 414 572 q 317 554 350 572 q 260 508 285 536 q 216 441 235 479 q 186 365 198 404 q 169 286 174 325 q 163 216 163 248 q 171 145 163 173 q 192 101 178 117 q 223 79 205 85 q 260 73 241 73 q 327 90 293 73 q 391 140 361 107 q 445 221 421 173 q 481 330 469 269 l 517 500 m 441 106 q 391 48 418 72 q 338 11 365 25 q 284 -11 311 -4 q 233 -17 257 -17 q 158 -2 191 -17 q 103 42 125 14 q 69 111 81 71 q 58 199 58 151 q 67 310 58 254 q 95 416 77 365 q 142 512 114 468 q 205 590 170 557 q 286 642 241 623 q 382 661 330 661 q 473 640 433 661 q 533 580 512 618 l 536 580 l 567 644 l 652 644 l 549 149 q 544 110 544 123 q 553 86 544 94 q 585 79 562 79 q 630 83 604 79 l 612 -4 q 549 -10 583 -10 q 467 16 492 -10 q 444 106 442 43 l 441 106 z "},"b":{"ha":677,"x_min":68,"x_max":627,"o":"m 250 561 q 283 600 264 582 q 323 632 301 618 q 373 653 346 646 q 431 661 399 661 q 502 649 467 661 q 565 610 537 637 q 610 540 593 583 q 627 436 627 497 q 617 333 627 386 q 589 229 608 279 q 541 134 570 179 q 471 56 511 90 q 379 3 431 22 q 265 -17 328 -17 q 182 -2 218 -17 q 120 38 145 12 q 81 98 94 63 q 68 175 68 134 q 70 210 68 193 q 76 246 72 227 l 230 982 l 335 982 l 247 561 l 250 561 m 182 248 q 176 216 179 232 q 174 182 174 200 q 201 102 174 132 q 278 73 228 73 q 353 89 319 73 q 414 132 387 105 q 461 195 441 159 q 495 271 481 231 q 515 350 508 311 q 522 425 522 389 q 515 478 522 452 q 494 525 509 505 q 457 558 480 546 q 402 571 435 571 q 345 559 374 571 q 289 524 315 548 q 240 462 262 499 q 208 373 219 425 l 182 248 z "},"c":{"ha":576,"x_min":58,"x_max":579,"o":"m 561 536 q 489 560 528 551 q 416 570 450 570 q 333 553 371 570 q 268 510 296 537 q 219 449 239 484 q 187 377 199 414 q 169 304 174 340 q 163 239 163 269 q 174 159 163 191 q 207 109 186 127 q 256 82 227 90 q 319 75 285 75 q 412 87 367 75 q 489 117 458 100 l 470 20 q 437 6 456 13 q 396 -6 418 -1 q 350 -14 374 -11 q 301 -17 326 -17 q 208 -3 252 -17 q 131 40 164 10 q 77 118 97 71 q 58 232 58 165 q 66 326 58 277 q 94 423 75 375 q 141 514 113 471 q 209 590 170 557 q 300 642 249 623 q 414 661 352 661 q 463 658 439 661 q 508 649 486 654 q 548 638 529 644 q 579 625 566 631 l 561 536 z "},"d":{"ha":712,"x_min":58,"x_max":729,"o":"m 524 500 q 502 525 515 512 q 473 548 490 538 q 436 565 457 558 q 391 571 416 571 q 319 554 352 571 q 261 508 286 536 q 217 443 236 479 q 186 366 199 406 q 169 288 174 327 q 163 216 163 249 q 172 145 163 173 q 195 101 180 117 q 227 79 209 85 q 264 73 245 73 q 332 90 298 73 q 397 140 367 107 q 452 221 428 173 q 488 330 476 269 l 524 500 m 237 -17 q 161 -2 195 -17 q 105 42 128 14 q 70 111 82 71 q 58 199 58 151 q 67 313 58 256 q 96 421 77 370 q 143 516 115 472 q 207 592 171 560 q 288 643 243 625 q 381 661 333 661 q 476 639 437 661 q 537 579 515 617 l 540 579 l 624 982 l 729 982 l 555 149 q 552 127 553 138 q 551 110 551 117 q 559 86 551 94 q 592 79 568 79 q 613 80 600 79 q 637 83 625 81 l 618 -4 q 591 -8 608 -7 q 555 -10 573 -10 q 474 16 499 -10 q 450 106 449 43 l 448 106 q 398 48 425 72 q 343 11 371 25 q 289 -11 316 -4 q 237 -17 262 -17 z "},"e":{"ha":633,"x_min":58,"x_max":606,"o":"m 606 494 q 576 393 606 434 q 490 328 547 353 q 351 291 433 302 q 164 276 269 279 q 163 261 163 269 q 163 245 163 254 q 207 116 163 157 q 339 75 251 75 q 387 78 362 75 q 436 87 412 81 q 483 100 460 93 q 524 117 506 108 l 505 20 q 424 -6 471 5 q 321 -17 376 -17 q 202 2 252 -17 q 120 55 153 21 q 73 137 88 90 q 58 240 58 184 q 68 343 58 292 q 98 441 78 395 q 148 528 118 488 q 216 598 177 568 q 302 644 254 627 q 406 661 350 661 q 482 651 446 661 q 546 621 518 642 q 590 569 574 600 q 606 494 606 537 m 184 370 q 317 378 258 370 q 417 400 376 385 q 479 440 458 416 q 501 498 501 464 q 495 526 501 513 q 477 549 489 539 q 447 566 465 559 q 406 572 429 572 q 332 557 367 572 q 268 517 297 543 q 218 453 239 490 q 184 370 196 416 z "},"f":{"ha":437,"x_min":-200,"x_max":606,"o":"m 169 -89 q 130 -204 155 -157 q 69 -279 104 -250 q -11 -320 34 -307 q -107 -332 -55 -332 q -163 -328 -138 -332 q -200 -319 -189 -323 l -183 -229 q -148 -238 -168 -235 q -112 -241 -128 -241 q -44 -231 -73 -241 q 7 -198 -15 -221 q 45 -136 29 -174 q 72 -42 60 -98 l 197 554 l 78 554 l 97 644 l 216 644 l 239 756 q 335 939 264 880 q 505 999 405 999 q 565 994 538 999 q 606 984 591 989 l 590 897 q 549 905 570 902 q 509 907 529 907 q 400 868 441 907 q 342 747 359 829 l 321 644 l 498 644 l 479 554 l 302 554 l 169 -89 z "},"g":{"ha":693,"x_min":-31,"x_max":666,"o":"m 530 500 q 509 525 521 512 q 480 548 496 538 q 444 565 464 559 q 399 572 424 572 q 327 554 359 572 q 269 508 294 536 q 225 441 243 479 q 194 365 206 404 q 176 286 182 325 q 170 216 170 248 q 178 145 170 173 q 201 101 186 117 q 233 79 215 85 q 271 73 252 73 q 338 90 304 73 q 404 140 373 107 q 458 221 434 173 q 495 330 483 269 l 530 500 m 452 102 l 449 102 q 400 45 426 68 q 347 8 374 22 q 294 -11 321 -5 q 243 -17 268 -17 q 168 -2 201 -17 q 112 42 134 14 q 77 111 89 71 q 64 199 64 151 q 74 310 64 254 q 103 416 84 365 q 150 512 122 468 q 215 590 178 557 q 296 642 252 623 q 393 661 340 661 q 485 640 444 661 q 547 579 526 618 l 549 579 l 581 644 l 666 644 l 525 -39 q 476 -173 509 -118 q 398 -264 444 -229 q 293 -316 352 -300 q 165 -332 235 -332 q 61 -323 110 -332 q -31 -298 13 -313 l -12 -205 q 72 -231 26 -221 q 160 -241 117 -241 q 268 -226 222 -241 q 346 -180 314 -211 q 398 -101 377 -149 q 433 13 418 -53 l 452 102 z "},"h":{"ha":726,"x_min":44,"x_max":665,"o":"m 267 557 q 364 633 309 606 q 486 661 419 661 q 559 651 526 661 q 615 621 592 640 q 652 572 639 601 q 665 505 665 543 q 660 449 665 479 q 649 388 656 419 l 568 0 l 463 0 l 545 397 q 555 451 553 431 q 557 481 557 471 q 549 523 557 506 q 529 551 542 541 q 499 567 517 562 q 460 572 481 572 q 375 555 414 572 q 305 509 336 538 q 254 441 275 480 q 223 355 233 401 l 149 0 l 44 0 l 248 982 l 353 982 l 264 557 l 267 557 z "},"i":{"ha":296,"x_min":37,"x_max":334,"o":"m 37 0 l 171 644 l 276 644 l 142 0 l 37 0 m 199 794 l 223 910 l 334 910 l 310 794 l 199 794 z "},"j":{"ha":313,"x_min":-203,"x_max":350,"o":"m 187 644 l 292 644 l 134 -120 q 105 -212 123 -172 q 59 -278 87 -252 q -10 -319 31 -305 q -106 -332 -51 -332 q -165 -328 -139 -332 q -203 -319 -192 -323 l -186 -230 q -145 -238 -166 -235 q -111 -241 -124 -241 q -51 -232 -75 -241 q -10 -204 -26 -224 q 17 -154 6 -185 q 37 -78 28 -123 l 187 644 m 216 794 l 239 910 l 350 910 l 326 794 l 216 794 z "},"k":{"ha":630,"x_min":44,"x_max":677,"o":"m 555 -13 q 522 -15 538 -15 q 449 0 480 -15 q 394 39 417 15 q 353 95 370 64 q 321 159 336 127 q 298 218 309 189 q 275 271 287 247 q 250 313 264 295 q 219 337 237 330 l 149 0 l 44 0 l 248 982 l 353 982 l 224 359 l 227 359 l 534 644 l 677 644 l 344 345 q 365 318 355 335 q 383 281 374 302 q 400 236 391 260 q 419 190 409 213 q 441 146 429 168 q 469 110 454 125 q 505 85 485 94 q 551 75 525 75 q 573 77 561 75 l 555 -13 z "},"l":{"ha":333,"x_min":61,"x_max":350,"o":"m 239 -4 q 211 -8 229 -7 q 176 -10 194 -10 q 90 12 119 -10 q 61 83 61 35 q 66 130 61 103 l 245 982 l 350 982 l 178 158 q 172 114 172 127 q 181 89 172 97 q 213 81 191 81 q 258 85 235 81 l 239 -4 z "},"m":{"ha":1086,"x_min":37,"x_max":1025,"o":"m 629 529 q 682 589 654 564 q 741 630 711 614 q 802 654 771 646 q 861 661 832 661 q 927 651 897 661 q 979 621 957 640 q 1013 572 1000 601 q 1025 505 1025 543 q 1021 449 1025 479 q 1010 388 1017 419 l 929 0 l 824 0 l 909 410 q 916 454 914 436 q 918 481 918 471 q 894 550 918 528 q 831 572 870 572 q 758 555 793 572 q 692 509 722 538 q 641 441 662 480 q 610 355 619 401 l 536 0 l 431 0 l 515 410 q 523 454 521 436 q 524 481 524 471 q 499 551 524 530 q 438 572 475 572 q 364 555 400 572 q 299 509 328 538 q 248 441 269 480 q 216 355 226 401 l 142 0 l 37 0 l 172 644 l 258 644 l 258 557 l 260 557 q 356 634 302 607 q 471 661 410 661 q 529 653 503 661 q 577 627 556 644 q 610 586 597 610 q 627 529 623 562 l 629 529 z "},"n":{"ha":719,"x_min":37,"x_max":658,"o":"m 142 0 l 37 0 l 172 644 l 258 644 l 258 557 l 260 557 q 358 633 302 606 q 484 661 414 661 q 554 651 522 661 q 609 621 587 640 q 645 572 632 601 q 658 505 658 543 q 653 449 658 479 q 642 388 649 419 l 562 0 l 456 0 l 539 400 q 550 481 550 450 q 543 523 550 506 q 523 551 536 541 q 492 567 510 562 q 453 572 474 572 q 368 555 408 572 q 298 509 329 538 q 247 441 268 480 q 216 355 226 401 l 142 0 z "},"o":{"ha":682,"x_min":58,"x_max":638,"o":"m 401 572 q 329 557 361 572 q 270 516 296 542 q 223 457 243 491 q 190 385 203 423 q 170 307 176 347 q 163 230 163 267 q 171 165 163 195 q 195 116 178 136 q 236 84 211 95 q 295 73 261 73 q 367 87 334 73 q 426 128 399 102 q 472 187 452 153 q 506 258 492 220 q 526 336 519 296 q 533 414 533 376 q 525 479 533 450 q 501 529 517 508 q 460 561 485 549 q 401 572 435 572 m 638 408 q 629 317 638 366 q 602 222 621 269 q 556 132 584 175 q 489 55 528 88 q 400 3 450 22 q 288 -17 350 -17 q 193 -1 236 -17 q 121 46 151 15 q 74 122 91 77 q 58 226 58 168 q 66 317 58 269 q 93 415 75 366 q 139 508 111 463 q 206 586 168 552 q 295 641 245 621 q 407 661 345 661 q 502 645 459 661 q 574 598 544 629 q 622 519 605 566 q 638 408 638 471 z "},"p":{"ha":694,"x_min":-24,"x_max":643,"o":"m 173 127 q 227 89 195 104 q 304 73 258 73 q 378 90 345 73 q 437 136 411 107 q 482 201 463 164 q 513 277 501 238 q 532 355 526 316 q 538 425 538 393 q 529 496 538 468 q 506 541 521 524 q 473 564 492 557 q 433 571 454 571 q 368 553 401 571 q 303 503 334 536 q 249 422 273 470 q 212 313 224 374 l 173 127 m 262 556 l 264 556 q 312 605 288 585 q 360 638 336 625 q 410 656 385 650 q 458 661 435 661 q 536 645 502 661 q 595 599 571 629 q 631 526 618 569 q 643 429 643 484 q 634 325 643 378 q 606 222 625 272 q 560 129 587 173 q 496 53 532 85 q 414 2 459 21 q 314 -17 368 -17 q 224 -1 263 -17 q 159 41 184 14 l 156 41 l 81 -315 l -24 -315 l 176 644 l 262 644 l 262 556 z "},"q":{"ha":686,"x_min":58,"x_max":659,"o":"m 524 500 q 502 525 515 512 q 474 548 490 538 q 438 565 458 559 q 393 572 418 572 q 320 554 353 572 q 262 509 288 537 q 218 444 237 480 q 187 367 199 407 q 169 288 174 328 q 163 216 163 249 q 171 145 163 173 q 194 101 180 117 q 227 79 208 85 q 264 73 245 73 q 332 90 297 73 q 397 140 366 107 q 451 221 427 173 q 488 330 475 269 l 524 500 m 439 95 l 437 96 q 389 42 414 64 q 338 7 363 20 q 286 -12 312 -6 q 235 -17 260 -17 q 161 -1 194 -17 q 105 43 128 14 q 70 112 82 72 q 58 201 58 153 q 67 314 58 258 q 96 420 77 370 q 143 515 115 471 q 207 592 171 559 q 288 643 243 625 q 385 661 333 661 q 478 640 437 661 q 540 579 519 618 l 543 579 l 574 644 l 659 644 l 459 -315 l 353 -315 l 439 95 z "},"r":{"ha":441,"x_min":37,"x_max":503,"o":"m 481 555 q 440 557 460 557 q 355 542 393 557 q 289 498 317 526 q 243 434 261 471 q 216 355 225 397 l 142 0 l 37 0 l 172 644 l 258 644 l 258 557 l 260 557 q 296 597 277 578 q 340 631 316 616 q 394 653 365 645 q 456 661 422 661 q 480 660 469 661 q 503 657 492 659 l 481 555 z "},"s":{"ha":553,"x_min":20,"x_max":526,"o":"m 204 471 q 213 435 204 450 q 235 409 221 420 q 269 389 250 397 q 309 374 288 381 q 368 352 338 363 q 422 321 397 340 q 462 274 446 302 q 477 201 477 245 q 457 106 477 147 q 402 38 437 66 q 317 -3 366 11 q 210 -17 268 -17 q 104 -6 157 -17 q 20 24 51 5 l 40 112 q 118 84 76 96 q 210 73 161 73 q 295 85 262 73 q 345 116 327 98 q 369 153 363 134 q 374 187 374 173 q 362 231 374 214 q 330 261 350 249 q 286 282 311 273 q 234 301 260 292 q 184 322 209 311 q 141 352 160 334 q 111 394 123 369 q 100 456 100 420 q 119 547 100 509 q 170 611 138 585 q 244 649 202 636 q 333 661 286 661 q 388 657 361 661 q 440 648 415 654 q 487 634 465 642 q 526 617 509 626 l 508 530 q 424 560 467 548 q 338 572 381 572 q 281 564 306 572 q 239 543 256 556 q 213 511 222 530 q 204 471 204 493 z "},"t":{"ha":474,"x_min":71,"x_max":491,"o":"m 381 -4 q 334 -13 365 -9 q 273 -17 304 -17 q 149 17 188 -17 q 109 111 109 52 q 116 168 109 134 l 196 554 l 71 554 l 90 644 l 215 644 l 252 821 l 357 821 l 321 644 l 491 644 l 473 554 l 302 554 l 227 193 q 221 163 223 176 q 219 138 219 150 q 238 89 219 102 q 301 75 256 75 q 350 78 321 75 q 399 87 378 82 l 381 -4 z "},"u":{"ha":692,"x_min":75,"x_max":675,"o":"m 300 -17 q 199 -2 241 -17 q 129 38 156 12 q 88 99 101 64 q 75 176 75 134 q 76 207 75 191 q 82 242 78 222 l 165 644 l 271 644 l 189 249 q 183 217 185 232 q 181 187 181 201 q 188 140 181 161 q 209 104 195 119 q 247 81 224 89 q 304 73 271 73 q 377 84 346 73 q 429 119 408 96 q 465 173 451 142 q 486 243 478 204 l 570 644 l 675 644 l 587 225 q 565 149 579 186 q 530 82 551 113 q 441 10 497 37 q 300 -17 385 -17 z "},"v":{"ha":649,"x_min":80,"x_max":700,"o":"m 184 644 l 255 296 q 274 197 267 239 q 287 123 282 156 l 290 123 q 326 194 305 155 q 372 275 347 232 l 579 644 l 700 644 l 321 0 l 221 0 l 80 644 l 184 644 z "},"w":{"ha":989,"x_min":80,"x_max":1040,"o":"m 524 526 q 509 484 518 507 q 490 433 500 460 q 467 378 479 407 q 443 322 455 350 l 302 0 l 192 0 l 80 644 l 187 644 l 231 356 q 242 284 237 317 q 251 223 247 251 q 257 171 254 195 q 263 124 260 146 l 267 124 q 281 164 273 142 q 298 208 290 186 q 316 252 307 231 q 333 292 325 274 l 486 644 l 600 644 l 636 294 q 640 254 638 275 q 644 210 642 232 q 647 165 646 187 q 650 124 649 143 l 653 124 q 692 211 670 167 q 733 292 713 255 l 921 644 l 1040 644 l 682 0 l 573 0 l 542 324 q 537 379 539 351 q 533 434 534 407 q 530 484 531 460 q 528 526 528 508 l 524 526 z "},"x":{"ha":633,"x_min":-34,"x_max":684,"o":"m 452 0 l 317 251 l 314 251 l 91 0 l -34 0 l 267 333 l 92 644 l 205 644 l 338 399 l 340 399 l 559 644 l 684 644 l 387 317 l 565 0 l 452 0 z "},"y":{"ha":652,"x_min":-92,"x_max":703,"o":"m 84 644 l 193 644 l 304 135 l 307 135 l 582 644 l 703 644 l 335 -18 q 270 -131 301 -79 q 204 -221 239 -182 q 101 -304 157 -275 q -33 -332 44 -332 q -61 -331 -47 -332 q -92 -328 -76 -330 l -73 -237 q -53 -239 -62 -238 q -33 -240 -43 -240 q 42 -225 7 -240 q 108 -181 77 -211 q 170 -103 140 -151 q 231 9 199 -56 l 84 644 z "},"z":{"ha":593,"x_min":0,"x_max":586,"o":"m 430 551 l 430 554 l 115 554 l 134 644 l 586 644 l 572 578 l 162 93 l 162 90 l 505 90 l 486 0 l 0 0 l 12 57 l 430 551 z "},"à":{"ha":703,"x_min":58,"x_max":652,"o":"m 517 500 q 496 525 508 512 q 469 548 484 538 q 434 565 453 559 q 390 572 414 572 q 317 554 350 572 q 260 508 285 536 q 216 441 235 479 q 186 365 198 404 q 169 286 174 325 q 163 216 163 248 q 171 145 163 173 q 192 101 178 117 q 223 79 205 85 q 260 73 241 73 q 327 90 293 73 q 391 140 361 107 q 445 221 421 173 q 481 330 469 269 l 517 500 m 441 106 q 391 48 418 72 q 338 11 365 25 q 284 -11 311 -4 q 233 -17 257 -17 q 158 -2 191 -17 q 103 42 125 14 q 69 111 81 71 q 58 199 58 151 q 67 310 58 254 q 95 416 77 365 q 142 512 114 468 q 205 590 170 557 q 286 642 241 623 q 382 661 330 661 q 473 640 433 661 q 533 580 512 618 l 536 580 l 567 644 l 652 644 l 549 149 q 544 110 544 123 q 553 86 544 94 q 585 79 562 79 q 630 83 604 79 l 612 -4 q 549 -10 583 -10 q 467 16 492 -10 q 444 106 442 43 l 441 106 m 423 999 l 457 762 l 372 762 l 312 999 l 423 999 m 72 644 z "},"á":{"ha":703,"x_min":58,"x_max":652,"o":"m 517 500 q 496 525 508 512 q 469 548 484 538 q 434 565 453 559 q 390 572 414 572 q 317 554 350 572 q 260 508 285 536 q 216 441 235 479 q 186 365 198 404 q 169 286 174 325 q 163 216 163 248 q 171 145 163 173 q 192 101 178 117 q 223 79 205 85 q 260 73 241 73 q 327 90 293 73 q 391 140 361 107 q 445 221 421 173 q 481 330 469 269 l 517 500 m 441 106 q 391 48 418 72 q 338 11 365 25 q 284 -11 311 -4 q 233 -17 257 -17 q 158 -2 191 -17 q 103 42 125 14 q 69 111 81 71 q 58 199 58 151 q 67 310 58 254 q 95 416 77 365 q 142 512 114 468 q 205 590 170 557 q 286 642 241 623 q 382 661 330 661 q 473 640 433 661 q 533 580 512 618 l 536 580 l 567 644 l 652 644 l 549 149 q 544 110 544 123 q 553 86 544 94 q 585 79 562 79 q 630 83 604 79 l 612 -4 q 549 -10 583 -10 q 467 16 492 -10 q 444 106 442 43 l 441 106 m 600 999 l 441 762 l 350 762 l 480 999 l 600 999 m 157 644 z "},"â":{"ha":703,"x_min":58,"x_max":652,"o":"m 517 500 q 496 525 508 512 q 469 548 484 538 q 434 565 453 559 q 390 572 414 572 q 317 554 350 572 q 260 508 285 536 q 216 441 235 479 q 186 365 198 404 q 169 286 174 325 q 163 216 163 248 q 171 145 163 173 q 192 101 178 117 q 223 79 205 85 q 260 73 241 73 q 327 90 293 73 q 391 140 361 107 q 445 221 421 173 q 481 330 469 269 l 517 500 m 441 106 q 391 48 418 72 q 338 11 365 25 q 284 -11 311 -4 q 233 -17 257 -17 q 158 -2 191 -17 q 103 42 125 14 q 69 111 81 71 q 58 199 58 151 q 67 310 58 254 q 95 416 77 365 q 142 512 114 468 q 205 590 170 557 q 286 642 241 623 q 382 661 330 661 q 473 640 433 661 q 533 580 512 618 l 536 580 l 567 644 l 652 644 l 549 149 q 544 110 544 123 q 553 86 544 94 q 585 79 562 79 q 630 83 604 79 l 612 -4 q 549 -10 583 -10 q 467 16 492 -10 q 444 106 442 43 l 441 106 m 508 999 l 602 762 l 511 762 l 446 929 l 443 929 l 309 762 l 211 762 l 401 999 l 508 999 m 123 644 z "},"ã":{"ha":703,"x_min":58,"x_max":669,"o":"m 517 500 q 496 525 508 512 q 469 548 484 538 q 434 565 453 559 q 390 572 414 572 q 317 554 350 572 q 260 508 285 536 q 216 441 235 479 q 186 365 198 404 q 169 286 174 325 q 163 216 163 248 q 171 145 163 173 q 192 101 178 117 q 223 79 205 85 q 260 73 241 73 q 327 90 293 73 q 391 140 361 107 q 445 221 421 173 q 481 330 469 269 l 517 500 m 441 106 q 391 48 418 72 q 338 11 365 25 q 284 -11 311 -4 q 233 -17 257 -17 q 158 -2 191 -17 q 103 42 125 14 q 69 111 81 71 q 58 199 58 151 q 67 310 58 254 q 95 416 77 365 q 142 512 114 468 q 205 590 170 557 q 286 642 241 623 q 382 661 330 661 q 473 640 433 661 q 533 580 512 618 l 536 580 l 567 644 l 652 644 l 549 149 q 544 110 544 123 q 553 86 544 94 q 585 79 562 79 q 630 83 604 79 l 612 -4 q 549 -10 583 -10 q 467 16 492 -10 q 444 106 442 43 l 441 106 m 669 937 q 653 881 664 907 q 626 835 642 854 q 586 805 609 816 q 532 793 562 793 q 483 801 505 793 q 442 819 461 809 q 397 845 419 833 q 357 858 376 858 q 321 842 335 858 q 302 799 307 825 l 214 799 q 229 856 218 829 q 257 902 240 882 q 297 932 273 921 q 350 943 320 943 q 406 932 380 943 q 454 909 431 922 q 490 888 473 897 q 525 878 507 878 q 561 895 547 878 q 581 937 575 911 l 669 937 m 132 644 z "},"ä":{"ha":703,"x_min":58,"x_max":652,"o":"m 517 500 q 496 525 508 512 q 469 548 484 538 q 434 565 453 559 q 390 572 414 572 q 317 554 350 572 q 260 508 285 536 q 216 441 235 479 q 186 365 198 404 q 169 286 174 325 q 163 216 163 248 q 171 145 163 173 q 192 101 178 117 q 223 79 205 85 q 260 73 241 73 q 327 90 293 73 q 391 140 361 107 q 445 221 421 173 q 481 330 469 269 l 517 500 m 441 106 q 391 48 418 72 q 338 11 365 25 q 284 -11 311 -4 q 233 -17 257 -17 q 158 -2 191 -17 q 103 42 125 14 q 69 111 81 71 q 58 199 58 151 q 67 310 58 254 q 95 416 77 365 q 142 512 114 468 q 205 590 170 557 q 286 642 241 623 q 382 661 330 661 q 473 640 433 661 q 533 580 512 618 l 536 580 l 567 644 l 652 644 l 549 149 q 544 110 544 123 q 553 86 544 94 q 585 79 562 79 q 630 83 604 79 l 612 -4 q 549 -10 583 -10 q 467 16 492 -10 q 444 106 442 43 l 441 106 m 252 794 l 276 907 l 384 907 l 360 794 l 252 794 m 511 794 l 534 907 l 642 907 l 618 794 l 511 794 m 136 644 z "},"ā":{"ha":703,"x_min":58,"x_max":652,"o":"m 517 500 q 496 525 508 512 q 469 548 484 538 q 434 565 453 559 q 390 572 414 572 q 317 554 350 572 q 260 508 285 536 q 216 441 235 479 q 186 365 198 404 q 169 286 174 325 q 163 216 163 248 q 171 145 163 173 q 192 101 178 117 q 223 79 205 85 q 260 73 241 73 q 327 90 293 73 q 391 140 361 107 q 445 221 421 173 q 481 330 469 269 l 517 500 m 441 106 q 391 48 418 72 q 338 11 365 25 q 284 -11 311 -4 q 233 -17 257 -17 q 158 -2 191 -17 q 103 42 125 14 q 69 111 81 71 q 58 199 58 151 q 67 310 58 254 q 95 416 77 365 q 142 512 114 468 q 205 590 170 557 q 286 642 241 623 q 382 661 330 661 q 473 640 433 661 q 533 580 512 618 l 536 580 l 567 644 l 652 644 l 549 149 q 544 110 544 123 q 553 86 544 94 q 585 79 562 79 q 630 83 604 79 l 612 -4 q 549 -10 583 -10 q 467 16 492 -10 q 444 106 442 43 l 441 106 m 260 882 l 626 882 l 608 794 l 241 794 l 260 882 m 122 644 z "},"ă":{"ha":703,"x_min":58,"x_max":671,"o":"m 517 500 q 496 525 508 512 q 469 548 484 538 q 434 565 453 559 q 390 572 414 572 q 317 554 350 572 q 260 508 285 536 q 216 441 235 479 q 186 365 198 404 q 169 286 174 325 q 163 216 163 248 q 171 145 163 173 q 192 101 178 117 q 223 79 205 85 q 260 73 241 73 q 327 90 293 73 q 391 140 361 107 q 445 221 421 173 q 481 330 469 269 l 517 500 m 441 106 q 391 48 418 72 q 338 11 365 25 q 284 -11 311 -4 q 233 -17 257 -17 q 158 -2 191 -17 q 103 42 125 14 q 69 111 81 71 q 58 199 58 151 q 67 310 58 254 q 95 416 77 365 q 142 512 114 468 q 205 590 170 557 q 286 642 241 623 q 382 661 330 661 q 473 640 433 661 q 533 580 512 618 l 536 580 l 567 644 l 652 644 l 549 149 q 544 110 544 123 q 553 86 544 94 q 585 79 562 79 q 630 83 604 79 l 612 -4 q 549 -10 583 -10 q 467 16 492 -10 q 444 106 442 43 l 441 106 m 431 852 q 521 881 484 852 q 579 971 558 909 l 671 971 q 637 889 659 926 q 585 825 616 852 q 513 785 553 799 q 424 770 473 770 q 342 786 377 770 q 288 826 308 801 q 261 879 269 851 q 254 934 254 907 q 256 971 254 952 l 342 971 q 342 949 342 960 q 364 877 342 902 q 431 852 385 852 m 132 644 z "},"å":{"ha":703,"x_min":58,"x_max":652,"o":"m 517 500 q 496 525 508 512 q 469 548 484 538 q 434 565 453 559 q 390 572 414 572 q 317 554 350 572 q 260 508 285 536 q 216 441 235 479 q 186 365 198 404 q 169 286 174 325 q 163 216 163 248 q 171 145 163 173 q 192 101 178 117 q 223 79 205 85 q 260 73 241 73 q 327 90 293 73 q 391 140 361 107 q 445 221 421 173 q 481 330 469 269 l 517 500 m 441 106 q 391 48 418 72 q 338 11 365 25 q 284 -11 311 -4 q 233 -17 257 -17 q 158 -2 191 -17 q 103 42 125 14 q 69 111 81 71 q 58 199 58 151 q 67 310 58 254 q 95 416 77 365 q 142 512 114 468 q 205 590 170 557 q 286 642 241 623 q 382 661 330 661 q 473 640 433 661 q 533 580 512 618 l 536 580 l 567 644 l 652 644 l 549 149 q 544 110 544 123 q 553 86 544 94 q 585 79 562 79 q 630 83 604 79 l 612 -4 q 549 -10 583 -10 q 467 16 492 -10 q 444 106 442 43 l 441 106 m 453 1010 q 556 980 521 1010 q 592 897 592 949 q 581 845 592 871 q 549 796 570 818 q 494 761 527 774 q 416 747 461 747 q 313 778 349 747 q 277 860 277 808 q 288 912 277 886 q 321 961 299 939 q 375 997 342 983 q 453 1010 408 1010 m 422 813 q 458 820 442 813 q 485 838 474 827 q 502 863 496 848 q 508 892 508 878 q 493 930 508 916 q 448 944 478 944 q 411 937 427 944 q 384 920 395 930 q 367 895 373 909 q 361 865 361 880 q 376 827 361 842 q 422 813 391 813 m 122 644 z "},"ǻ":{"ha":703,"x_min":58,"x_max":698,"o":"m 698 1203 l 526 1029 l 437 1029 l 573 1203 l 698 1203 m 459 990 q 519 982 494 990 q 563 960 545 975 q 589 927 581 946 q 598 885 598 907 q 587 832 598 859 q 555 784 576 805 q 500 750 533 763 q 422 736 467 736 q 362 744 388 736 q 319 766 336 752 q 292 800 301 781 q 283 842 283 819 q 294 895 283 868 q 327 943 305 922 q 381 977 349 964 q 459 990 414 990 m 428 803 q 464 809 448 803 q 491 825 480 815 q 508 849 503 836 q 514 876 514 862 q 499 910 514 897 q 454 924 484 924 q 417 918 433 924 q 390 901 401 911 q 373 878 379 891 q 368 850 368 865 q 382 817 368 830 q 428 803 397 803 m 517 500 q 496 525 508 512 q 469 548 484 538 q 434 565 453 559 q 390 572 414 572 q 317 554 350 572 q 260 508 285 536 q 216 441 235 479 q 186 365 198 404 q 169 286 174 325 q 163 216 163 248 q 171 145 163 173 q 192 101 178 117 q 223 79 205 85 q 260 73 241 73 q 327 90 293 73 q 391 140 361 107 q 445 221 421 173 q 481 330 469 269 l 517 500 m 441 106 q 391 48 418 72 q 338 11 365 25 q 284 -11 311 -4 q 233 -17 257 -17 q 158 -2 191 -17 q 103 42 125 14 q 69 111 81 71 q 58 199 58 151 q 67 310 58 254 q 95 416 77 365 q 142 512 114 468 q 205 590 170 557 q 286 642 241 623 q 382 661 330 661 q 473 640 433 661 q 533 580 512 618 l 536 580 l 567 644 l 652 644 l 549 149 q 544 110 544 123 q 553 86 544 94 q 585 79 562 79 q 630 83 604 79 l 612 -4 q 549 -10 583 -10 q 467 16 492 -10 q 444 106 442 43 l 441 106 z "},"ą":{"ha":703,"x_min":58,"x_max":652,"o":"m 517 500 q 496 525 508 512 q 468 548 484 538 q 433 565 453 559 q 390 572 413 572 q 317 554 350 572 q 260 508 285 536 q 216 441 235 479 q 186 365 198 404 q 169 286 174 325 q 163 216 163 248 q 171 145 163 173 q 192 101 178 117 q 223 79 205 85 q 260 73 241 73 q 327 90 293 73 q 391 140 361 107 q 445 221 421 173 q 481 330 469 269 l 517 500 m 494 6 q 455 39 467 16 q 444 106 442 62 l 441 106 q 391 48 418 72 q 338 11 365 25 q 284 -11 311 -4 q 233 -17 257 -17 q 158 -2 191 -17 q 103 42 125 14 q 69 111 81 71 q 58 199 58 151 q 67 310 58 254 q 95 416 77 365 q 142 512 114 468 q 205 590 170 557 q 286 642 241 623 q 382 661 330 661 q 473 640 433 661 q 533 580 512 618 l 536 580 l 567 644 l 652 644 l 549 149 q 544 110 544 123 q 553 86 544 94 q 585 79 562 79 q 630 83 607 79 l 612 0 q 570 -20 592 -8 q 525 -46 547 -31 q 481 -78 502 -61 q 444 -114 460 -96 q 418 -152 427 -133 q 408 -191 408 -172 q 473 -241 408 -241 q 513 -237 492 -241 q 559 -225 534 -233 l 541 -316 q 496 -329 519 -325 q 449 -332 472 -332 q 350 -302 385 -332 q 314 -214 314 -271 q 330 -146 314 -179 q 374 -84 347 -113 q 433 -34 401 -56 q 494 3 465 -12 l 494 6 z "},"æ":{"ha":1064,"x_min":47,"x_max":1037,"o":"m 514 144 q 474 89 500 117 q 413 37 448 60 q 334 -2 378 14 q 241 -17 291 -17 q 161 -4 197 -17 q 100 32 125 8 q 61 89 75 55 q 47 165 47 123 q 69 264 47 221 q 127 337 90 308 q 214 381 164 366 q 321 396 264 396 q 366 394 342 396 q 414 388 389 392 q 461 380 439 385 q 500 371 484 376 q 502 406 502 391 q 489 488 502 456 q 452 539 475 520 q 398 565 429 557 q 334 572 368 572 q 245 561 290 572 q 157 535 199 551 l 176 627 q 215 641 194 635 q 258 652 235 647 q 305 659 281 656 q 352 661 329 661 q 443 650 402 661 q 511 618 484 638 q 556 571 539 597 q 577 513 572 544 l 580 513 q 627 574 601 547 q 686 621 654 602 q 758 651 719 640 q 841 661 796 661 q 915 651 879 661 q 977 621 950 642 q 1021 569 1004 600 q 1037 494 1037 537 q 1007 393 1037 434 q 919 327 977 353 q 775 290 861 302 q 595 276 690 278 q 594 261 594 269 q 593 245 593 254 q 637 116 593 157 q 770 75 682 75 q 860 85 810 75 q 955 117 909 96 l 936 20 q 852 -6 901 4 q 752 -17 804 -17 q 659 -5 700 -17 q 590 27 618 6 q 544 78 562 48 q 516 144 526 108 l 514 144 m 253 73 q 318 86 284 73 q 384 125 353 99 q 442 191 416 151 q 484 282 469 230 q 406 298 449 292 q 325 305 363 305 q 248 294 280 305 q 194 264 215 283 q 163 222 173 246 q 153 172 153 198 q 180 97 153 121 q 253 73 208 73 m 614 370 q 748 377 689 370 q 848 399 808 384 q 910 439 889 415 q 932 498 932 464 q 926 526 932 513 q 907 549 920 539 q 877 566 895 559 q 836 572 859 572 q 763 557 798 572 q 699 516 728 543 q 648 452 669 490 q 614 370 626 415 z "},"ǽ":{"ha":1064,"x_min":47,"x_max":1037,"o":"m 514 144 q 474 89 500 117 q 413 37 448 60 q 334 -2 378 14 q 241 -17 291 -17 q 161 -4 197 -17 q 100 32 125 8 q 61 89 75 55 q 47 165 47 123 q 69 264 47 221 q 127 337 90 308 q 214 381 164 366 q 321 396 264 396 q 366 394 342 396 q 414 388 389 392 q 461 380 439 385 q 500 371 484 376 q 502 406 502 391 q 489 488 502 456 q 452 539 475 520 q 398 565 429 557 q 334 572 368 572 q 245 561 290 572 q 157 535 199 551 l 176 627 q 215 641 194 635 q 258 652 235 647 q 305 659 281 656 q 352 661 329 661 q 443 650 402 661 q 511 618 484 638 q 556 571 539 597 q 577 513 572 544 l 580 513 q 627 574 601 547 q 686 621 654 602 q 758 651 719 640 q 841 661 796 661 q 915 651 879 661 q 977 621 950 642 q 1021 569 1004 600 q 1037 494 1037 537 q 1007 393 1037 434 q 919 327 977 353 q 775 290 861 302 q 595 276 690 278 q 594 261 594 269 q 593 245 593 254 q 637 116 593 157 q 770 75 682 75 q 860 85 810 75 q 955 117 909 96 l 936 20 q 852 -6 901 4 q 752 -17 804 -17 q 659 -5 700 -17 q 590 27 618 6 q 544 78 562 48 q 516 144 526 108 l 514 144 m 253 73 q 318 86 284 73 q 384 125 353 99 q 442 191 416 151 q 484 282 469 230 q 406 298 449 292 q 325 305 363 305 q 248 294 280 305 q 194 264 215 283 q 163 222 173 246 q 153 172 153 198 q 180 97 153 121 q 253 73 208 73 m 614 370 q 748 377 689 370 q 848 399 808 384 q 910 439 889 415 q 932 498 932 464 q 926 526 932 513 q 907 549 920 539 q 877 566 895 559 q 836 572 859 572 q 763 557 798 572 q 699 516 728 543 q 648 452 669 490 q 614 370 626 415 m 821 999 l 663 762 l 572 762 l 702 999 l 821 999 m 379 644 z "},"ć":{"ha":576,"x_min":58,"x_max":620,"o":"m 561 536 q 489 560 528 551 q 416 570 450 570 q 333 553 371 570 q 268 510 296 537 q 219 449 239 484 q 187 377 199 414 q 169 304 174 340 q 163 239 163 269 q 174 159 163 191 q 207 109 186 127 q 256 82 227 90 q 319 75 285 75 q 412 87 367 75 q 489 117 458 100 l 470 20 q 437 6 456 13 q 396 -6 418 -1 q 350 -14 374 -11 q 301 -17 326 -17 q 208 -3 252 -17 q 131 40 164 10 q 77 118 97 71 q 58 232 58 165 q 66 326 58 277 q 94 423 75 375 q 141 514 113 471 q 209 590 170 557 q 300 642 249 623 q 414 661 352 661 q 463 658 439 661 q 508 649 486 654 q 548 638 529 644 q 579 625 566 631 l 561 536 m 620 999 l 461 762 l 370 762 l 500 999 l 620 999 m 178 644 z "},"ĉ":{"ha":576,"x_min":58,"x_max":616,"o":"m 561 536 q 489 560 528 551 q 416 570 450 570 q 333 553 371 570 q 268 510 296 537 q 219 449 239 484 q 187 377 199 414 q 169 304 174 340 q 163 239 163 269 q 174 159 163 191 q 207 109 186 127 q 256 82 227 90 q 319 75 285 75 q 412 87 367 75 q 489 117 458 100 l 470 20 q 437 6 456 13 q 396 -6 418 -1 q 350 -14 374 -11 q 301 -17 326 -17 q 208 -3 252 -17 q 131 40 164 10 q 77 118 97 71 q 58 232 58 165 q 66 326 58 277 q 94 423 75 375 q 141 514 113 471 q 209 590 170 557 q 300 642 249 623 q 414 661 352 661 q 463 658 439 661 q 508 649 486 654 q 548 638 529 644 q 579 625 566 631 l 561 536 m 522 999 l 616 762 l 525 762 l 460 929 l 457 929 l 323 762 l 225 762 l 416 999 l 522 999 m 137 644 z "},"č":{"ha":576,"x_min":58,"x_max":663,"o":"m 561 536 q 489 560 528 551 q 416 570 450 570 q 333 553 371 570 q 268 510 296 537 q 219 449 239 484 q 187 377 199 414 q 169 304 174 340 q 163 239 163 269 q 174 159 163 191 q 207 109 186 127 q 256 82 227 90 q 319 75 285 75 q 412 87 367 75 q 489 117 458 100 l 470 20 q 437 6 456 13 q 396 -6 418 -1 q 350 -14 374 -11 q 301 -17 326 -17 q 208 -3 252 -17 q 131 40 164 10 q 77 118 97 71 q 58 232 58 165 q 66 326 58 277 q 94 423 75 375 q 141 514 113 471 q 209 590 170 557 q 300 642 249 623 q 414 661 352 661 q 463 658 439 661 q 508 649 486 654 q 548 638 529 644 q 579 625 566 631 l 561 536 m 366 762 l 272 999 l 363 999 l 429 832 l 431 832 l 565 999 l 663 999 l 473 762 l 366 762 m 132 644 z "},"ċ":{"ha":609,"x_min":58,"x_max":579,"o":"m 561 536 q 489 560 528 551 q 416 570 450 570 q 333 553 371 570 q 268 510 296 537 q 219 449 239 484 q 187 377 199 414 q 169 304 174 340 q 163 239 163 269 q 174 159 163 191 q 207 109 186 127 q 256 82 227 90 q 319 75 285 75 q 412 87 367 75 q 489 117 458 100 l 470 20 q 437 6 456 13 q 396 -6 418 -1 q 350 -14 374 -11 q 301 -17 326 -17 q 208 -3 252 -17 q 131 40 164 10 q 77 118 97 71 q 58 232 58 165 q 66 326 58 277 q 94 423 75 375 q 141 514 113 471 q 209 590 170 557 q 300 642 249 623 q 414 661 352 661 q 463 658 439 661 q 508 649 486 654 q 548 638 529 644 q 579 625 566 631 l 561 536 m 370 794 l 394 910 l 505 910 l 481 794 l 370 794 m 127 644 z "},"ç":{"ha":576,"x_min":58,"x_max":579,"o":"m 58 232 q 66 326 58 277 q 94 423 75 375 q 141 514 113 471 q 209 590 170 557 q 300 642 249 623 q 414 661 352 661 q 463 658 439 661 q 508 649 486 654 q 548 638 529 644 q 579 625 566 631 l 561 536 q 489 560 528 551 q 416 570 450 570 q 333 553 371 570 q 268 510 296 537 q 219 449 239 484 q 187 377 199 414 q 169 304 174 340 q 163 239 163 269 q 174 159 163 191 q 207 109 186 127 q 256 82 227 90 q 319 75 285 75 q 412 87 367 75 q 489 117 458 100 l 470 20 q 317 -16 406 -12 l 288 -87 q 331 -98 311 -90 q 366 -119 351 -106 q 389 -150 380 -132 q 397 -190 397 -168 q 385 -247 397 -221 q 350 -292 374 -273 q 292 -322 327 -311 q 212 -332 258 -332 q 152 -327 180 -332 q 109 -316 124 -322 l 125 -240 q 163 -250 140 -246 q 209 -254 185 -254 q 280 -238 256 -254 q 304 -197 304 -221 q 298 -174 304 -183 q 276 -159 291 -165 q 237 -150 261 -153 q 178 -146 213 -146 l 235 -10 q 165 16 198 -2 q 109 63 133 34 q 71 135 85 93 q 58 232 58 176 z "},"ď":{"ha":712,"x_min":58,"x_max":947,"o":"m 524 500 q 502 525 515 512 q 473 548 490 538 q 436 565 457 558 q 391 571 416 571 q 319 554 352 571 q 261 508 286 536 q 217 443 236 479 q 186 366 199 406 q 169 288 174 327 q 163 216 163 249 q 172 145 163 173 q 195 101 180 117 q 227 79 209 85 q 264 73 245 73 q 332 90 298 73 q 397 140 367 107 q 452 221 428 173 q 488 330 476 269 l 524 500 m 237 -17 q 161 -2 195 -17 q 105 42 128 14 q 70 111 82 71 q 58 199 58 151 q 67 313 58 256 q 96 421 77 370 q 143 516 115 472 q 207 592 171 560 q 288 643 243 625 q 381 661 333 661 q 476 639 437 661 q 537 579 515 617 l 540 579 l 624 982 l 729 982 l 555 149 q 552 127 553 138 q 551 110 551 117 q 559 86 551 94 q 592 79 568 79 q 613 80 600 79 q 637 83 625 81 l 618 -4 q 591 -8 608 -7 q 555 -10 573 -10 q 474 16 499 -10 q 450 106 449 43 l 448 106 q 398 48 425 72 q 343 11 371 25 q 289 -11 316 -4 q 237 -17 262 -17 m 840 861 q 830 886 840 877 q 800 895 819 895 q 793 895 796 895 l 811 982 q 829 983 821 983 q 915 960 884 983 q 947 895 947 937 q 927 819 947 859 q 867 732 908 779 l 766 732 q 820 803 800 770 q 840 861 840 835 z "},"đ":{"ha":712,"x_min":58,"x_max":816,"o":"m 798 781 l 687 781 l 555 149 q 551 111 551 123 q 560 86 551 94 q 592 79 569 79 q 637 83 609 79 l 618 -4 q 555 -10 589 -10 q 474 16 498 -10 q 450 106 449 43 l 448 106 q 398 48 425 72 q 343 11 371 25 q 289 -11 316 -4 q 237 -17 262 -17 q 161 -2 195 -17 q 105 42 128 14 q 70 111 82 71 q 58 199 58 151 q 67 313 58 256 q 96 421 77 370 q 143 516 115 472 q 207 592 171 560 q 287 643 243 625 q 381 661 330 661 q 477 639 439 661 q 537 579 515 616 l 540 579 l 582 781 l 401 781 l 419 871 l 601 871 l 624 982 l 729 982 l 706 871 l 816 871 l 798 781 m 524 500 q 502 525 515 512 q 473 548 490 538 q 436 565 457 558 q 391 571 416 571 q 319 554 351 571 q 261 508 286 536 q 217 443 236 479 q 186 366 199 406 q 169 288 174 327 q 163 216 163 249 q 172 145 163 173 q 195 101 180 117 q 227 79 209 85 q 264 73 245 73 q 332 90 298 73 q 397 140 367 107 q 452 221 428 173 q 488 330 476 269 l 524 500 z "},"è":{"ha":633,"x_min":58,"x_max":606,"o":"m 432 999 l 466 762 l 380 762 l 321 999 l 432 999 m 81 644 m 606 494 q 576 393 606 434 q 490 328 547 353 q 351 291 433 302 q 164 276 269 279 q 163 261 163 269 q 163 245 163 254 q 207 116 163 157 q 339 75 251 75 q 387 78 362 75 q 436 87 412 81 q 483 100 460 93 q 524 117 506 108 l 505 20 q 424 -6 471 5 q 321 -17 376 -17 q 202 2 252 -17 q 120 55 153 21 q 73 137 88 90 q 58 240 58 184 q 68 343 58 292 q 98 441 78 395 q 148 528 118 488 q 216 598 177 568 q 302 644 254 627 q 406 661 350 661 q 482 651 446 661 q 546 621 518 642 q 590 569 574 600 q 606 494 606 537 m 184 370 q 317 378 258 370 q 417 400 376 385 q 479 440 458 416 q 501 498 501 464 q 495 526 501 513 q 477 549 489 539 q 447 566 465 559 q 406 572 429 572 q 332 557 367 572 q 268 517 297 543 q 218 453 239 490 q 184 370 196 416 z "},"é":{"ha":633,"x_min":58,"x_max":611,"o":"m 611 999 l 452 762 l 361 762 l 492 999 l 611 999 m 169 644 m 606 494 q 576 393 606 434 q 490 328 547 353 q 351 291 433 302 q 164 276 269 279 q 163 261 163 269 q 163 245 163 254 q 207 116 163 157 q 339 75 251 75 q 387 78 362 75 q 436 87 412 81 q 483 100 460 93 q 524 117 506 108 l 505 20 q 424 -6 471 5 q 321 -17 376 -17 q 202 2 252 -17 q 120 55 153 21 q 73 137 88 90 q 58 240 58 184 q 68 343 58 292 q 98 441 78 395 q 148 528 118 488 q 216 598 177 568 q 302 644 254 627 q 406 661 350 661 q 482 651 446 661 q 546 621 518 642 q 590 569 574 600 q 606 494 606 537 m 184 370 q 317 378 258 370 q 417 400 376 385 q 479 440 458 416 q 501 498 501 464 q 495 526 501 513 q 477 549 489 539 q 447 566 465 559 q 406 572 429 572 q 332 557 367 572 q 268 517 297 543 q 218 453 239 490 q 184 370 196 416 z "},"ê":{"ha":633,"x_min":58,"x_max":606,"o":"m 511 999 l 605 762 l 513 762 l 448 929 l 446 929 l 312 762 l 214 762 l 404 999 l 511 999 m 125 644 m 606 494 q 576 393 606 434 q 490 328 547 353 q 351 291 433 302 q 164 276 269 279 q 163 261 163 269 q 163 245 163 254 q 207 116 163 157 q 339 75 251 75 q 387 78 362 75 q 436 87 412 81 q 483 100 460 93 q 524 117 506 108 l 505 20 q 424 -6 471 5 q 321 -17 376 -17 q 202 2 252 -17 q 120 55 153 21 q 73 137 88 90 q 58 240 58 184 q 68 343 58 292 q 98 441 78 395 q 148 528 118 488 q 216 598 177 568 q 302 644 254 627 q 406 661 350 661 q 482 651 446 661 q 546 621 518 642 q 590 569 574 600 q 606 494 606 537 m 184 370 q 317 378 258 370 q 417 400 376 385 q 479 440 458 416 q 501 498 501 464 q 495 526 501 513 q 477 549 489 539 q 447 566 465 559 q 406 572 429 572 q 332 557 367 572 q 268 517 297 543 q 218 453 239 490 q 184 370 196 416 z "},"ě":{"ha":633,"x_min":58,"x_max":659,"o":"m 362 762 l 268 999 l 359 999 l 425 832 l 427 832 l 561 999 l 659 999 l 469 762 l 362 762 m 127 644 m 606 494 q 576 393 606 434 q 490 328 547 353 q 351 291 433 302 q 164 276 269 279 q 163 261 163 269 q 163 245 163 254 q 207 116 163 157 q 339 75 251 75 q 387 78 362 75 q 436 87 412 81 q 483 100 460 93 q 524 117 506 108 l 505 20 q 424 -6 471 5 q 321 -17 376 -17 q 202 2 252 -17 q 120 55 153 21 q 73 137 88 90 q 58 240 58 184 q 68 343 58 292 q 98 441 78 395 q 148 528 118 488 q 216 598 177 568 q 302 644 254 627 q 406 661 350 661 q 482 651 446 661 q 546 621 518 642 q 590 569 574 600 q 606 494 606 537 m 184 370 q 317 378 258 370 q 417 400 376 385 q 479 440 458 416 q 501 498 501 464 q 495 526 501 513 q 477 549 489 539 q 447 566 465 559 q 406 572 429 572 q 332 557 367 572 q 268 517 297 543 q 218 453 239 490 q 184 370 196 416 z "},"ë":{"ha":633,"x_min":58,"x_max":624,"o":"m 234 794 l 258 907 l 366 907 l 342 794 l 234 794 m 492 794 l 516 907 l 624 907 l 600 794 l 492 794 m 117 644 m 606 494 q 576 393 606 434 q 490 328 547 353 q 351 291 433 302 q 164 276 269 279 q 163 261 163 269 q 163 245 163 254 q 207 116 163 157 q 339 75 251 75 q 387 78 362 75 q 436 87 412 81 q 483 100 460 93 q 524 117 506 108 l 505 20 q 424 -6 471 5 q 321 -17 376 -17 q 202 2 252 -17 q 120 55 153 21 q 73 137 88 90 q 58 240 58 184 q 68 343 58 292 q 98 441 78 395 q 148 528 118 488 q 216 598 177 568 q 302 644 254 627 q 406 661 350 661 q 482 651 446 661 q 546 621 518 642 q 590 569 574 600 q 606 494 606 537 m 184 370 q 317 378 258 370 q 417 400 376 385 q 479 440 458 416 q 501 498 501 464 q 495 526 501 513 q 477 549 489 539 q 447 566 465 559 q 406 572 429 572 q 332 557 367 572 q 268 517 297 543 q 218 453 239 490 q 184 370 196 416 z "},"ē":{"ha":633,"x_min":58,"x_max":619,"o":"m 253 882 l 619 882 l 601 794 l 235 794 l 253 882 m 115 644 m 606 494 q 576 393 606 434 q 490 328 547 353 q 351 291 433 302 q 164 276 269 279 q 163 261 163 269 q 163 245 163 254 q 207 116 163 157 q 339 75 251 75 q 387 78 362 75 q 436 87 412 81 q 483 100 460 93 q 524 117 506 108 l 505 20 q 424 -6 471 5 q 321 -17 376 -17 q 202 2 252 -17 q 120 55 153 21 q 73 137 88 90 q 58 240 58 184 q 68 343 58 292 q 98 441 78 395 q 148 528 118 488 q 216 598 177 568 q 302 644 254 627 q 406 661 350 661 q 482 651 446 661 q 546 621 518 642 q 590 569 574 600 q 606 494 606 537 m 184 370 q 317 378 258 370 q 417 400 376 385 q 479 440 458 416 q 501 498 501 464 q 495 526 501 513 q 477 549 489 539 q 447 566 465 559 q 406 572 429 572 q 332 557 367 572 q 268 517 297 543 q 218 453 239 490 q 184 370 196 416 z "},"ĕ":{"ha":633,"x_min":58,"x_max":653,"o":"m 413 852 q 503 881 466 852 q 561 971 540 909 l 653 971 q 619 889 641 926 q 566 825 597 852 q 495 785 535 799 q 406 770 454 770 q 324 786 359 770 q 270 826 290 801 q 243 879 250 851 q 235 934 235 907 q 238 971 235 952 l 324 971 q 323 949 323 960 q 346 877 324 902 q 413 852 367 852 m 113 644 m 606 494 q 576 393 606 434 q 490 328 547 353 q 351 291 433 302 q 164 276 269 279 q 163 261 163 269 q 163 245 163 254 q 207 116 163 157 q 339 75 251 75 q 387 78 362 75 q 436 87 412 81 q 483 100 460 93 q 524 117 506 108 l 505 20 q 424 -6 471 5 q 321 -17 376 -17 q 202 2 252 -17 q 120 55 153 21 q 73 137 88 90 q 58 240 58 184 q 68 343 58 292 q 98 441 78 395 q 148 528 118 488 q 216 598 177 568 q 302 644 254 627 q 406 661 350 661 q 482 651 446 661 q 546 621 518 642 q 590 569 574 600 q 606 494 606 537 m 184 370 q 317 378 258 370 q 417 400 376 385 q 479 440 458 416 q 501 498 501 464 q 495 526 501 513 q 477 549 489 539 q 447 566 465 559 q 406 572 429 572 q 332 557 367 572 q 268 517 297 543 q 218 453 239 490 q 184 370 196 416 z "},"ė":{"ha":633,"x_min":58,"x_max":606,"o":"m 359 794 l 382 910 l 493 910 l 469 794 l 359 794 m 115 644 m 606 494 q 576 393 606 434 q 490 328 547 353 q 351 291 433 302 q 164 276 269 279 q 163 261 163 269 q 163 245 163 254 q 207 116 163 157 q 339 75 251 75 q 387 78 362 75 q 436 87 412 81 q 483 100 460 93 q 524 117 506 108 l 505 20 q 424 -6 471 5 q 321 -17 376 -17 q 202 2 252 -17 q 120 55 153 21 q 73 137 88 90 q 58 240 58 184 q 68 343 58 292 q 98 441 78 395 q 148 528 118 488 q 216 598 177 568 q 302 644 254 627 q 406 661 350 661 q 482 651 446 661 q 546 621 518 642 q 590 569 574 600 q 606 494 606 537 m 184 370 q 317 378 258 370 q 417 400 376 385 q 479 440 458 416 q 501 498 501 464 q 495 526 501 513 q 477 549 489 539 q 447 566 465 559 q 406 572 429 572 q 332 557 367 572 q 268 517 297 543 q 218 453 239 490 q 184 370 196 416 z "},"ę":{"ha":633,"x_min":58,"x_max":606,"o":"m 184 370 q 317 378 258 370 q 417 400 376 385 q 479 440 458 416 q 501 498 501 464 q 495 526 501 513 q 477 549 489 539 q 447 566 465 559 q 406 572 429 572 q 332 557 367 572 q 268 517 297 543 q 218 453 239 490 q 184 370 196 416 m 320 -17 q 201 2 251 -17 q 120 55 152 21 q 73 137 87 90 q 58 240 58 184 q 68 343 58 292 q 98 441 78 395 q 148 528 118 488 q 216 598 177 568 q 302 644 254 627 q 406 661 350 661 q 482 651 446 661 q 546 621 518 642 q 590 569 574 600 q 606 494 606 537 q 576 393 606 434 q 489 328 547 353 q 347 290 431 302 q 164 276 262 278 q 163 261 163 269 q 163 245 163 254 q 207 116 163 157 q 339 75 251 75 q 524 117 437 77 l 506 23 q 421 -20 463 5 q 348 -73 380 -45 q 297 -132 316 -102 q 277 -191 277 -162 q 342 -241 277 -241 q 429 -225 382 -241 l 410 -316 q 318 -332 371 -332 q 219 -302 254 -332 q 183 -214 183 -272 q 195 -156 183 -184 q 227 -102 208 -127 q 272 -56 247 -77 q 323 -19 297 -35 l 320 -17 z "},"ĝ":{"ha":693,"x_min":-31,"x_max":666,"o":"m 526 999 l 620 762 l 528 762 l 463 929 l 460 929 l 327 762 l 229 762 l 419 999 l 526 999 m 140 644 m 530 500 q 509 525 521 512 q 480 548 496 538 q 444 565 464 559 q 399 572 424 572 q 327 554 359 572 q 269 508 294 536 q 225 441 243 479 q 194 365 206 404 q 176 286 182 325 q 170 216 170 248 q 178 145 170 173 q 201 101 186 117 q 233 79 215 85 q 271 73 252 73 q 338 90 304 73 q 404 140 373 107 q 458 221 434 173 q 495 330 483 269 l 530 500 m 452 102 l 449 102 q 400 45 426 68 q 347 8 374 22 q 294 -11 321 -5 q 243 -17 268 -17 q 168 -2 201 -17 q 112 42 134 14 q 77 111 89 71 q 64 199 64 151 q 74 310 64 254 q 103 416 84 365 q 150 512 122 468 q 215 590 178 557 q 296 642 252 623 q 393 661 340 661 q 485 640 444 661 q 547 579 526 618 l 549 579 l 581 644 l 666 644 l 525 -39 q 476 -173 509 -118 q 398 -264 444 -229 q 293 -316 352 -300 q 165 -332 235 -332 q 61 -323 110 -332 q -31 -298 13 -313 l -12 -205 q 72 -231 26 -221 q 160 -241 117 -241 q 268 -226 222 -241 q 346 -180 314 -211 q 398 -101 377 -149 q 433 13 418 -53 l 452 102 z "},"ğ":{"ha":693,"x_min":-31,"x_max":675,"o":"m 435 852 q 525 881 488 852 q 583 971 562 909 l 675 971 q 642 889 663 926 q 589 825 620 852 q 517 785 557 799 q 428 770 477 770 q 347 786 381 770 q 292 826 312 801 q 265 879 273 851 q 258 934 258 907 q 260 971 258 952 l 347 971 q 346 949 346 960 q 368 877 347 902 q 435 852 389 852 m 136 644 m 530 500 q 509 525 521 512 q 480 548 496 538 q 444 565 464 559 q 399 572 424 572 q 327 554 359 572 q 269 508 294 536 q 225 441 243 479 q 194 365 206 404 q 176 286 182 325 q 170 216 170 248 q 178 145 170 173 q 201 101 186 117 q 233 79 215 85 q 271 73 252 73 q 338 90 304 73 q 404 140 373 107 q 458 221 434 173 q 495 330 483 269 l 530 500 m 452 102 l 449 102 q 400 45 426 68 q 347 8 374 22 q 294 -11 321 -5 q 243 -17 268 -17 q 168 -2 201 -17 q 112 42 134 14 q 77 111 89 71 q 64 199 64 151 q 74 310 64 254 q 103 416 84 365 q 150 512 122 468 q 215 590 178 557 q 296 642 252 623 q 393 661 340 661 q 485 640 444 661 q 547 579 526 618 l 549 579 l 581 644 l 666 644 l 525 -39 q 476 -173 509 -118 q 398 -264 444 -229 q 293 -316 352 -300 q 165 -332 235 -332 q 61 -323 110 -332 q -31 -298 13 -313 l -12 -205 q 72 -231 26 -221 q 160 -241 117 -241 q 268 -226 222 -241 q 346 -180 314 -211 q 398 -101 377 -149 q 433 13 418 -53 l 452 102 z "},"ġ":{"ha":693,"x_min":-31,"x_max":666,"o":"m 370 794 l 394 910 l 505 910 l 481 794 l 370 794 m 127 644 m 530 500 q 509 525 521 512 q 480 548 496 538 q 444 565 464 559 q 399 572 424 572 q 327 554 359 572 q 269 508 294 536 q 225 441 243 479 q 194 365 206 404 q 176 286 182 325 q 170 216 170 248 q 178 145 170 173 q 201 101 186 117 q 233 79 215 85 q 271 73 252 73 q 338 90 304 73 q 404 140 373 107 q 458 221 434 173 q 495 330 483 269 l 530 500 m 452 102 l 449 102 q 400 45 426 68 q 347 8 374 22 q 294 -11 321 -5 q 243 -17 268 -17 q 168 -2 201 -17 q 112 42 134 14 q 77 111 89 71 q 64 199 64 151 q 74 310 64 254 q 103 416 84 365 q 150 512 122 468 q 215 590 178 557 q 296 642 252 623 q 393 661 340 661 q 485 640 444 661 q 547 579 526 618 l 549 579 l 581 644 l 666 644 l 525 -39 q 476 -173 509 -118 q 398 -264 444 -229 q 293 -316 352 -300 q 165 -332 235 -332 q 61 -323 110 -332 q -31 -298 13 -313 l -12 -205 q 72 -231 26 -221 q 160 -241 117 -241 q 268 -226 222 -241 q 346 -180 314 -211 q 398 -101 377 -149 q 433 13 418 -53 l 452 102 z "},"ģ":{"ha":693,"x_min":-31,"x_max":668,"o":"m 450 870 q 461 846 450 854 q 492 837 471 837 q 498 837 495 837 l 479 749 q 464 749 471 749 q 376 771 408 749 q 344 836 344 794 q 363 913 344 873 q 423 999 382 953 l 524 999 q 470 929 490 961 q 450 870 450 897 m 668 644 m 530 500 q 509 525 521 512 q 480 548 496 538 q 444 565 464 559 q 399 572 424 572 q 327 554 359 572 q 269 508 294 536 q 225 441 243 479 q 194 365 206 404 q 176 286 182 325 q 170 216 170 248 q 178 145 170 173 q 201 101 186 117 q 233 79 215 85 q 271 73 252 73 q 338 90 304 73 q 404 140 373 107 q 458 221 434 173 q 495 330 483 269 l 530 500 m 452 102 l 449 102 q 400 45 426 68 q 347 8 374 22 q 294 -11 321 -5 q 243 -17 268 -17 q 168 -2 201 -17 q 112 42 134 14 q 77 111 89 71 q 64 199 64 151 q 74 310 64 254 q 103 416 84 365 q 150 512 122 468 q 215 590 178 557 q 296 642 252 623 q 393 661 340 661 q 485 640 444 661 q 547 579 526 618 l 549 579 l 581 644 l 666 644 l 525 -39 q 476 -173 509 -118 q 398 -264 444 -229 q 293 -316 352 -300 q 165 -332 235 -332 q 61 -323 110 -332 q -31 -298 13 -313 l -12 -205 q 72 -231 26 -221 q 160 -241 117 -241 q 268 -226 222 -241 q 346 -180 314 -211 q 398 -101 377 -149 q 433 13 418 -53 l 452 102 z "},"ĥ":{"ha":726,"x_min":44,"x_max":665,"o":"m 267 557 q 364 633 309 606 q 486 661 419 661 q 559 651 526 661 q 615 621 592 640 q 652 572 639 601 q 665 505 665 543 q 660 449 665 479 q 649 388 656 419 l 568 0 l 463 0 l 545 397 q 555 451 553 431 q 557 481 557 471 q 549 523 557 506 q 529 551 542 541 q 499 567 517 562 q 460 572 481 572 q 375 555 414 572 q 305 509 336 538 q 254 441 275 480 q 223 355 233 401 l 149 0 l 44 0 l 248 982 l 353 982 l 264 557 l 267 557 m 387 1198 l 500 1031 l 398 1031 l 326 1133 l 323 1133 l 210 1031 l 98 1031 l 278 1198 l 387 1198 z "},"ħ":{"ha":726,"x_min":44,"x_max":665,"o":"m 115 871 l 225 871 l 248 982 l 353 982 l 330 871 l 511 871 l 493 781 l 311 781 l 264 557 l 267 557 q 364 633 309 606 q 486 661 419 661 q 559 651 526 661 q 615 621 592 640 q 652 572 639 601 q 665 505 665 543 q 660 449 665 479 q 649 388 656 419 l 568 0 l 463 0 l 545 397 q 555 451 553 431 q 557 481 557 471 q 550 523 557 506 q 530 551 543 541 q 499 567 517 562 q 460 572 481 572 q 375 555 414 572 q 305 509 336 538 q 254 441 275 480 q 223 355 233 401 l 149 0 l 44 0 l 206 781 l 96 781 l 115 871 z "},"ì":{"ha":296,"x_min":-86,"x_max":299,"o":"m 37 0 l 171 644 l 276 644 l 142 0 l 37 0 m 265 999 l 299 762 l 214 762 l 154 999 l 265 999 m -86 644 z "},"í":{"ha":296,"x_min":3,"x_max":445,"o":"m 37 0 l 171 644 l 276 644 l 142 0 l 37 0 m 445 999 l 286 762 l 195 762 l 326 999 l 445 999 m 3 644 z "},"î":{"ha":296,"x_min":-43,"x_max":436,"o":"m 37 0 l 171 644 l 276 644 l 142 0 l 37 0 m 342 999 l 436 762 l 345 762 l 279 929 l 277 929 l 143 762 l 45 762 l 235 999 l 342 999 m -43 644 z "},"ĩ":{"ha":296,"x_min":-47,"x_max":490,"o":"m 37 0 l 171 644 l 276 644 l 142 0 l 37 0 m 490 937 q 474 881 485 907 q 447 835 463 854 q 407 805 430 816 q 353 793 383 793 q 304 801 326 793 q 263 819 282 809 q 218 845 240 833 q 178 858 197 858 q 142 842 156 858 q 123 799 128 825 l 35 799 q 50 856 39 829 q 78 902 61 882 q 118 932 94 921 q 171 943 141 943 q 227 932 201 943 q 275 909 252 922 q 311 888 294 897 q 346 878 328 878 q 382 895 368 878 q 401 937 396 911 l 490 937 m -47 644 z "},"ï":{"ha":296,"x_min":-49,"x_max":458,"o":"m 37 0 l 171 644 l 276 644 l 142 0 l 37 0 m 68 794 l 92 907 l 199 907 l 176 794 l 68 794 m 326 794 l 350 907 l 458 907 l 434 794 l 326 794 m -49 644 z "},"ī":{"ha":296,"x_min":-57,"x_max":447,"o":"m 37 0 l 171 644 l 276 644 l 142 0 l 37 0 m 81 882 l 447 882 l 429 794 l 62 794 l 81 882 m -57 644 z "},"ĭ":{"ha":296,"x_min":-50,"x_max":490,"o":"m 37 0 l 171 644 l 276 644 l 142 0 l 37 0 m 250 852 q 340 881 303 852 q 398 971 377 909 l 490 971 q 456 889 478 926 q 404 825 435 852 q 332 785 372 799 q 243 770 292 770 q 161 786 196 770 q 107 826 127 801 q 80 879 87 851 q 73 934 73 907 q 75 971 73 952 l 161 971 q 161 949 161 960 q 183 877 161 902 q 250 852 204 852 m -50 644 z "},"į":{"ha":296,"x_min":-92,"x_max":334,"o":"m 142 0 q 38 -102 73 -52 q 2 -191 2 -152 q 15 -228 2 -214 q 60 -241 28 -241 q 142 -225 97 -241 l 123 -316 q 36 -332 85 -332 q -60 -302 -27 -332 q -92 -218 -92 -271 q -82 -153 -92 -184 q -54 -93 -71 -121 q -12 -39 -36 -64 q 39 7 12 -14 l 171 644 l 276 644 l 142 0 m 199 794 l 223 910 l 334 910 l 310 794 l 199 794 z "},"ı":{"ha":296,"x_min":37,"x_max":276,"o":"m 37 0 l 171 644 l 276 644 l 142 0 l 37 0 z "},"ĳ":{"ha":609,"x_min":37,"x_max":646,"o":"m 37 0 l 171 644 l 276 644 l 142 0 l 37 0 m 199 794 l 223 910 l 334 910 l 310 794 l 199 794 m 484 644 l 589 644 l 431 -120 q 402 -212 420 -172 q 355 -278 384 -252 q 286 -319 327 -305 q 190 -332 245 -332 q 131 -328 157 -332 q 93 -319 104 -323 l 111 -230 q 151 -238 130 -235 q 186 -241 172 -241 q 246 -232 222 -241 q 286 -204 270 -224 q 313 -154 302 -185 q 334 -78 324 -123 l 484 644 m 512 794 l 536 910 l 646 910 l 623 794 l 512 794 z "},"ĵ":{"ha":313,"x_min":-203,"x_max":450,"o":"m 187 644 l 292 644 l 134 -120 q 105 -212 123 -172 q 59 -278 87 -252 q -10 -319 31 -305 q -106 -332 -51 -332 q -165 -328 -139 -332 q -203 -319 -192 -323 l -186 -230 q -145 -238 -166 -235 q -111 -241 -124 -241 q -51 -232 -75 -241 q -10 -204 -26 -224 q 17 -154 6 -185 q 37 -78 28 -123 l 187 644 m 356 999 l 450 762 l 359 762 l 294 929 l 291 929 l 157 762 l 59 762 l 250 999 l 356 999 z "},"ķ":{"ha":630,"x_min":44,"x_max":677,"o":"m 555 -13 q 522 -15 538 -15 q 449 0 480 -15 q 394 39 417 15 q 353 95 370 64 q 321 159 336 127 q 298 218 309 189 q 275 271 287 247 q 250 313 264 295 q 219 337 237 330 l 149 0 l 44 0 l 248 982 l 353 982 l 224 359 l 227 359 l 534 644 l 677 644 l 344 345 q 365 318 355 335 q 383 281 374 302 q 400 236 391 260 q 419 190 409 213 q 441 146 429 168 q 469 110 454 125 q 505 85 485 94 q 551 75 525 75 q 573 77 561 75 l 555 -13 m 262 -203 q 252 -179 262 -188 q 221 -170 241 -171 q 214 -170 218 -170 l 233 -83 q 250 -82 241 -82 q 336 -105 304 -82 q 368 -170 368 -127 q 349 -246 368 -206 q 289 -332 330 -286 l 188 -332 q 242 -262 222 -294 q 262 -203 262 -230 z "},"ĸ":{"ha":623,"x_min":37,"x_max":671,"o":"m 548 -13 q 515 -15 531 -15 q 441 -1 473 -15 q 386 37 410 14 q 345 90 362 60 q 313 151 327 120 q 289 207 300 180 q 266 258 277 235 q 240 298 254 281 q 209 321 227 315 l 142 0 l 37 0 l 171 644 l 276 644 l 214 343 l 217 343 l 527 644 l 671 644 l 336 328 q 356 303 347 319 q 374 268 366 288 q 391 227 382 249 q 410 184 400 205 q 433 142 420 162 q 461 108 446 123 q 498 84 477 93 q 544 75 518 75 q 566 77 554 75 l 548 -13 z "},"ĺ":{"ha":333,"x_min":61,"x_max":511,"o":"m 239 -4 q 211 -8 229 -7 q 176 -10 194 -10 q 90 12 119 -10 q 61 83 61 35 q 66 130 61 103 l 245 982 l 350 982 l 178 158 q 172 114 172 127 q 181 89 172 97 q 213 81 191 81 q 258 85 235 81 l 239 -4 m 511 1198 l 353 1030 l 256 1030 l 387 1198 l 511 1198 z "},"ľ":{"ha":400,"x_min":61,"x_max":557,"o":"m 239 -4 q 211 -8 229 -7 q 176 -10 194 -10 q 90 12 119 -10 q 61 83 61 35 q 66 130 61 103 l 245 982 l 350 982 l 178 158 q 172 114 172 127 q 181 89 172 97 q 213 81 191 81 q 258 85 235 81 l 239 -4 m 451 861 q 440 886 451 877 q 410 895 430 895 q 404 895 407 895 l 422 982 q 440 983 432 983 q 526 960 494 983 q 557 895 557 937 q 538 819 557 859 q 478 732 519 779 l 377 732 q 431 803 411 770 q 451 861 451 835 z "},"ļ":{"ha":333,"x_min":24,"x_max":350,"o":"m 239 -4 q 211 -8 229 -7 q 176 -10 194 -10 q 90 12 119 -10 q 61 83 61 35 q 66 130 61 103 l 245 982 l 350 982 l 178 158 q 172 114 172 127 q 181 89 172 97 q 213 81 191 81 q 258 85 235 81 l 239 -4 m 98 -203 q 88 -179 98 -188 q 58 -170 78 -171 q 51 -170 54 -170 l 69 -83 q 86 -82 78 -82 q 173 -105 141 -82 q 205 -170 205 -127 q 185 -246 205 -206 q 125 -332 166 -286 l 24 -332 q 78 -262 58 -294 q 98 -203 98 -230 z "},"ł":{"ha":333,"x_min":20,"x_max":407,"o":"m 383 562 l 248 492 l 178 158 q 173 129 174 140 q 172 114 172 118 q 181 89 172 97 q 213 81 190 81 q 258 85 236 81 l 239 -4 q 176 -10 212 -10 q 90 12 119 -10 q 61 83 61 34 q 66 130 61 103 l 130 434 l 20 378 l 44 492 l 154 548 l 245 982 l 350 982 l 271 606 l 407 675 l 383 562 z "},"ŀ":{"ha":475,"x_min":61,"x_max":483,"o":"m 239 -4 q 211 -8 229 -7 q 176 -10 194 -10 q 90 12 119 -10 q 61 83 61 35 q 66 130 61 103 l 245 982 l 350 982 l 178 158 q 172 114 172 127 q 181 89 172 97 q 213 81 191 81 q 258 85 235 81 l 239 -4 m 349 368 l 372 484 l 483 484 l 459 368 l 349 368 m 105 218 z "},"ń":{"ha":719,"x_min":37,"x_max":675,"o":"m 142 0 l 37 0 l 172 644 l 258 644 l 258 557 l 260 557 q 358 633 302 606 q 484 661 414 661 q 554 651 522 661 q 609 621 587 640 q 645 572 632 601 q 658 505 658 543 q 653 449 658 479 q 642 388 649 419 l 562 0 l 456 0 l 539 400 q 550 481 550 450 q 543 523 550 506 q 523 551 536 541 q 492 567 510 562 q 453 572 474 572 q 368 555 408 572 q 298 509 329 538 q 247 441 268 480 q 216 355 226 401 l 142 0 m 675 999 l 516 762 l 425 762 l 555 999 l 675 999 m 233 644 z "},"ň":{"ha":719,"x_min":37,"x_max":703,"o":"m 142 0 l 37 0 l 172 644 l 258 644 l 258 557 l 260 557 q 358 633 302 606 q 484 661 414 661 q 554 651 522 661 q 609 621 587 640 q 645 572 632 601 q 658 505 658 543 q 653 449 658 479 q 642 388 649 419 l 562 0 l 456 0 l 539 400 q 550 481 550 450 q 543 523 550 506 q 523 551 536 541 q 492 567 510 562 q 453 572 474 572 q 368 555 408 572 q 298 509 329 538 q 247 441 268 480 q 216 355 226 401 l 142 0 m 406 762 l 312 999 l 404 999 l 469 832 l 471 832 l 605 999 l 703 999 l 513 762 l 406 762 m 172 644 z "},"ñ":{"ha":719,"x_min":37,"x_max":699,"o":"m 142 0 l 37 0 l 172 644 l 258 644 l 258 557 l 260 557 q 358 633 302 606 q 484 661 414 661 q 554 651 522 661 q 609 621 587 640 q 645 572 632 601 q 658 505 658 543 q 653 449 658 479 q 642 388 649 419 l 562 0 l 456 0 l 539 400 q 550 481 550 450 q 543 523 550 506 q 523 551 536 541 q 492 567 510 562 q 453 572 474 572 q 368 555 408 572 q 298 509 329 538 q 247 441 268 480 q 216 355 226 401 l 142 0 m 699 937 q 683 881 694 907 q 655 835 672 854 q 615 805 639 816 q 562 793 592 793 q 513 801 535 793 q 472 819 491 809 q 427 845 449 833 q 387 858 406 858 q 351 842 365 858 q 332 799 337 825 l 243 799 q 259 856 248 829 q 287 902 270 882 q 327 932 303 921 q 380 943 350 943 q 436 932 410 943 q 484 909 461 922 q 520 888 503 897 q 555 878 537 878 q 591 895 577 878 q 610 937 605 911 l 699 937 m 161 644 z "},"ņ":{"ha":719,"x_min":37,"x_max":658,"o":"m 142 0 l 37 0 l 172 644 l 258 644 l 258 557 l 260 557 q 358 633 302 606 q 484 661 414 661 q 554 651 522 661 q 609 621 587 640 q 645 572 632 601 q 658 505 658 543 q 653 449 658 479 q 642 388 649 419 l 562 0 l 456 0 l 539 400 q 550 481 550 450 q 543 523 550 506 q 523 551 536 541 q 492 567 510 562 q 453 572 474 572 q 368 555 408 572 q 298 509 329 538 q 247 441 268 480 q 216 355 226 401 l 142 0 m 271 -203 q 261 -179 271 -188 q 231 -170 251 -171 q 224 -170 227 -170 l 242 -83 q 259 -82 251 -82 q 346 -105 314 -82 q 378 -170 378 -127 q 358 -246 378 -206 q 298 -332 339 -286 l 197 -332 q 251 -262 231 -294 q 271 -203 271 -230 z "},"ŉ":{"ha":719,"x_min":37,"x_max":658,"o":"m 142 0 l 37 0 l 172 644 l 258 644 l 258 557 l 260 557 q 358 633 302 606 q 484 661 414 661 q 554 651 522 661 q 609 621 587 640 q 645 572 632 601 q 658 505 658 543 q 653 449 658 479 q 642 388 649 419 l 562 0 l 456 0 l 539 400 q 550 481 550 450 q 543 523 550 506 q 523 551 536 541 q 492 567 510 562 q 453 572 474 572 q 368 555 408 572 q 298 509 329 538 q 247 441 268 480 q 216 355 226 401 l 142 0 m 124 861 q 114 886 124 877 q 83 895 103 895 q 77 895 80 895 l 95 982 q 113 983 105 983 q 199 960 168 983 q 231 895 231 937 q 211 819 231 859 q 151 732 192 779 l 50 732 q 104 803 84 770 q 124 861 124 835 z "},"ò":{"ha":682,"x_min":58,"x_max":638,"o":"m 401 572 q 329 557 361 572 q 270 516 296 542 q 223 457 243 491 q 190 385 203 423 q 170 307 176 347 q 163 230 163 267 q 171 165 163 195 q 195 116 178 136 q 236 84 211 95 q 295 73 261 73 q 367 87 334 73 q 426 128 399 102 q 472 187 452 153 q 506 258 492 220 q 526 336 519 296 q 533 414 533 376 q 525 479 533 450 q 501 529 517 508 q 460 561 485 549 q 401 572 435 572 m 638 408 q 629 317 638 366 q 602 222 621 269 q 556 132 584 175 q 489 55 528 88 q 400 3 450 22 q 288 -17 350 -17 q 193 -1 236 -17 q 121 46 151 15 q 74 122 91 77 q 58 226 58 168 q 66 317 58 269 q 93 415 75 366 q 139 508 111 463 q 206 586 168 552 q 295 641 245 621 q 407 661 345 661 q 502 645 459 661 q 574 598 544 629 q 622 519 605 566 q 638 408 638 471 m 437 999 l 471 762 l 385 762 l 326 999 l 437 999 m 85 644 z "},"ó":{"ha":682,"x_min":58,"x_max":638,"o":"m 401 572 q 329 557 361 572 q 270 516 296 542 q 223 457 243 491 q 190 385 203 423 q 170 307 176 347 q 163 230 163 267 q 171 165 163 195 q 195 116 178 136 q 236 84 211 95 q 295 73 261 73 q 367 87 334 73 q 426 128 399 102 q 472 187 452 153 q 506 258 492 220 q 526 336 519 296 q 533 414 533 376 q 525 479 533 450 q 501 529 517 508 q 460 561 485 549 q 401 572 435 572 m 638 408 q 629 317 638 366 q 602 222 621 269 q 556 132 584 175 q 489 55 528 88 q 400 3 450 22 q 288 -17 350 -17 q 193 -1 236 -17 q 121 46 151 15 q 74 122 91 77 q 58 226 58 168 q 66 317 58 269 q 93 415 75 366 q 139 508 111 463 q 206 586 168 552 q 295 641 245 621 q 407 661 345 661 q 502 645 459 661 q 574 598 544 629 q 622 519 605 566 q 638 408 638 471 m 629 999 l 470 762 l 379 762 l 509 999 l 629 999 m 186 644 z "},"ô":{"ha":682,"x_min":58,"x_max":638,"o":"m 401 572 q 329 557 361 572 q 270 516 296 542 q 223 457 243 491 q 190 385 203 423 q 170 307 176 347 q 163 230 163 267 q 171 165 163 195 q 195 116 178 136 q 236 84 211 95 q 295 73 261 73 q 367 87 334 73 q 426 128 399 102 q 472 187 452 153 q 506 258 492 220 q 526 336 519 296 q 533 414 533 376 q 525 479 533 450 q 501 529 517 508 q 460 561 485 549 q 401 572 435 572 m 638 408 q 629 317 638 366 q 602 222 621 269 q 556 132 584 175 q 489 55 528 88 q 400 3 450 22 q 288 -17 350 -17 q 193 -1 236 -17 q 121 46 151 15 q 74 122 91 77 q 58 226 58 168 q 66 317 58 269 q 93 415 75 366 q 139 508 111 463 q 206 586 168 552 q 295 641 245 621 q 407 661 345 661 q 502 645 459 661 q 574 598 544 629 q 622 519 605 566 q 638 408 638 471 m 526 999 l 620 762 l 528 762 l 463 929 l 460 929 l 327 762 l 229 762 l 419 999 l 526 999 m 140 644 z "},"õ":{"ha":682,"x_min":58,"x_max":674,"o":"m 401 572 q 329 557 361 572 q 270 516 296 542 q 223 457 243 491 q 190 385 203 423 q 170 307 176 347 q 163 230 163 267 q 171 165 163 195 q 195 116 178 136 q 236 84 211 95 q 295 73 261 73 q 367 87 334 73 q 426 128 399 102 q 472 187 452 153 q 506 258 492 220 q 526 336 519 296 q 533 414 533 376 q 525 479 533 450 q 501 529 517 508 q 460 561 485 549 q 401 572 435 572 m 638 408 q 629 317 638 366 q 602 222 621 269 q 556 132 584 175 q 489 55 528 88 q 400 3 450 22 q 288 -17 350 -17 q 193 -1 236 -17 q 121 46 151 15 q 74 122 91 77 q 58 226 58 168 q 66 317 58 269 q 93 415 75 366 q 139 508 111 463 q 206 586 168 552 q 295 641 245 621 q 407 661 345 661 q 502 645 459 661 q 574 598 544 629 q 622 519 605 566 q 638 408 638 471 m 674 937 q 659 881 669 907 q 631 835 648 854 q 591 805 614 816 q 538 793 568 793 q 489 801 511 793 q 448 819 467 809 q 403 845 425 833 q 363 858 381 858 q 327 842 340 858 q 307 799 313 825 l 219 799 q 235 856 224 829 q 262 902 245 882 q 302 932 279 921 q 355 943 326 943 q 411 932 386 943 q 459 909 437 922 q 496 888 479 897 q 530 878 513 878 q 567 895 553 878 q 586 937 581 911 l 674 937 m 137 644 z "},"ö":{"ha":682,"x_min":58,"x_max":644,"o":"m 401 572 q 329 557 361 572 q 270 516 296 542 q 223 457 243 491 q 190 385 203 423 q 170 307 176 347 q 163 230 163 267 q 171 165 163 195 q 195 116 178 136 q 236 84 211 95 q 295 73 261 73 q 367 87 334 73 q 426 128 399 102 q 472 187 452 153 q 506 258 492 220 q 526 336 519 296 q 533 414 533 376 q 525 479 533 450 q 501 529 517 508 q 460 561 485 549 q 401 572 435 572 m 638 408 q 629 317 638 366 q 602 222 621 269 q 556 132 584 175 q 489 55 528 88 q 400 3 450 22 q 288 -17 350 -17 q 193 -1 236 -17 q 121 46 151 15 q 74 122 91 77 q 58 226 58 168 q 66 317 58 269 q 93 415 75 366 q 139 508 111 463 q 206 586 168 552 q 295 641 245 621 q 407 661 345 661 q 502 645 459 661 q 574 598 544 629 q 622 519 605 566 q 638 408 638 471 m 254 794 l 278 907 l 386 907 l 362 794 l 254 794 m 513 794 l 536 907 l 644 907 l 621 794 l 513 794 m 138 644 z "},"ō":{"ha":682,"x_min":58,"x_max":638,"o":"m 401 572 q 329 557 361 572 q 270 516 296 542 q 223 457 243 491 q 190 385 203 423 q 170 307 176 347 q 163 230 163 267 q 171 165 163 195 q 195 116 178 136 q 236 84 211 95 q 295 73 261 73 q 367 87 334 73 q 426 128 399 102 q 472 187 452 153 q 506 258 492 220 q 526 336 519 296 q 533 414 533 376 q 525 479 533 450 q 501 529 517 508 q 460 561 485 549 q 401 572 435 572 m 638 408 q 629 317 638 366 q 602 222 621 269 q 556 132 584 175 q 489 55 528 88 q 400 3 450 22 q 288 -17 350 -17 q 193 -1 236 -17 q 121 46 151 15 q 74 122 91 77 q 58 226 58 168 q 66 317 58 269 q 93 415 75 366 q 139 508 111 463 q 206 586 168 552 q 295 641 245 621 q 407 661 345 661 q 502 645 459 661 q 574 598 544 629 q 622 519 605 566 q 638 408 638 471 m 272 882 l 638 882 l 620 794 l 254 794 l 272 882 m 134 644 z "},"ŏ":{"ha":682,"x_min":58,"x_max":673,"o":"m 401 572 q 329 557 361 572 q 270 516 296 542 q 223 457 243 491 q 190 385 203 423 q 170 307 176 347 q 163 230 163 267 q 171 165 163 195 q 195 116 178 136 q 236 84 211 95 q 295 73 261 73 q 367 87 334 73 q 426 128 399 102 q 472 187 452 153 q 506 258 492 220 q 526 336 519 296 q 533 414 533 376 q 525 479 533 450 q 501 529 517 508 q 460 561 485 549 q 401 572 435 572 m 638 408 q 629 317 638 366 q 602 222 621 269 q 556 132 584 175 q 489 55 528 88 q 400 3 450 22 q 288 -17 350 -17 q 193 -1 236 -17 q 121 46 151 15 q 74 122 91 77 q 58 226 58 168 q 66 317 58 269 q 93 415 75 366 q 139 508 111 463 q 206 586 168 552 q 295 641 245 621 q 407 661 345 661 q 502 645 459 661 q 574 598 544 629 q 622 519 605 566 q 638 408 638 471 m 433 852 q 523 881 486 852 q 581 971 559 909 l 673 971 q 639 889 661 926 q 586 825 617 852 q 514 785 555 799 q 425 770 474 770 q 344 786 378 770 q 290 826 309 801 q 262 879 270 851 q 255 934 255 907 q 258 971 255 952 l 344 971 q 343 949 343 960 q 365 877 344 902 q 433 852 387 852 m 133 644 z "},"ő":{"ha":682,"x_min":58,"x_max":739,"o":"m 401 572 q 329 557 361 572 q 270 516 296 542 q 223 457 243 491 q 190 385 203 423 q 170 307 176 347 q 163 230 163 267 q 171 165 163 195 q 195 116 178 136 q 236 84 211 95 q 295 73 261 73 q 367 87 334 73 q 426 128 399 102 q 472 187 452 153 q 506 258 492 220 q 526 336 519 296 q 533 414 533 376 q 525 479 533 450 q 501 529 517 508 q 460 561 485 549 q 401 572 435 572 m 638 408 q 629 317 638 366 q 602 222 621 269 q 556 132 584 175 q 489 55 528 88 q 400 3 450 22 q 288 -17 350 -17 q 193 -1 236 -17 q 121 46 151 15 q 74 122 91 77 q 58 226 58 168 q 66 317 58 269 q 93 415 75 366 q 139 508 111 463 q 206 586 168 552 q 295 641 245 621 q 407 661 345 661 q 502 645 459 661 q 574 598 544 629 q 622 519 605 566 q 638 408 638 471 m 529 999 l 370 762 l 279 762 l 410 999 l 529 999 m 739 999 l 565 762 l 474 762 l 619 999 l 739 999 m 189 644 z "},"ø":{"ha":682,"x_min":21,"x_max":679,"o":"m 21 41 l 81 104 q 58 226 58 155 q 66 317 58 269 q 93 415 75 366 q 139 508 111 463 q 206 586 168 552 q 295 641 245 621 q 407 661 345 661 q 495 648 455 661 q 565 607 534 634 l 617 661 l 679 604 l 614 536 q 638 408 638 483 q 629 317 638 366 q 602 222 621 269 q 556 132 584 175 q 489 55 528 88 q 400 3 450 22 q 288 -17 350 -17 q 132 35 192 -17 l 83 -17 l 21 41 m 401 572 q 297 540 342 572 q 222 458 252 508 q 176 348 191 408 q 160 230 160 288 q 161 208 160 218 q 163 188 161 198 l 497 536 q 457 563 481 553 q 401 572 433 572 m 536 414 q 535 433 536 424 q 533 452 534 443 l 201 106 q 295 73 234 73 q 398 104 353 73 q 474 186 444 136 q 520 296 505 236 q 536 414 536 357 z "},"ǿ":{"ha":682,"x_min":21,"x_max":679,"o":"m 21 41 l 81 104 q 58 226 58 155 q 66 317 58 269 q 93 415 75 366 q 139 508 111 463 q 206 586 168 552 q 295 641 245 621 q 407 661 345 661 q 495 648 455 661 q 565 607 534 634 l 617 661 l 679 604 l 614 536 q 638 408 638 483 q 629 317 638 366 q 602 222 621 269 q 556 132 584 175 q 489 55 528 88 q 400 3 450 22 q 288 -17 350 -17 q 132 35 192 -17 l 83 -17 l 21 41 m 401 572 q 297 540 342 572 q 222 458 252 508 q 176 348 191 408 q 160 230 160 288 q 161 208 160 218 q 163 188 161 198 l 497 536 q 457 563 481 553 q 401 572 433 572 m 536 414 q 535 433 536 424 q 533 452 534 443 l 201 106 q 295 73 234 73 q 398 104 353 73 q 474 186 444 136 q 520 296 505 236 q 536 414 536 357 m 630 999 l 471 762 l 380 762 l 511 999 l 630 999 m 188 644 z "},"œ":{"ha":1093,"x_min":58,"x_max":1065,"o":"m 546 136 q 498 74 525 102 q 439 26 471 46 q 368 -6 406 5 q 288 -17 330 -17 q 193 -1 236 -17 q 121 46 151 15 q 74 122 91 77 q 58 226 58 168 q 66 317 58 269 q 93 415 75 366 q 139 508 111 463 q 204 586 166 552 q 292 641 243 621 q 401 661 340 661 q 535 622 484 661 q 608 515 587 583 l 611 515 q 659 573 631 546 q 718 619 686 600 q 789 650 751 639 q 869 661 827 661 q 943 651 907 661 q 1006 621 979 642 q 1049 569 1033 600 q 1065 494 1065 537 q 1036 393 1065 434 q 948 328 1006 353 q 806 290 890 302 q 623 276 722 278 q 622 261 623 269 q 622 245 622 254 q 666 116 622 157 q 798 75 710 75 q 983 117 892 76 l 964 20 q 881 -6 929 4 q 781 -17 833 -17 q 695 -5 733 -17 q 627 27 656 7 q 578 76 598 48 q 549 136 559 104 l 546 136 m 401 572 q 329 556 361 572 q 270 515 296 541 q 223 456 243 490 q 190 384 203 422 q 170 306 176 346 q 163 230 163 267 q 171 165 163 195 q 195 116 178 136 q 236 84 211 95 q 295 73 261 73 q 398 104 353 73 q 473 186 443 136 q 518 296 503 236 q 533 414 533 357 q 525 479 533 450 q 501 529 517 508 q 460 561 485 549 q 401 572 435 572 m 643 370 q 776 378 716 370 q 876 400 836 385 q 939 440 917 416 q 960 498 960 464 q 954 526 960 513 q 936 549 948 539 q 906 566 924 559 q 865 572 888 572 q 791 557 826 572 q 727 517 756 543 q 677 453 699 490 q 643 370 655 416 z "},"ŕ":{"ha":441,"x_min":37,"x_max":536,"o":"m 536 999 l 378 762 l 287 762 l 417 999 l 536 999 m 94 644 m 481 555 q 440 557 460 557 q 355 542 393 557 q 289 498 317 526 q 243 434 261 471 q 216 355 225 397 l 142 0 l 37 0 l 172 644 l 258 644 l 258 557 l 260 557 q 296 597 277 578 q 340 631 316 616 q 394 653 365 645 q 456 661 422 661 q 480 660 469 661 q 503 657 492 659 l 481 555 z "},"ř":{"ha":441,"x_min":37,"x_max":590,"o":"m 293 762 l 199 999 l 290 999 l 355 832 l 358 832 l 492 999 l 590 999 l 399 762 l 293 762 m 58 644 m 481 555 q 440 557 460 557 q 355 542 393 557 q 289 498 317 526 q 243 434 261 471 q 216 355 225 397 l 142 0 l 37 0 l 172 644 l 258 644 l 258 557 l 260 557 q 296 597 277 578 q 340 631 316 616 q 394 653 365 645 q 456 661 422 661 q 480 660 469 661 q 503 657 492 659 l 481 555 z "},"ŗ":{"ha":441,"x_min":-18,"x_max":503,"o":"m 56 -203 q 45 -179 56 -188 q 15 -170 35 -171 q 8 -170 12 -170 l 26 -83 q 43 -82 35 -82 q 130 -105 98 -82 q 162 -170 162 -127 q 143 -246 162 -206 q 83 -332 123 -286 l -18 -332 q 36 -262 16 -294 q 56 -203 56 -230 m 481 555 q 440 557 460 557 q 355 542 393 557 q 289 498 317 526 q 243 434 261 471 q 216 355 225 397 l 142 0 l 37 0 l 172 644 l 258 644 l 258 557 l 260 557 q 296 597 277 578 q 340 631 316 616 q 394 653 365 645 q 456 661 422 661 q 480 660 469 661 q 503 657 492 659 l 481 555 z "},"ś":{"ha":553,"x_min":20,"x_max":549,"o":"m 549 999 l 391 762 l 300 762 l 430 999 l 549 999 m 107 644 m 204 471 q 213 435 204 450 q 235 409 221 420 q 269 389 250 397 q 309 374 288 381 q 368 352 338 363 q 422 321 397 340 q 462 274 446 302 q 477 201 477 245 q 457 106 477 147 q 402 38 437 66 q 317 -3 366 11 q 210 -17 268 -17 q 104 -6 157 -17 q 20 24 51 5 l 40 112 q 118 84 76 96 q 210 73 161 73 q 295 85 262 73 q 345 116 327 98 q 369 153 363 134 q 374 187 374 173 q 362 231 374 214 q 330 261 350 249 q 286 282 311 273 q 234 301 260 292 q 184 322 209 311 q 141 352 160 334 q 111 394 123 369 q 100 456 100 420 q 119 547 100 509 q 170 611 138 585 q 244 649 202 636 q 333 661 286 661 q 388 657 361 661 q 440 648 415 654 q 487 634 465 642 q 526 617 509 626 l 508 530 q 424 560 467 548 q 338 572 381 572 q 281 564 306 572 q 239 543 256 556 q 213 511 222 530 q 204 471 204 493 z "},"ŝ":{"ha":553,"x_min":20,"x_max":551,"o":"m 456 999 l 551 762 l 459 762 l 394 929 l 391 929 l 258 762 l 159 762 l 350 999 l 456 999 m 71 644 m 204 471 q 213 435 204 450 q 235 409 221 420 q 269 389 250 397 q 309 374 288 381 q 368 352 338 363 q 422 321 397 340 q 462 274 446 302 q 477 201 477 245 q 457 106 477 147 q 402 38 437 66 q 317 -3 366 11 q 210 -17 268 -17 q 104 -6 157 -17 q 20 24 51 5 l 40 112 q 118 84 76 96 q 210 73 161 73 q 295 85 262 73 q 345 116 327 98 q 369 153 363 134 q 374 187 374 173 q 362 231 374 214 q 330 261 350 249 q 286 282 311 273 q 234 301 260 292 q 184 322 209 311 q 141 352 160 334 q 111 394 123 369 q 100 456 100 420 q 119 547 100 509 q 170 611 138 585 q 244 649 202 636 q 333 661 286 661 q 388 657 361 661 q 440 648 415 654 q 487 634 465 642 q 526 617 509 626 l 508 530 q 424 560 467 548 q 338 572 381 572 q 281 564 306 572 q 239 543 256 556 q 213 511 222 530 q 204 471 204 493 z "},"š":{"ha":553,"x_min":20,"x_max":599,"o":"m 302 762 l 208 999 l 299 999 l 364 832 l 367 832 l 500 999 l 599 999 l 408 762 l 302 762 m 67 644 m 204 471 q 213 435 204 450 q 235 409 221 420 q 269 389 250 397 q 309 374 288 381 q 368 352 338 363 q 422 321 397 340 q 462 274 446 302 q 477 201 477 245 q 457 106 477 147 q 402 38 437 66 q 317 -3 366 11 q 210 -17 268 -17 q 104 -6 157 -17 q 20 24 51 5 l 40 112 q 118 84 76 96 q 210 73 161 73 q 295 85 262 73 q 345 116 327 98 q 369 153 363 134 q 374 187 374 173 q 362 231 374 214 q 330 261 350 249 q 286 282 311 273 q 234 301 260 292 q 184 322 209 311 q 141 352 160 334 q 111 394 123 369 q 100 456 100 420 q 119 547 100 509 q 170 611 138 585 q 244 649 202 636 q 333 661 286 661 q 388 657 361 661 q 440 648 415 654 q 487 634 465 642 q 526 617 509 626 l 508 530 q 424 560 467 548 q 338 572 381 572 q 281 564 306 572 q 239 543 256 556 q 213 511 222 530 q 204 471 204 493 z "},"ş":{"ha":553,"x_min":20,"x_max":526,"o":"m 204 471 q 213 435 204 450 q 235 409 221 420 q 269 389 250 397 q 309 374 288 381 q 368 352 338 363 q 422 321 397 340 q 462 274 446 302 q 477 201 477 245 q 460 113 477 151 q 412 47 443 74 q 337 4 380 20 q 242 -16 294 -12 l 212 -87 q 256 -98 236 -90 q 291 -119 276 -106 q 313 -150 305 -132 q 321 -190 321 -168 q 310 -247 321 -221 q 275 -292 298 -273 q 217 -322 252 -311 q 136 -332 182 -332 q 77 -327 105 -332 q 33 -316 49 -322 l 50 -240 q 87 -250 65 -246 q 134 -254 110 -254 q 205 -238 181 -254 q 229 -197 229 -221 q 222 -174 229 -183 q 200 -158 216 -164 q 161 -150 185 -153 q 102 -146 138 -146 l 159 -14 q 71 3 107 -9 q 20 24 34 14 l 40 112 q 118 84 76 96 q 210 73 161 73 q 295 85 262 73 q 345 116 327 98 q 369 153 363 134 q 374 187 374 173 q 362 231 374 214 q 330 261 350 249 q 286 282 311 273 q 234 301 260 292 q 184 322 209 311 q 141 351 160 334 q 111 394 123 369 q 100 456 100 420 q 119 547 100 509 q 170 611 138 585 q 244 649 202 636 q 333 661 286 661 q 388 657 361 661 q 440 648 415 654 q 487 634 465 642 q 526 617 509 626 l 508 530 q 425 560 467 548 q 338 572 382 572 q 281 564 306 572 q 239 543 256 556 q 213 511 222 530 q 204 471 204 493 z "},"ș":{"ha":553,"x_min":20,"x_max":526,"o":"m 181 -203 q 171 -179 181 -188 q 140 -170 161 -171 q 134 -170 137 -170 l 152 -83 q 169 -82 161 -82 q 256 -105 224 -82 q 288 -170 288 -127 q 268 -246 288 -206 q 208 -332 249 -286 l 107 -332 q 161 -262 141 -294 q 181 -203 181 -230 m 204 471 q 213 435 204 450 q 235 409 221 420 q 269 389 250 397 q 309 374 288 381 q 368 352 338 363 q 422 321 397 340 q 462 274 446 302 q 477 201 477 245 q 457 106 477 147 q 402 38 437 66 q 317 -3 366 11 q 210 -17 268 -17 q 104 -6 157 -17 q 20 24 51 5 l 40 112 q 118 84 76 96 q 210 73 161 73 q 295 85 262 73 q 345 116 327 98 q 369 153 363 134 q 374 187 374 173 q 362 231 374 214 q 330 261 350 249 q 286 282 311 273 q 234 301 260 292 q 184 322 209 311 q 141 352 160 334 q 111 394 123 369 q 100 456 100 420 q 119 547 100 509 q 170 611 138 585 q 244 649 202 636 q 333 661 286 661 q 388 657 361 661 q 440 648 415 654 q 487 634 465 642 q 526 617 509 626 l 508 530 q 424 560 467 548 q 338 572 381 572 q 281 564 306 572 q 239 543 256 556 q 213 511 222 530 q 204 471 204 493 z "},"ß":{"ha":837,"x_min":-190,"x_max":762,"o":"m 762 812 q 752 749 762 777 q 727 699 743 721 q 691 658 711 676 q 650 623 671 640 q 614 594 631 608 q 583 565 596 581 q 561 533 569 550 q 553 495 553 516 q 560 460 553 475 q 579 431 567 444 q 606 407 591 418 q 639 385 622 396 q 682 355 661 371 q 722 318 704 339 q 750 269 739 297 q 762 202 762 241 q 744 112 762 152 q 693 43 726 71 q 613 -1 660 14 q 507 -17 566 -17 q 444 -13 473 -17 q 393 -3 415 -9 q 355 8 370 2 q 330 20 339 15 l 350 109 q 421 83 385 93 q 503 73 458 73 q 574 82 545 73 q 623 109 604 92 q 650 149 642 126 q 659 197 659 172 q 650 240 659 222 q 627 273 641 258 q 594 301 612 288 q 556 326 575 313 q 517 352 536 338 q 483 384 498 366 q 459 425 468 401 q 450 478 450 448 q 461 545 450 516 q 490 597 472 574 q 529 639 507 621 q 572 675 551 658 q 605 704 589 690 q 633 733 621 718 q 652 767 645 749 q 659 808 659 786 q 654 842 659 825 q 635 874 649 860 q 597 898 621 888 q 534 907 573 907 q 439 886 484 907 q 365 814 395 864 q 341 761 351 792 q 321 685 330 730 l 161 -84 q 120 -205 145 -157 q 61 -281 94 -253 q -13 -321 27 -309 q -96 -332 -52 -332 q -151 -328 -126 -332 q -190 -319 -175 -324 l -173 -229 q -138 -238 -157 -235 q -96 -241 -118 -241 q 4 -194 -33 -241 q 60 -50 40 -146 l 219 703 q 244 796 231 758 q 276 862 258 833 q 335 930 302 903 q 403 972 368 957 q 471 993 437 987 q 534 999 505 999 q 627 986 585 999 q 700 948 669 972 q 746 889 730 924 q 762 812 762 855 z "},"ſ":{"ha":408,"x_min":-190,"x_max":578,"o":"m 231 762 q 271 877 245 831 q 331 949 297 922 q 404 988 365 977 q 484 999 444 999 q 539 994 515 999 q 578 984 563 989 l 562 897 q 526 904 545 901 q 485 907 507 907 q 386 868 421 907 q 333 747 350 829 l 161 -84 q 120 -205 146 -157 q 61 -281 94 -253 q -12 -321 28 -309 q -96 -332 -52 -332 q -151 -328 -126 -332 q -190 -319 -175 -324 l -173 -229 q -138 -238 -157 -235 q -96 -241 -118 -241 q 4 -194 -33 -241 q 60 -50 40 -146 l 231 762 z "},"ť":{"ha":474,"x_min":71,"x_max":620,"o":"m 381 -4 q 334 -13 365 -9 q 273 -17 304 -17 q 149 17 188 -17 q 109 111 109 52 q 116 168 109 134 l 196 554 l 71 554 l 90 644 l 215 644 l 252 821 l 357 821 l 321 644 l 491 644 l 473 554 l 302 554 l 227 193 q 221 163 223 176 q 219 138 219 150 q 238 89 219 102 q 301 75 256 75 q 350 78 321 75 q 399 87 378 82 l 381 -4 m 513 861 q 503 886 513 877 q 473 895 492 895 q 466 895 469 895 l 484 982 q 503 983 494 983 q 588 960 557 983 q 620 895 620 937 q 601 819 620 859 q 541 732 581 779 l 439 732 q 493 803 473 770 q 513 861 513 835 z "},"ţ":{"ha":474,"x_min":71,"x_max":491,"o":"m 381 -4 q 334 -13 365 -9 q 273 -17 304 -17 q 149 17 188 -17 q 109 111 109 52 q 116 168 109 134 l 196 554 l 71 554 l 90 644 l 215 644 l 252 821 l 357 821 l 321 644 l 491 644 l 473 554 l 302 554 l 227 193 q 221 163 223 176 q 219 138 219 150 q 238 89 219 102 q 301 75 256 75 q 350 78 321 75 q 399 87 378 82 l 381 -4 m 197 -203 q 186 -179 197 -188 q 156 -170 176 -171 q 149 -170 153 -170 l 168 -83 q 184 -82 176 -82 q 271 -105 239 -82 q 303 -170 303 -127 q 284 -246 303 -206 q 224 -332 264 -286 l 123 -332 q 177 -262 157 -294 q 197 -203 197 -230 z "},"ŧ":{"ha":474,"x_min":23,"x_max":491,"o":"m 381 -4 q 336 -13 365 -9 q 273 -17 307 -17 q 149 17 189 -17 q 109 111 109 50 q 116 168 109 134 l 147 317 l 23 317 l 42 408 l 165 408 l 196 554 l 71 554 l 90 644 l 215 644 l 252 821 l 357 821 l 321 644 l 491 644 l 473 554 l 302 554 l 271 408 l 419 408 l 401 317 l 252 317 l 227 193 q 221 163 223 176 q 219 138 219 151 q 238 89 219 102 q 301 75 256 75 q 352 78 326 75 q 399 87 378 82 l 381 -4 z "},"ù":{"ha":692,"x_min":75,"x_max":675,"o":"m 300 -17 q 199 -2 241 -17 q 129 38 156 12 q 88 99 101 64 q 75 176 75 134 q 76 207 75 191 q 82 242 78 222 l 165 644 l 271 644 l 189 249 q 183 217 185 232 q 181 187 181 201 q 188 140 181 161 q 209 104 195 119 q 247 81 224 89 q 304 73 271 73 q 377 84 346 73 q 429 119 408 96 q 465 173 451 142 q 486 243 478 204 l 570 644 l 675 644 l 587 225 q 565 149 579 186 q 530 82 551 113 q 441 10 497 37 q 300 -17 385 -17 m 441 999 l 475 762 l 390 762 l 330 999 l 441 999 m 90 644 z "},"ú":{"ha":692,"x_min":75,"x_max":675,"o":"m 300 -17 q 199 -2 241 -17 q 129 38 156 12 q 88 99 101 64 q 75 176 75 134 q 76 207 75 191 q 82 242 78 222 l 165 644 l 271 644 l 189 249 q 183 217 185 232 q 181 187 181 201 q 188 140 181 161 q 209 104 195 119 q 247 81 224 89 q 304 73 271 73 q 377 84 346 73 q 429 119 408 96 q 465 173 451 142 q 486 243 478 204 l 570 644 l 675 644 l 587 225 q 565 149 579 186 q 530 82 551 113 q 441 10 497 37 q 300 -17 385 -17 m 632 999 l 473 762 l 382 762 l 513 999 l 632 999 m 190 644 z "},"û":{"ha":692,"x_min":75,"x_max":675,"o":"m 300 -17 q 199 -2 241 -17 q 129 38 156 12 q 88 99 101 64 q 75 176 75 134 q 76 207 75 191 q 82 242 78 222 l 165 644 l 271 644 l 189 249 q 183 217 185 232 q 181 187 181 201 q 188 140 181 161 q 209 104 195 119 q 247 81 224 89 q 304 73 271 73 q 377 84 346 73 q 429 119 408 96 q 465 173 451 142 q 486 243 478 204 l 570 644 l 675 644 l 587 225 q 565 149 579 186 q 530 82 551 113 q 441 10 497 37 q 300 -17 385 -17 m 541 999 l 635 762 l 544 762 l 479 929 l 476 929 l 342 762 l 244 762 l 435 999 l 541 999 m 156 644 z "},"ũ":{"ha":692,"x_min":75,"x_max":696,"o":"m 300 -17 q 199 -2 241 -17 q 129 38 156 12 q 88 99 101 64 q 75 176 75 134 q 76 207 75 191 q 82 242 78 222 l 165 644 l 271 644 l 189 249 q 183 217 185 232 q 181 187 181 201 q 188 140 181 161 q 209 104 195 119 q 247 81 224 89 q 304 73 271 73 q 377 84 346 73 q 429 119 408 96 q 465 173 451 142 q 486 243 478 204 l 570 644 l 675 644 l 587 225 q 565 149 579 186 q 530 82 551 113 q 441 10 497 37 q 300 -17 385 -17 m 696 937 q 681 881 692 907 q 653 835 670 854 q 613 805 637 816 q 560 793 590 793 q 511 801 533 793 q 470 819 489 809 q 425 845 447 833 q 385 858 404 858 q 349 842 363 858 q 330 799 335 825 l 241 799 q 257 856 246 829 q 284 902 268 882 q 325 932 301 921 q 378 943 348 943 q 434 932 408 943 q 481 909 459 922 q 518 888 501 897 q 553 878 535 878 q 589 895 575 878 q 608 937 603 911 l 696 937 m 159 644 z "},"ü":{"ha":692,"x_min":75,"x_max":675,"o":"m 300 -17 q 199 -2 241 -17 q 129 38 156 12 q 88 99 101 64 q 75 176 75 134 q 76 207 75 191 q 82 242 78 222 l 165 644 l 271 644 l 189 249 q 183 217 185 232 q 181 187 181 201 q 188 140 181 161 q 209 104 195 119 q 247 81 224 89 q 304 73 271 73 q 377 84 346 73 q 429 119 408 96 q 465 173 451 142 q 486 243 478 204 l 570 644 l 675 644 l 587 225 q 565 149 579 186 q 530 82 551 113 q 441 10 497 37 q 300 -17 385 -17 m 259 794 l 283 907 l 391 907 l 367 794 l 259 794 m 517 794 l 541 907 l 649 907 l 625 794 l 517 794 m 142 644 z "},"ū":{"ha":692,"x_min":75,"x_max":675,"o":"m 300 -17 q 199 -2 241 -17 q 129 38 156 12 q 88 99 101 64 q 75 176 75 134 q 76 207 75 191 q 82 242 78 222 l 165 644 l 271 644 l 189 249 q 183 217 185 232 q 181 187 181 201 q 188 140 181 161 q 209 104 195 119 q 247 81 224 89 q 304 73 271 73 q 377 84 346 73 q 429 119 408 96 q 465 173 451 142 q 486 243 478 204 l 570 644 l 675 644 l 587 225 q 565 149 579 186 q 530 82 551 113 q 441 10 497 37 q 300 -17 385 -17 m 275 882 l 642 882 l 623 794 l 257 794 l 275 882 m 138 644 z "},"ŭ":{"ha":692,"x_min":75,"x_max":675,"o":"m 300 -17 q 199 -2 241 -17 q 129 38 156 12 q 88 99 101 64 q 75 176 75 134 q 76 207 75 191 q 82 242 78 222 l 165 644 l 271 644 l 189 249 q 183 217 185 232 q 181 187 181 201 q 188 140 181 161 q 209 104 195 119 q 247 81 224 89 q 304 73 271 73 q 377 84 346 73 q 429 119 408 96 q 465 173 451 142 q 486 243 478 204 l 570 644 l 675 644 l 587 225 q 565 149 579 186 q 530 82 551 113 q 441 10 497 37 q 300 -17 385 -17 m 435 852 q 525 881 488 852 q 583 971 562 909 l 675 971 q 642 889 663 926 q 589 825 620 852 q 517 785 557 799 q 428 770 477 770 q 347 786 381 770 q 292 826 312 801 q 265 879 273 851 q 258 934 258 907 q 260 971 258 952 l 347 971 q 346 949 346 960 q 368 877 347 902 q 435 852 389 852 m 136 644 z "},"ů":{"ha":692,"x_min":75,"x_max":675,"o":"m 300 -17 q 199 -2 241 -17 q 129 38 156 12 q 88 99 101 64 q 75 176 75 134 q 76 207 75 191 q 82 242 78 222 l 165 644 l 271 644 l 189 249 q 183 217 185 232 q 181 187 181 201 q 188 140 181 161 q 209 104 195 119 q 247 81 224 89 q 304 73 271 73 q 377 84 346 73 q 429 119 408 96 q 465 173 451 142 q 486 243 478 204 l 570 644 l 675 644 l 587 225 q 565 149 579 186 q 530 82 551 113 q 441 10 497 37 q 300 -17 385 -17 m 471 1010 q 575 980 539 1010 q 610 897 610 949 q 600 845 610 871 q 567 796 589 818 q 512 761 545 774 q 435 747 479 747 q 331 778 367 747 q 296 860 296 808 q 307 912 296 886 q 339 961 317 939 q 394 997 361 983 q 471 1010 427 1010 m 440 813 q 476 820 460 813 q 504 838 492 827 q 520 863 515 848 q 526 892 526 878 q 511 930 526 916 q 466 944 496 944 q 430 937 446 944 q 402 920 414 930 q 386 895 391 909 q 380 865 380 880 q 395 827 380 842 q 440 813 410 813 m 140 644 z "},"ű":{"ha":692,"x_min":75,"x_max":745,"o":"m 300 -17 q 199 -2 241 -17 q 129 38 156 12 q 88 99 101 64 q 75 176 75 134 q 76 207 75 191 q 82 242 78 222 l 165 644 l 271 644 l 189 249 q 183 217 185 232 q 181 187 181 201 q 188 140 181 161 q 209 104 195 119 q 247 81 224 89 q 304 73 271 73 q 377 84 346 73 q 429 119 408 96 q 465 173 451 142 q 486 243 478 204 l 570 644 l 675 644 l 587 225 q 565 149 579 186 q 530 82 551 113 q 441 10 497 37 q 300 -17 385 -17 m 536 999 l 377 762 l 286 762 l 416 999 l 536 999 m 745 999 l 572 762 l 481 762 l 626 999 l 745 999 m 196 644 z "},"ų":{"ha":692,"x_min":75,"x_max":675,"o":"m 336 -10 q 313 -15 328 -13 q 286 -16 298 -16 q 194 -2 233 -16 q 128 38 155 13 q 88 99 102 64 q 75 176 75 134 q 76 207 75 191 q 82 242 78 222 l 165 644 l 271 644 l 189 249 q 183 217 185 232 q 181 187 181 201 q 187 140 181 161 q 208 104 193 119 q 246 81 222 89 q 304 73 269 73 q 377 84 346 73 q 429 119 408 96 q 465 173 451 141 q 486 243 478 204 l 570 644 l 675 644 l 585 213 q 539 98 570 146 q 463 11 507 50 q 397 -41 430 -16 q 338 -90 365 -66 q 295 -138 311 -113 q 279 -191 279 -163 q 342 -241 279 -241 q 382 -237 361 -241 q 429 -225 404 -233 l 410 -316 q 366 -329 390 -325 q 318 -332 341 -332 q 218 -302 254 -332 q 182 -214 182 -272 q 195 -153 182 -182 q 230 -98 208 -123 q 279 -51 252 -73 q 336 -13 307 -29 l 336 -10 z "},"ẁ":{"ha":989,"x_min":80,"x_max":1040,"o":"m 524 526 q 509 484 518 507 q 490 433 500 460 q 467 378 479 407 q 443 322 455 350 l 302 0 l 192 0 l 80 644 l 187 644 l 231 356 q 242 284 237 317 q 251 223 247 251 q 257 171 254 195 q 263 124 260 146 l 267 124 q 281 164 273 142 q 298 208 290 186 q 316 252 307 231 q 333 292 325 274 l 486 644 l 600 644 l 636 294 q 640 254 638 275 q 644 210 642 232 q 647 165 646 187 q 650 124 649 143 l 653 124 q 692 211 670 167 q 733 292 713 255 l 921 644 l 1040 644 l 682 0 l 573 0 l 542 324 q 537 379 539 351 q 533 434 534 407 q 530 484 531 460 q 528 526 528 508 l 524 526 m 571 999 l 605 762 l 519 762 l 460 999 l 571 999 m 220 644 z "},"ẃ":{"ha":989,"x_min":80,"x_max":1040,"o":"m 524 526 q 509 484 518 507 q 490 433 500 460 q 467 378 479 407 q 443 322 455 350 l 302 0 l 192 0 l 80 644 l 187 644 l 231 356 q 242 284 237 317 q 251 223 247 251 q 257 171 254 195 q 263 124 260 146 l 267 124 q 281 164 273 142 q 298 208 290 186 q 316 252 307 231 q 333 292 325 274 l 486 644 l 600 644 l 636 294 q 640 254 638 275 q 644 210 642 232 q 647 165 646 187 q 650 124 649 143 l 653 124 q 692 211 670 167 q 733 292 713 255 l 921 644 l 1040 644 l 682 0 l 573 0 l 542 324 q 537 379 539 351 q 533 434 534 407 q 530 484 531 460 q 528 526 528 508 l 524 526 m 770 999 l 612 762 l 521 762 l 651 999 l 770 999 m 328 644 z "},"ŵ":{"ha":989,"x_min":80,"x_max":1040,"o":"m 524 526 q 509 484 518 507 q 490 433 500 460 q 467 378 479 407 q 443 322 455 350 l 302 0 l 192 0 l 80 644 l 187 644 l 231 356 q 242 284 237 317 q 251 223 247 251 q 257 171 254 195 q 263 124 260 146 l 267 124 q 281 164 273 142 q 298 208 290 186 q 316 252 307 231 q 333 292 325 274 l 486 644 l 600 644 l 636 294 q 640 254 638 275 q 644 210 642 232 q 647 165 646 187 q 650 124 649 143 l 653 124 q 692 211 670 167 q 733 292 713 255 l 921 644 l 1040 644 l 682 0 l 573 0 l 542 324 q 537 379 539 351 q 533 434 534 407 q 530 484 531 460 q 528 526 528 508 l 524 526 m 662 999 l 756 762 l 665 762 l 600 929 l 597 929 l 463 762 l 365 762 l 555 999 l 662 999 m 277 644 z "},"ẅ":{"ha":989,"x_min":80,"x_max":1040,"o":"m 524 526 q 509 484 518 507 q 490 433 500 460 q 467 378 479 407 q 443 322 455 350 l 302 0 l 192 0 l 80 644 l 187 644 l 231 356 q 242 284 237 317 q 251 223 247 251 q 257 171 254 195 q 263 124 260 146 l 267 124 q 281 164 273 142 q 298 208 290 186 q 316 252 307 231 q 333 292 325 274 l 486 644 l 600 644 l 636 294 q 640 254 638 275 q 644 210 642 232 q 647 165 646 187 q 650 124 649 143 l 653 124 q 692 211 670 167 q 733 292 713 255 l 921 644 l 1040 644 l 682 0 l 573 0 l 542 324 q 537 379 539 351 q 533 434 534 407 q 530 484 531 460 q 528 526 528 508 l 524 526 m 394 794 l 418 907 l 526 907 l 502 794 l 394 794 m 652 794 l 676 907 l 784 907 l 760 794 l 652 794 m 277 644 z "},"ỳ":{"ha":652,"x_min":-92,"x_max":703,"o":"m 84 644 l 193 644 l 304 135 l 307 135 l 582 644 l 703 644 l 335 -18 q 270 -131 301 -79 q 204 -221 239 -182 q 101 -304 157 -275 q -33 -332 44 -332 q -61 -331 -47 -332 q -92 -328 -76 -330 l -73 -237 q -53 -239 -62 -238 q -33 -240 -43 -240 q 42 -225 7 -240 q 108 -181 77 -211 q 170 -103 140 -151 q 231 9 199 -56 l 84 644 m 411 999 l 445 762 l 359 762 l 300 999 l 411 999 m 60 644 z "},"ý":{"ha":652,"x_min":-92,"x_max":703,"o":"m 84 644 l 193 644 l 304 135 l 307 135 l 582 644 l 703 644 l 335 -18 q 270 -131 301 -79 q 204 -221 239 -182 q 101 -304 157 -275 q -33 -332 44 -332 q -61 -331 -47 -332 q -92 -328 -76 -330 l -73 -237 q -53 -239 -62 -238 q -33 -240 -43 -240 q 42 -225 7 -240 q 108 -181 77 -211 q 170 -103 140 -151 q 231 9 199 -56 l 84 644 m 596 999 l 437 762 l 347 762 l 477 999 l 596 999 m 154 644 z "},"ŷ":{"ha":652,"x_min":-92,"x_max":703,"o":"m 84 644 l 193 644 l 304 135 l 307 135 l 582 644 l 703 644 l 335 -18 q 270 -131 301 -79 q 204 -221 239 -182 q 101 -304 157 -275 q -33 -332 44 -332 q -61 -331 -47 -332 q -92 -328 -76 -330 l -73 -237 q -53 -239 -62 -238 q -33 -240 -43 -240 q 42 -225 7 -240 q 108 -181 77 -211 q 170 -103 140 -151 q 231 9 199 -56 l 84 644 m 498 999 l 593 762 l 501 762 l 436 929 l 433 929 l 300 762 l 201 762 l 392 999 l 498 999 m 113 644 z "},"ÿ":{"ha":652,"x_min":-92,"x_max":703,"o":"m 84 644 l 193 644 l 304 135 l 307 135 l 582 644 l 703 644 l 335 -18 q 270 -131 301 -79 q 204 -221 239 -182 q 101 -304 157 -275 q -33 -332 44 -332 q -61 -331 -47 -332 q -92 -328 -76 -330 l -73 -237 q -53 -239 -62 -238 q -33 -240 -43 -240 q 42 -225 7 -240 q 108 -181 77 -211 q 170 -103 140 -151 q 231 9 199 -56 l 84 644 m 230 794 l 254 907 l 361 907 l 338 794 l 230 794 m 488 794 l 512 907 l 620 907 l 596 794 l 488 794 m 113 644 z "},"ź":{"ha":593,"x_min":0,"x_max":586,"o":"m 430 551 l 430 554 l 115 554 l 134 644 l 586 644 l 572 578 l 162 93 l 162 90 l 505 90 l 486 0 l 0 0 l 12 57 l 430 551 m 564 999 l 405 762 l 314 762 l 444 999 l 564 999 m 121 644 z "},"ž":{"ha":593,"x_min":0,"x_max":615,"o":"m 430 551 l 430 554 l 115 554 l 134 644 l 586 644 l 572 578 l 162 93 l 162 90 l 505 90 l 486 0 l 0 0 l 12 57 l 430 551 m 318 762 l 224 999 l 315 999 l 380 832 l 383 832 l 517 999 l 615 999 l 425 762 l 318 762 m 83 644 z "},"ż":{"ha":593,"x_min":0,"x_max":586,"o":"m 430 551 l 430 554 l 115 554 l 134 644 l 586 644 l 572 578 l 162 93 l 162 90 l 505 90 l 486 0 l 0 0 l 12 57 l 430 551 m 318 794 l 342 910 l 452 910 l 429 794 l 318 794 m 75 644 z "},"ŋ":{"ha":719,"x_min":37,"x_max":658,"o":"m 313 -280 q 280 -278 296 -280 q 254 -273 264 -277 l 271 -184 q 288 -187 277 -186 q 309 -189 298 -189 q 366 -180 342 -189 q 405 -152 389 -172 q 431 -102 420 -133 q 451 -26 442 -71 l 539 400 q 545 429 543 417 q 548 451 547 441 q 550 468 549 460 q 550 481 550 475 q 543 523 550 506 q 523 551 536 541 q 492 567 510 562 q 453 572 474 572 q 368 555 408 572 q 298 509 329 538 q 247 441 268 480 q 216 355 226 401 l 142 0 l 37 0 l 172 644 l 258 644 l 258 557 l 260 557 q 358 633 302 606 q 484 661 414 661 q 554 651 522 661 q 609 621 587 640 q 645 572 632 601 q 658 505 658 543 q 653 449 658 479 q 642 388 649 419 l 548 -68 q 519 -160 537 -120 q 473 -226 501 -199 q 406 -267 446 -253 q 313 -280 366 -280 z "},"ð":{"ha":684,"x_min":58,"x_max":681,"o":"m 681 817 l 538 785 q 608 616 582 707 q 635 427 635 526 q 626 324 635 376 q 600 222 618 272 q 554 129 582 173 q 488 53 526 85 q 400 2 450 21 q 288 -17 350 -17 q 195 -2 237 -17 q 122 42 153 13 q 75 115 92 71 q 58 216 58 158 q 68 321 58 269 q 100 418 79 372 q 149 503 120 464 q 213 570 178 542 q 290 614 249 598 q 378 629 332 629 q 432 623 408 629 q 475 605 456 616 q 506 582 493 595 q 524 557 518 569 l 528 557 q 492 663 514 612 q 441 764 471 715 l 267 726 l 247 809 l 391 841 q 331 915 362 880 q 267 982 300 950 l 392 982 q 442 925 418 954 q 490 863 467 896 l 661 901 l 681 817 m 394 540 q 294 510 337 540 q 222 434 251 480 q 178 331 193 387 q 163 220 163 274 q 195 111 163 149 q 294 73 228 73 q 365 86 332 73 q 425 124 398 100 q 471 178 451 147 q 505 244 491 210 q 525 315 518 279 q 532 385 532 351 q 495 499 532 459 q 394 540 459 540 z "},"þ":{"ha":694,"x_min":-24,"x_max":643,"o":"m -24 -315 l 246 982 l 351 982 l 263 561 l 266 561 q 300 600 281 582 q 344 632 320 618 q 395 653 368 646 q 455 661 423 661 q 532 645 497 661 q 591 599 566 629 q 629 526 616 569 q 643 429 643 484 q 634 325 643 378 q 606 222 625 272 q 560 129 587 173 q 496 53 532 85 q 414 2 459 21 q 314 -17 368 -17 q 224 -1 263 -17 q 159 41 184 14 l 156 41 l 81 -315 l -24 -315 m 433 571 q 374 559 406 571 q 312 520 342 547 q 257 450 281 493 q 219 345 233 407 l 173 127 q 227 89 195 104 q 304 73 258 73 q 378 90 345 73 q 437 136 411 107 q 482 201 463 164 q 513 277 501 238 q 532 355 526 316 q 538 425 538 393 q 529 496 538 468 q 506 541 521 524 q 473 564 492 557 q 433 571 454 571 z "},"ⁿ":{"ha":555,"x_min":75,"x_max":558,"o":"m 171 348 l 75 348 l 176 831 l 257 831 l 257 766 l 260 766 q 331 823 291 802 q 418 844 371 844 q 520 806 483 844 q 558 703 558 768 q 557 680 558 692 q 553 654 555 667 l 488 348 l 392 348 l 454 642 q 458 666 456 651 q 460 690 460 681 q 442 742 460 726 q 389 759 423 759 q 332 746 359 759 q 283 712 305 734 q 246 661 262 690 q 223 597 231 631 l 171 348 z "},"ﬀ":{"ha":821,"x_min":-200,"x_max":990,"o":"m 581 554 l 302 554 l 169 -89 q 130 -204 155 -157 q 69 -279 104 -250 q -11 -320 34 -307 q -107 -332 -55 -332 q -163 -328 -138 -332 q -200 -319 -189 -323 l -183 -229 q -148 -238 -168 -235 q -112 -241 -128 -241 q -44 -231 -73 -241 q 7 -198 -15 -221 q 45 -136 29 -174 q 72 -42 60 -98 l 197 554 l 78 554 l 97 644 l 216 644 l 240 762 q 280 877 254 831 q 340 949 307 922 q 413 987 374 976 q 494 999 453 999 q 547 994 522 999 q 587 984 572 989 l 571 897 q 534 904 553 901 q 494 907 514 907 q 395 868 431 907 q 342 747 359 829 l 321 644 l 600 644 l 623 756 q 719 939 648 880 q 889 999 789 999 q 948 994 922 999 q 990 984 975 989 l 974 897 q 933 905 954 902 q 893 907 913 907 q 784 868 825 907 q 726 747 743 829 l 705 644 l 882 644 l 863 554 l 686 554 l 554 -84 q 513 -205 539 -157 q 454 -281 488 -253 q 381 -321 420 -309 q 298 -332 341 -332 q 243 -328 267 -332 q 203 -319 218 -324 l 220 -229 q 256 -238 236 -235 q 297 -241 275 -241 q 397 -194 361 -241 q 454 -50 433 -146 l 581 554 z "},"ﬁ":{"ha":725,"x_min":-200,"x_max":716,"o":"m 169 -89 q 130 -204 155 -157 q 69 -279 104 -250 q -11 -320 34 -307 q -107 -332 -55 -332 q -163 -328 -138 -332 q -200 -319 -189 -323 l -183 -229 q -148 -238 -168 -235 q -112 -241 -128 -241 q -43 -231 -73 -241 q 7 -197 -14 -220 q 45 -136 29 -174 q 72 -42 60 -98 l 197 554 l 78 554 l 97 644 l 216 644 l 236 739 q 268 832 248 792 q 314 901 288 872 q 370 949 340 930 q 431 979 400 968 q 493 995 463 990 q 549 999 523 999 q 631 991 589 999 q 716 970 673 984 l 696 882 q 618 902 652 896 q 555 907 584 907 q 479 897 514 907 q 415 862 444 886 q 367 802 387 839 q 336 713 347 765 l 321 644 l 705 644 l 571 0 l 466 0 l 581 554 l 302 554 l 169 -89 z "},"ﬃ":{"ha":1109,"x_min":-200,"x_max":1100,"o":"m 686 554 l 554 -84 q 513 -205 539 -157 q 454 -281 488 -253 q 381 -321 421 -309 q 298 -332 341 -332 q 243 -328 267 -332 q 203 -319 218 -324 l 220 -229 q 256 -238 236 -235 q 297 -241 275 -241 q 397 -194 361 -241 q 454 -50 433 -146 l 581 554 l 302 554 l 169 -89 q 130 -204 155 -157 q 69 -279 104 -250 q -11 -320 34 -307 q -107 -332 -55 -332 q -163 -328 -138 -332 q -200 -319 -189 -323 l -183 -229 q -148 -238 -168 -235 q -112 -241 -128 -241 q -43 -231 -73 -241 q 7 -198 -14 -221 q 45 -136 29 -174 q 72 -42 60 -98 l 197 554 l 78 554 l 97 644 l 216 644 l 240 762 q 280 877 254 831 q 340 949 307 922 q 413 987 373 976 q 493 999 452 999 q 546 994 520 999 q 587 984 572 989 l 571 897 q 535 904 555 901 q 494 907 516 907 q 395 868 431 907 q 342 747 359 829 l 321 644 l 600 644 l 620 739 q 652 832 631 792 q 698 901 672 872 q 754 949 724 930 q 815 979 784 968 q 877 995 846 990 q 933 999 907 999 q 1008 992 966 999 q 1100 970 1050 986 l 1080 882 q 1009 900 1048 893 q 939 907 970 907 q 863 897 898 907 q 799 862 827 886 q 751 802 771 839 q 720 713 730 765 l 705 644 l 1088 644 l 955 0 l 850 0 l 964 554 l 686 554 z "},"ﬂ":{"ha":759,"x_min":-200,"x_max":771,"o":"m 487 83 q 492 130 487 103 l 652 893 q 609 903 635 899 q 555 907 583 907 q 479 897 514 907 q 415 862 444 886 q 367 802 387 839 q 336 713 347 765 l 321 644 l 492 644 l 473 554 l 302 554 l 169 -89 q 130 -204 155 -157 q 69 -279 104 -250 q -11 -320 34 -307 q -107 -332 -55 -332 q -163 -328 -138 -332 q -200 -319 -189 -323 l -183 -229 q -148 -238 -168 -235 q -112 -241 -128 -241 q -43 -231 -73 -241 q 7 -198 -14 -221 q 45 -136 29 -174 q 72 -42 60 -98 l 197 554 l 78 554 l 97 644 l 216 644 l 236 739 q 290 870 254 819 q 370 949 326 920 q 463 988 415 978 q 552 999 511 999 q 661 987 604 999 q 771 958 719 976 l 604 158 q 599 129 600 140 q 597 114 597 118 q 607 89 597 97 q 639 81 616 81 q 684 85 663 81 l 665 -4 q 602 -10 638 -10 q 516 12 545 -10 q 487 83 487 34 z "},"ﬄ":{"ha":1143,"x_min":-200,"x_max":1155,"o":"m 554 -84 q 513 -205 539 -157 q 454 -281 488 -253 q 381 -321 420 -309 q 298 -332 341 -332 q 243 -328 267 -332 q 203 -319 218 -324 l 220 -229 q 256 -238 236 -235 q 297 -241 275 -241 q 397 -194 361 -241 q 454 -50 433 -146 l 581 554 l 302 554 l 169 -89 q 130 -204 155 -157 q 69 -279 104 -250 q -11 -320 34 -307 q -107 -332 -55 -332 q -163 -328 -138 -332 q -200 -319 -189 -323 l -183 -229 q -148 -238 -168 -235 q -112 -241 -128 -241 q -43 -231 -73 -241 q 7 -198 -14 -221 q 45 -136 29 -174 q 72 -42 60 -98 l 197 554 l 78 554 l 97 644 l 216 644 l 240 762 q 280 877 254 831 q 340 949 307 922 q 413 988 374 977 q 494 999 453 999 q 547 994 522 999 q 587 984 572 989 l 571 897 q 535 904 555 901 q 494 907 516 907 q 395 868 431 907 q 342 747 359 829 l 321 644 l 600 644 l 620 739 q 673 870 637 819 q 754 949 709 920 q 847 988 799 978 q 936 999 895 999 q 1045 987 985 999 q 1155 958 1104 976 l 987 158 q 983 129 984 140 q 981 114 981 118 q 990 89 981 97 q 1023 81 1000 81 q 1067 85 1046 81 l 1049 -4 q 985 -10 1021 -10 q 900 12 928 -10 q 871 83 871 34 q 876 130 871 103 l 1036 893 q 992 903 1019 899 q 939 907 966 907 q 863 897 898 907 q 799 862 827 886 q 751 802 771 839 q 720 713 730 765 l 705 644 l 876 644 l 857 554 l 686 554 l 554 -84 z "},"&":{"ha":883,"x_min":39,"x_max":832,"o":"m 39 199 q 58 299 39 256 q 107 377 77 343 q 179 436 138 410 q 262 484 219 462 q 225 530 242 507 q 195 578 208 553 q 176 630 183 603 q 170 686 170 656 q 190 786 170 742 q 247 861 211 830 q 332 908 283 892 q 439 924 382 924 q 528 912 488 924 q 596 877 568 900 q 639 821 624 854 q 654 745 654 788 q 633 647 654 689 q 578 572 612 605 q 499 514 544 540 q 408 465 455 488 q 451 414 428 442 q 500 355 475 386 q 554 291 526 323 q 608 225 581 258 q 682 333 650 272 q 731 472 714 394 l 832 472 q 771 295 814 375 q 667 154 728 216 q 714 97 692 123 q 754 50 736 71 q 782 16 771 29 q 795 0 793 3 l 670 0 q 647 27 667 3 q 593 90 626 52 q 441 11 522 38 q 279 -17 360 -17 q 172 1 217 -17 q 97 50 126 20 q 53 119 67 80 q 39 199 39 158 m 292 73 q 410 94 347 73 q 536 159 474 115 q 477 228 507 193 q 419 298 448 264 q 364 363 390 332 q 317 420 338 395 q 249 379 281 401 q 193 332 217 358 q 156 275 170 307 q 142 204 142 244 q 182 105 142 138 q 292 73 222 73 m 272 691 q 277 651 272 670 q 292 612 281 631 q 317 572 302 593 q 353 528 332 552 q 428 567 393 547 q 491 611 464 587 q 533 665 517 635 q 549 733 549 695 q 516 810 549 785 q 429 835 484 835 q 365 824 394 835 q 315 795 336 814 q 283 750 294 777 q 272 691 272 724 z "},"`":{"ha":475,"x_min":0,"x_max":385,"o":"m 351 999 l 385 762 l 300 762 l 240 999 l 351 999 m 0 644 z "},"̀":{"ha":0,"x_min":-704,"x_max":-319,"o":"m -353 999 l -319 762 l -404 762 l -464 999 l -353 999 m -704 644 z "},"´":{"ha":475,"x_min":0,"x_max":442,"o":"m 442 999 l 283 762 l 193 762 l 323 999 l 442 999 m 0 644 z "},"́":{"ha":0,"x_min":-544,"x_max":-102,"o":"m -102 999 l -260 762 l -351 762 l -221 999 l -102 999 m -544 644 z "},"ˆ":{"ha":475,"x_min":0,"x_max":479,"o":"m 385 999 l 479 762 l 388 762 l 323 929 l 320 929 l 186 762 l 88 762 l 279 999 l 385 999 m 0 644 z "},"̂":{"ha":0,"x_min":-584,"x_max":-104,"o":"m -199 999 l -104 762 l -196 762 l -261 929 l -264 929 l -397 762 l -496 762 l -305 999 l -199 999 m -584 644 z "},"ˇ":{"ha":475,"x_min":0,"x_max":532,"o":"m 235 762 l 140 999 l 232 999 l 297 832 l 300 832 l 433 999 l 532 999 l 341 762 l 235 762 m 0 644 z "},"̌":{"ha":0,"x_min":-591,"x_max":-60,"o":"m -357 762 l -451 999 l -359 999 l -294 832 l -292 832 l -158 999 l -60 999 l -250 762 l -357 762 m -591 644 z "},"̕":{"ha":72,"x_min":40,"x_max":220,"o":"m 114 861 q 103 886 114 877 q 73 895 93 895 q 66 895 70 895 l 85 982 q 103 983 95 983 q 189 960 157 983 q 220 895 220 937 q 201 819 220 859 q 141 732 182 779 l 40 732 q 94 803 74 770 q 114 861 114 835 m 72 644 z "},"˜":{"ha":475,"x_min":0,"x_max":537,"o":"m 537 937 q 522 881 532 907 q 494 835 511 854 q 454 805 477 816 q 401 793 431 793 q 352 801 374 793 q 311 819 330 809 q 266 845 288 833 q 226 858 244 858 q 190 842 203 858 q 170 799 176 825 l 82 799 q 98 856 87 829 q 125 902 109 882 q 165 932 142 921 q 218 943 189 943 q 274 932 249 943 q 322 909 300 922 q 359 888 342 897 q 393 878 376 878 q 430 895 416 878 q 449 937 444 911 l 537 937 m 0 644 z "},"̃":{"ha":0,"x_min":-583,"x_max":-45,"o":"m -45 937 q -61 881 -50 907 q -89 835 -72 854 q -129 805 -105 816 q -182 793 -152 793 q -231 801 -209 793 q -272 819 -253 809 q -317 845 -295 833 q -357 858 -338 858 q -393 842 -379 858 q -412 799 -407 825 l -500 799 q -485 856 -496 829 q -457 902 -474 882 q -417 932 -441 921 q -364 943 -394 943 q -308 932 -334 943 q -260 909 -283 922 q -224 888 -241 897 q -189 878 -207 878 q -153 895 -167 878 q -134 937 -139 911 l -45 937 m -583 644 z "},"¨":{"ha":475,"x_min":0,"x_max":507,"o":"m 117 794 l 140 907 l 248 907 l 224 794 l 117 794 m 375 794 l 399 907 l 507 907 l 483 794 l 375 794 m 0 644 z "},"̈":{"ha":0,"x_min":-583,"x_max":-76,"o":"m -466 794 l -442 907 l -334 907 l -358 794 l -466 794 m -208 794 l -184 907 l -76 907 l -100 794 l -208 794 m -583 644 z "},"¯":{"ha":475,"x_min":0,"x_max":504,"o":"m 138 882 l 504 882 l 486 794 l 119 794 l 138 882 m 0 644 z "},"̄":{"ha":0,"x_min":-585,"x_max":-81,"o":"m -448 882 l -81 882 l -100 794 l -466 794 l -448 882 m -585 644 z "},"˘":{"ha":475,"x_min":0,"x_max":540,"o":"m 300 852 q 390 881 353 852 q 448 971 427 909 l 540 971 q 506 889 528 926 q 453 825 484 852 q 381 785 422 799 q 292 770 341 770 q 211 786 245 770 q 157 826 176 801 q 130 879 137 851 q 122 934 122 907 q 125 971 122 952 l 211 971 q 210 949 210 960 q 232 877 211 902 q 300 852 254 852 m 0 644 z "},"̆":{"ha":0,"x_min":-574,"x_max":-34,"o":"m -274 852 q -184 881 -221 852 q -126 971 -147 909 l -34 971 q -68 889 -46 926 q -121 825 -90 852 q -192 785 -152 799 q -281 770 -233 770 q -363 786 -328 770 q -417 826 -397 801 q -444 879 -437 851 q -452 934 -452 907 q -449 971 -452 952 l -363 971 q -363 949 -363 960 q -341 877 -363 902 q -274 852 -320 852 m -574 644 z "},"˚":{"ha":475,"x_min":0,"x_max":470,"o":"m 331 1010 q 434 980 399 1010 q 470 897 470 949 q 459 845 470 871 q 427 796 448 818 q 372 761 405 774 q 294 747 339 747 q 191 778 227 747 q 155 860 155 808 q 166 912 155 886 q 199 961 177 939 q 253 997 220 983 q 331 1010 286 1010 m 300 813 q 336 820 320 813 q 363 838 352 827 q 380 863 374 848 q 386 892 386 878 q 371 930 386 916 q 326 944 356 944 q 289 937 305 944 q 262 920 273 930 q 245 895 251 909 q 239 865 239 880 q 254 827 239 842 q 300 813 269 813 m 0 644 z "},"̊":{"ha":0,"x_min":-593,"x_max":-123,"o":"m -262 1010 q -158 980 -194 1010 q -123 897 -123 949 q -134 845 -123 871 q -166 796 -144 818 q -221 761 -188 774 q -298 747 -254 747 q -402 778 -366 747 q -437 860 -437 808 q -427 912 -437 886 q -394 961 -416 939 q -339 997 -372 983 q -262 1010 -307 1010 m -293 813 q -257 820 -273 813 q -230 838 -241 827 q -213 863 -218 848 q -207 892 -207 878 q -222 930 -207 916 q -267 944 -237 944 q -303 937 -288 944 q -331 920 -319 930 q -348 895 -342 909 q -353 865 -353 880 q -338 827 -353 842 q -293 813 -323 813 m -593 644 z "},"˝":{"ha":475,"x_min":0,"x_max":549,"o":"m 340 999 l 181 762 l 90 762 l 220 999 l 340 999 m 549 999 l 376 762 l 285 762 l 430 999 l 549 999 m 0 644 z "},"̋":{"ha":0,"x_min":-561,"x_max":-12,"o":"m -221 999 l -380 762 l -471 762 l -340 999 l -221 999 m -12 999 l -185 762 l -276 762 l -131 999 l -12 999 m -561 644 z "},"˙":{"ha":475,"x_min":0,"x_max":378,"o":"m 243 794 l 267 910 l 378 910 l 354 794 l 243 794 m 0 644 z "},"̇":{"ha":0,"x_min":-595,"x_max":-218,"o":"m -352 794 l -328 910 l -218 910 l -241 794 l -352 794 m -595 644 z "},"¸":{"ha":475,"x_min":-12,"x_max":276,"o":"m 119 0 l 203 0 l 167 -87 q 211 -98 191 -90 q 245 -119 231 -106 q 268 -150 260 -132 q 276 -190 276 -168 q 264 -247 276 -221 q 230 -292 253 -273 q 172 -322 206 -311 q 91 -332 137 -332 q 32 -327 60 -332 q -12 -316 3 -322 l 4 -240 q 42 -250 20 -246 q 88 -254 64 -254 q 161 -237 138 -254 q 184 -197 184 -220 q 177 -174 184 -183 q 155 -159 170 -165 q 116 -150 140 -153 q 57 -146 92 -146 l 119 0 z "},"̧":{"ha":0,"x_min":-483,"x_max":-195,"o":"m -351 0 l -267 0 l -304 -87 q -260 -98 -280 -90 q -225 -119 -240 -106 q -203 -150 -211 -132 q -195 -190 -195 -168 q -206 -247 -195 -221 q -241 -292 -218 -273 q -299 -322 -264 -311 q -380 -332 -334 -332 q -439 -327 -411 -332 q -483 -316 -467 -322 l -467 -240 q -429 -250 -451 -246 q -382 -254 -406 -254 q -310 -237 -332 -254 q -287 -197 -287 -220 q -294 -174 -287 -183 q -315 -159 -300 -165 q -355 -150 -330 -153 q -414 -146 -379 -146 l -351 0 z "},"˛":{"ha":475,"x_min":-26,"x_max":296,"o":"m 296 20 q 215 -27 255 -3 q 142 -79 174 -52 q 91 -134 111 -106 q 71 -191 71 -162 q 134 -241 71 -241 q 174 -237 153 -241 q 220 -225 195 -233 l 201 -316 q 157 -329 182 -325 q 110 -332 133 -332 q 9 -302 45 -332 q -26 -218 -26 -272 q -8 -143 -26 -177 q 41 -78 11 -109 q 108 -23 71 -48 q 184 20 146 1 l 296 20 z "},"̨":{"ha":0,"x_min":-497,"x_max":-175,"o":"m -175 20 q -256 -27 -216 -3 q -328 -79 -296 -52 q -380 -134 -360 -106 q -400 -191 -400 -162 q -336 -241 -400 -241 q -296 -237 -317 -241 q -250 -225 -275 -233 l -269 -316 q -313 -329 -289 -325 q -361 -332 -338 -332 q -461 -302 -425 -332 q -497 -218 -497 -272 q -478 -143 -497 -177 q -430 -78 -460 -109 q -362 -23 -400 -48 q -286 20 -325 1 l -175 20 z "},"̦":{"ha":475,"x_min":45,"x_max":225,"o":"m 119 -203 q 109 -179 119 -188 q 78 -170 98 -171 q 71 -170 75 -170 l 90 -83 q 106 -82 98 -82 q 193 -105 161 -82 q 225 -170 225 -127 q 206 -246 225 -206 q 146 -332 186 -286 l 45 -332 q 99 -262 79 -294 q 119 -203 119 -230 z "},"̒":{"ha":0,"x_min":-323,"x_max":1,"o":"m -217 870 q -207 846 -217 854 q -175 837 -196 837 q -170 837 -172 837 l -188 749 q -203 749 -196 749 q -292 771 -260 749 q -323 836 -323 794 q -304 913 -323 873 q -244 999 -285 953 l -143 999 q -197 929 -177 961 q -217 870 -217 897 m 1 644 z "},",":{"ha":368,"x_min":-47,"x_max":220,"o":"m 102 148 l 220 148 l 55 -264 l -47 -264 l 102 148 z "},";":{"ha":368,"x_min":-47,"x_max":289,"o":"m 98 148 l 216 148 l 55 -264 l -47 -264 l 98 148 m 289 547 l 262 415 l 132 415 l 159 547 l 289 547 z "},":":{"ha":368,"x_min":51,"x_max":294,"o":"m 51 0 l 78 132 l 208 132 l 180 0 l 51 0 m 294 547 l 267 415 l 137 415 l 164 547 l 294 547 z "},".":{"ha":368,"x_min":51,"x_max":208,"o":"m 51 0 l 78 132 l 208 132 l 180 0 l 51 0 z "},"…":{"ha":1103,"x_min":51,"x_max":943,"o":"m 51 0 l 78 132 l 208 132 l 180 0 l 51 0 m 418 0 l 446 132 l 575 132 l 548 0 l 418 0 m 786 0 l 813 132 l 943 132 l 916 0 l 786 0 z "},"-":{"ha":448,"x_min":81,"x_max":387,"o":"m 102 387 l 387 387 l 367 289 l 81 289 l 102 387 z "},"!":{"ha":367,"x_min":51,"x_max":361,"o":"m 51 0 l 78 132 l 205 132 l 178 0 l 51 0 m 361 907 l 217 292 l 125 292 l 237 907 l 361 907 z "},"¡":{"ha":367,"x_min":0,"x_max":311,"o":"m 311 644 l 283 512 l 157 512 l 184 644 l 311 644 m 0 -262 l 144 352 l 236 352 l 124 -262 l 0 -262 z "},"?":{"ha":576,"x_min":108,"x_max":609,"o":"m 108 0 l 136 132 l 262 132 l 235 0 l 108 0 m 609 737 q 596 660 609 693 q 561 600 583 626 q 511 551 539 573 q 454 509 484 530 q 397 470 425 490 q 344 426 368 450 q 302 372 320 401 q 277 303 285 342 l 275 292 l 179 292 q 201 388 182 347 q 248 460 220 429 q 308 515 275 491 q 374 561 341 539 q 422 596 399 578 q 463 634 446 614 q 491 678 481 654 q 502 732 502 702 q 466 807 502 781 q 366 834 431 834 q 312 830 339 834 q 258 820 284 827 q 208 806 232 814 q 165 788 184 798 l 184 879 q 274 912 222 901 q 380 924 325 924 q 475 911 433 924 q 547 874 517 899 q 593 816 576 850 q 609 737 609 781 z "},"¿":{"ha":576,"x_min":-17,"x_max":484,"o":"m 484 644 l 456 512 l 330 512 l 357 644 l 484 644 m -17 -93 q -2 -11 -17 -45 q 37 52 13 24 q 93 102 62 80 q 157 147 124 125 q 209 184 183 165 q 255 227 234 203 q 292 278 277 250 q 315 341 308 306 l 317 352 l 413 352 q 394 264 410 302 q 355 197 378 227 q 303 144 332 168 q 244 101 274 121 q 187 62 215 81 q 138 21 159 43 q 103 -27 117 -1 q 90 -88 90 -54 q 126 -163 90 -136 q 227 -190 161 -190 q 280 -186 253 -190 q 334 -176 308 -182 q 384 -161 360 -170 q 427 -144 408 -153 l 408 -235 q 318 -268 370 -256 q 212 -280 267 -280 q 117 -267 159 -280 q 45 -230 75 -254 q -1 -172 16 -206 q -17 -93 -17 -137 z "},"‘":{"ha":304,"x_min":159,"x_max":303,"o":"m 159 907 l 254 907 l 303 572 l 189 572 l 159 907 z "},"’":{"ha":304,"x_min":112,"x_max":401,"o":"m 278 907 l 401 907 l 212 572 l 112 572 l 278 907 z "},"“":{"ha":535,"x_min":159,"x_max":534,"o":"m 159 907 l 254 907 l 290 572 l 175 572 l 159 907 m 389 907 l 485 907 l 534 572 l 418 572 l 389 907 z "},"”":{"ha":549,"x_min":112,"x_max":645,"o":"m 278 907 l 401 907 l 212 572 l 112 572 l 278 907 m 521 907 l 645 907 l 436 572 l 335 572 l 521 907 z "},"‚":{"ha":304,"x_min":-81,"x_max":208,"o":"m 85 149 l 208 149 l 19 -186 l -81 -186 l 85 149 z "},"„":{"ha":549,"x_min":-81,"x_max":452,"o":"m 85 149 l 208 149 l 19 -186 l -81 -186 l 85 149 m 328 149 l 452 149 l 243 -186 l 142 -186 l 328 149 z "},"‹":{"ha":399,"x_min":61,"x_max":392,"o":"m 61 321 l 284 576 l 392 576 l 184 321 l 286 66 l 190 66 l 61 321 z "},"›":{"ha":399,"x_min":14,"x_max":345,"o":"m 345 321 l 121 66 l 14 66 l 221 321 l 120 576 l 216 576 l 345 321 z "},"«":{"ha":665,"x_min":61,"x_max":658,"o":"m 327 321 l 550 576 l 658 576 l 450 321 l 551 66 l 456 66 l 327 321 m 61 321 l 301 576 l 413 576 l 186 321 l 305 66 l 211 66 l 61 321 z "},"»":{"ha":665,"x_min":14,"x_max":610,"o":"m 345 321 l 121 66 l 14 66 l 221 321 l 120 576 l 216 576 l 345 321 m 610 321 l 370 66 l 258 66 l 486 321 l 366 576 l 460 576 l 610 321 z "},"/":{"ha":382,"x_min":-90,"x_max":498,"o":"m -90 -169 l 392 907 l 498 907 l 16 -169 l -90 -169 z "},"|":{"ha":315,"x_min":109,"x_max":207,"o":"m 207 -315 l 109 -315 l 109 982 l 207 982 l 207 -315 z "},"–":{"ha":678,"x_min":-9,"x_max":687,"o":"m 9 378 l 687 378 l 669 294 l -9 294 l 9 378 z "},"—":{"ha":1153,"x_min":-9,"x_max":1162,"o":"m 9 378 l 1162 378 l 1143 294 l -9 294 l 9 378 z "},"―":{"ha":1153,"x_min":-9,"x_max":1162,"o":"m 9 378 l 1162 378 l 1143 294 l -9 294 l 9 378 z "},"•":{"ha":616,"x_min":123,"x_max":549,"o":"m 123 452 q 139 537 123 498 q 184 604 155 576 q 251 649 212 633 q 336 665 290 665 q 420 649 381 665 q 488 604 459 633 q 532 537 516 576 q 549 452 549 498 q 532 368 549 407 q 488 300 516 329 q 420 256 459 272 q 336 239 381 239 q 251 256 290 239 q 184 300 212 272 q 139 368 155 329 q 123 452 123 407 z "},"·":{"ha":367,"x_min":109,"x_max":265,"o":"m 109 267 l 136 399 l 265 399 l 238 267 l 109 267 z "},"(":{"ha":393,"x_min":56,"x_max":461,"o":"m 461 867 q 337 734 393 808 q 241 573 281 661 q 179 386 201 486 q 157 174 157 286 q 182 -20 157 64 q 252 -163 208 -103 l 192 -220 q 146 -161 170 -199 q 102 -70 122 -123 q 69 48 82 -18 q 56 193 56 115 q 84 425 56 316 q 161 627 113 534 q 273 794 209 720 q 409 924 337 869 l 461 867 z "},")":{"ha":393,"x_min":-64,"x_max":341,"o":"m -64 -163 q 60 -31 4 -104 q 156 131 116 43 q 219 319 197 218 q 241 530 241 419 q 215 724 241 641 q 145 867 190 807 l 205 924 q 251 865 227 903 q 295 774 275 827 q 328 655 315 722 q 341 511 341 589 q 313 279 341 388 q 237 77 285 170 q 124 -91 189 -16 q -12 -220 60 -165 l -64 -163 z "},"[":{"ha":429,"x_min":0,"x_max":507,"o":"m 232 907 l 507 907 l 490 824 l 317 824 l 119 -120 l 292 -120 l 275 -203 l 0 -203 l 232 907 z "},"]":{"ha":429,"x_min":-78,"x_max":429,"o":"m 197 -203 l -78 -203 l -60 -120 l 112 -120 l 309 824 l 136 824 l 154 907 l 429 907 l 197 -203 z "},"{":{"ha":406,"x_min":17,"x_max":474,"o":"m 211 527 q 205 573 211 552 q 193 616 200 594 q 181 661 186 637 q 176 715 176 684 q 194 791 176 755 q 246 852 212 826 q 331 893 281 878 q 448 907 382 907 l 474 907 l 456 824 l 448 824 q 322 796 364 824 q 279 711 279 768 q 284 668 279 687 q 294 629 289 648 q 304 587 300 609 q 309 537 309 566 q 298 471 309 501 q 270 416 288 440 q 229 376 252 392 q 179 352 205 359 l 179 349 q 198 340 187 347 q 219 320 209 333 q 236 287 229 307 q 243 239 243 267 q 238 194 243 215 q 224 154 233 173 q 205 117 216 135 q 183 83 195 100 q 161 51 172 66 q 141 19 150 35 q 127 -13 132 3 q 122 -46 122 -29 q 154 -101 122 -81 q 251 -120 185 -120 l 259 -120 l 241 -203 l 222 -203 q 121 -191 161 -203 q 58 -158 81 -178 q 26 -114 35 -138 q 17 -64 17 -89 q 24 -15 17 -38 q 42 29 31 8 q 67 70 53 50 q 95 109 81 90 q 117 142 106 125 q 137 175 128 158 q 150 211 145 193 q 155 249 155 229 q 146 284 155 271 q 123 303 137 296 q 91 312 109 310 q 55 313 73 313 l 72 396 q 121 400 96 396 q 166 418 146 404 q 198 458 186 432 q 211 527 211 484 z "},"}":{"ha":406,"x_min":-64,"x_max":393,"o":"m 199 177 q 204 131 199 152 q 216 88 210 110 q 229 43 223 66 q 234 -11 234 20 q 216 -87 234 -52 q 163 -148 198 -122 q 78 -189 129 -174 q -38 -203 28 -203 l -64 -203 l -47 -120 l -39 -120 q 88 -92 45 -120 q 130 -7 130 -64 q 125 36 130 17 q 115 75 121 56 q 105 117 110 95 q 101 167 101 138 q 111 233 101 203 q 139 288 121 264 q 181 328 157 312 q 231 352 204 345 l 231 355 q 212 364 222 357 q 191 384 201 371 q 173 417 180 397 q 166 465 166 437 q 171 510 166 489 q 185 550 176 531 q 204 587 194 569 q 227 621 215 604 q 249 653 238 637 q 269 685 260 669 q 282 717 277 701 q 288 750 288 733 q 256 805 288 785 q 159 824 224 824 l 151 824 l 168 907 l 187 907 q 289 895 249 907 q 352 862 329 882 q 384 818 375 842 q 393 768 393 793 q 386 719 393 742 q 368 675 379 696 q 343 634 357 654 q 315 595 329 614 q 292 562 303 578 q 273 529 281 546 q 259 493 264 511 q 254 455 254 475 q 263 420 254 433 q 287 401 273 408 q 319 392 301 394 q 355 391 337 391 l 338 308 q 288 304 313 308 q 243 286 263 300 q 211 246 224 272 q 199 177 199 220 z "},"*":{"ha":744,"x_min":149,"x_max":724,"o":"m 424 576 l 420 576 l 342 454 l 250 364 l 181 435 l 274 524 l 395 604 l 394 608 l 258 646 l 149 705 l 195 791 l 305 733 l 412 642 l 414 645 l 409 785 l 431 911 l 528 895 l 506 768 l 453 638 l 455 635 l 586 683 l 709 701 l 724 604 l 600 586 l 460 596 l 458 593 l 543 477 l 600 361 l 512 317 l 455 433 l 424 576 z "},"†":{"ha":645,"x_min":128,"x_max":629,"o":"m 462 779 l 402 642 l 404 639 l 523 669 l 629 669 l 610 576 l 504 576 l 397 607 l 394 604 l 397 467 l 288 87 l 246 87 l 296 467 l 355 604 l 353 607 l 235 576 l 128 576 l 147 669 l 254 669 l 360 639 l 363 642 l 361 779 l 388 907 l 489 907 l 462 779 z "},"‡":{"ha":645,"x_min":62,"x_max":635,"o":"m 301 467 l 361 604 l 359 607 l 239 576 l 133 576 l 153 669 l 259 669 l 366 639 l 368 642 l 366 779 l 393 907 l 494 907 l 467 779 l 407 642 l 410 639 l 528 669 l 635 669 l 615 576 l 509 576 l 403 607 l 399 604 l 402 467 l 396 440 l 336 303 l 338 300 l 458 331 l 564 331 l 545 238 l 438 238 l 332 269 l 329 266 l 331 129 l 304 0 l 203 0 l 230 129 l 290 266 l 288 269 l 169 238 l 62 238 l 82 331 l 189 331 l 294 300 l 298 303 l 295 440 l 301 467 z "},"§":{"ha":592,"x_min":-34,"x_max":616,"o":"m 247 747 q 216 657 230 713 q 202 526 202 601 q 209 448 202 486 q 225 373 215 410 q 249 302 235 337 q 275 233 262 267 q 298 171 287 201 q 318 109 310 140 q 332 46 327 77 q 338 -17 338 15 q 327 -102 338 -60 l 335 -102 q 366 -13 352 -68 q 380 119 380 43 q 373 201 380 161 q 354 280 366 241 q 329 355 343 318 q 301 428 315 392 q 261 544 279 487 q 244 661 244 601 q 255 747 244 704 l 247 747 m 139 -280 q 44 -270 87 -280 q -34 -245 1 -260 l -15 -157 q 59 -181 22 -172 q 136 -191 96 -191 q 234 -159 200 -191 q 268 -72 268 -127 q 249 27 268 -25 q 204 140 229 79 q 174 215 189 176 q 146 296 159 254 q 127 384 134 338 q 119 479 119 430 q 144 667 119 585 q 211 807 168 750 q 312 894 254 864 q 439 924 370 924 q 536 915 492 924 q 616 890 581 905 l 597 801 q 523 826 559 817 q 446 835 486 835 q 348 803 382 835 q 314 716 314 772 q 319 667 314 692 q 334 615 325 642 q 355 559 343 588 q 380 500 367 530 q 410 426 395 465 q 436 346 425 387 q 455 259 448 304 q 463 165 463 214 q 438 -23 463 60 q 371 -163 414 -106 q 269 -250 328 -220 q 139 -280 210 -280 z "},"¶":{"ha":803,"x_min":49,"x_max":805,"o":"m 67 -155 q 119 -176 94 -168 q 168 -183 144 -183 q 215 -171 195 -183 q 250 -134 235 -158 q 276 -77 265 -111 q 296 -1 288 -43 l 339 202 q 244 244 283 216 q 180 307 205 271 q 144 386 155 343 q 132 474 132 429 q 165 643 132 564 q 268 781 199 722 q 444 873 338 840 q 700 907 551 907 l 805 907 l 610 -23 q 562 -149 594 -100 q 484 -228 530 -199 q 378 -269 438 -257 q 255 -280 318 -280 q 195 -277 225 -280 q 137 -269 164 -274 q 86 -257 109 -264 q 49 -243 63 -250 l 67 -155 m 687 814 q 628 813 656 814 q 567 806 599 811 l 399 5 q 380 -72 390 -39 q 359 -127 370 -104 q 335 -166 348 -151 q 306 -193 323 -182 l 306 -196 q 391 -176 355 -191 q 452 -136 427 -161 q 491 -79 476 -112 q 514 -6 506 -46 l 687 814 z "},"Α":{"ha":849,"x_min":-27,"x_max":747,"o":"m -27 0 l 475 907 l 568 907 l 747 0 l 635 0 l 583 273 l 245 273 l 95 0 l -27 0 m 299 373 l 564 373 l 532 547 q 498 746 509 667 l 495 746 q 387 532 459 663 l 299 373 z "},"Β":{"ha":821,"x_min":51,"x_max":766,"o":"m 581 463 q 643 443 614 457 q 691 405 671 428 q 723 353 711 382 q 734 288 734 323 q 717 197 734 240 q 666 118 700 153 q 582 56 633 82 q 464 15 532 29 q 386 4 427 7 q 290 0 344 0 l 51 0 l 240 907 l 452 907 q 524 905 492 907 q 588 895 555 903 q 661 867 628 886 q 717 822 694 848 q 753 763 741 796 q 766 692 766 730 q 717 545 766 602 q 581 466 667 489 l 581 463 m 248 415 l 182 100 l 306 100 q 385 102 352 100 q 444 111 417 105 q 526 141 492 122 q 579 184 559 160 q 609 236 600 208 q 618 291 618 263 q 595 362 618 332 q 528 405 572 391 q 444 415 496 415 l 248 415 m 330 808 l 269 515 l 434 515 q 519 525 480 515 q 588 556 559 535 q 634 610 618 578 q 651 686 651 642 q 626 758 651 730 q 553 798 600 786 q 512 806 534 804 q 462 808 490 808 l 330 808 z "},"Γ":{"ha":724,"x_min":51,"x_max":817,"o":"m 51 0 l 239 907 l 817 907 l 796 808 l 329 808 l 161 0 l 51 0 z "},"Δ":{"ha":840,"x_min":-20,"x_max":732,"o":"m 616 102 l 544 472 q 492 756 511 637 l 488 756 q 340 477 442 661 l 133 102 l 133 100 l 616 100 l 616 102 m 732 69 l 718 0 l -20 0 l -6 69 l 462 907 l 563 907 l 732 69 z "},"Ε":{"ha":728,"x_min":51,"x_max":758,"o":"m 182 100 l 615 100 l 595 0 l 51 0 l 239 907 l 758 907 l 737 808 l 329 808 l 268 515 l 633 515 l 612 415 l 248 415 l 182 100 z "},"Ζ":{"ha":788,"x_min":7,"x_max":822,"o":"m 648 808 l 174 808 l 195 907 l 822 907 l 808 838 l 182 102 l 182 100 l 675 100 l 655 0 l 7 0 l 21 69 l 648 805 l 648 808 z "},"Η":{"ha":906,"x_min":51,"x_max":909,"o":"m 267 515 l 718 515 l 799 907 l 909 907 l 721 0 l 610 0 l 696 415 l 248 415 l 161 0 l 51 0 l 239 907 l 350 907 l 267 515 z "},"Θ":{"ha":968,"x_min":95,"x_max":927,"o":"m 690 415 l 307 415 l 328 515 l 711 515 l 690 415 m 436 -17 q 296 4 359 -17 q 188 68 233 26 q 119 172 143 110 q 95 317 95 235 q 109 456 95 385 q 149 595 122 528 q 217 723 176 663 q 313 827 258 783 q 436 898 368 872 q 587 924 505 924 q 727 903 664 924 q 834 840 790 882 q 903 735 879 798 q 927 591 927 673 q 913 451 927 523 q 873 312 900 380 q 805 185 846 245 q 710 80 764 125 q 587 9 655 35 q 436 -17 518 -17 m 437 81 q 550 103 498 81 q 643 163 602 125 q 716 251 685 201 q 769 356 748 300 q 801 470 790 412 q 812 583 812 528 q 755 764 812 703 q 585 826 699 826 q 472 804 524 826 q 379 744 420 782 q 306 657 337 707 q 253 551 274 607 q 221 437 232 496 q 210 325 210 379 q 267 143 210 205 q 437 81 323 81 z "},"Ι":{"ha":347,"x_min":51,"x_max":350,"o":"m 51 0 l 239 907 l 350 907 l 161 0 l 51 0 z "},"Κ":{"ha":793,"x_min":51,"x_max":874,"o":"m 259 459 l 734 907 l 874 907 l 384 448 l 719 0 l 589 0 l 256 444 l 254 444 l 161 0 l 51 0 l 239 907 l 350 907 l 257 459 l 259 459 z "},"Λ":{"ha":830,"x_min":-27,"x_max":728,"o":"m 96 0 l -27 0 l 461 907 l 561 907 l 728 0 l 616 0 l 539 446 q 491 746 503 655 l 487 746 q 334 446 426 616 l 96 0 z "},"Μ":{"ha":1099,"x_min":51,"x_max":1102,"o":"m 524 189 q 625 374 584 304 l 937 907 l 1102 907 l 913 0 l 803 0 l 903 477 q 940 640 920 561 q 975 779 959 719 l 969 779 q 828 521 914 666 l 515 0 l 460 0 l 365 503 q 318 779 338 644 l 312 779 q 263 495 288 618 l 161 0 l 51 0 l 239 907 l 393 907 l 494 355 q 522 189 512 259 l 524 189 z "},"Ν":{"ha":937,"x_min":51,"x_max":940,"o":"m 684 163 q 692 219 688 190 q 701 277 696 248 q 711 336 705 307 q 722 391 716 365 l 829 907 l 940 907 l 751 0 l 648 0 l 402 529 q 354 635 378 579 q 309 746 329 692 l 307 746 q 290 629 299 690 q 269 516 280 569 l 161 0 l 51 0 l 239 907 l 341 907 l 605 338 q 644 253 624 298 q 681 163 665 208 l 684 163 z "},"Ξ":{"ha":788,"x_min":-7,"x_max":808,"o":"m 179 515 l 677 515 l 656 415 l 158 415 l 179 515 m 14 100 l 666 100 l 646 0 l -7 0 l 14 100 m 213 907 l 808 907 l 787 808 l 192 808 l 213 907 z "},"Ο":{"ha":968,"x_min":95,"x_max":927,"o":"m 436 -17 q 296 4 359 -17 q 188 68 233 26 q 119 172 143 110 q 95 317 95 235 q 109 456 95 385 q 149 595 122 528 q 217 723 176 663 q 313 827 258 783 q 436 898 368 872 q 587 924 505 924 q 727 903 664 924 q 834 840 790 882 q 903 735 879 798 q 927 591 927 673 q 913 451 927 523 q 873 312 900 380 q 805 185 846 245 q 710 80 764 125 q 587 9 655 35 q 436 -17 518 -17 m 437 81 q 550 103 498 81 q 643 163 602 125 q 716 251 685 201 q 769 356 748 300 q 801 470 790 412 q 812 583 812 528 q 755 764 812 703 q 585 826 699 826 q 472 804 524 826 q 379 744 420 782 q 306 657 337 707 q 253 551 274 607 q 221 437 232 496 q 210 325 210 379 q 267 143 210 205 q 437 81 323 81 z "},"Π":{"ha":897,"x_min":51,"x_max":900,"o":"m 900 907 l 711 0 l 601 0 l 768 808 l 329 808 l 161 0 l 51 0 l 239 907 l 900 907 z "},"Ρ":{"ha":791,"x_min":51,"x_max":774,"o":"m 348 370 q 239 377 290 370 l 161 0 l 51 0 l 239 907 l 461 907 q 539 904 507 907 q 595 895 570 901 q 674 865 641 884 q 730 819 708 845 q 763 760 752 792 q 774 692 774 728 q 751 573 774 631 q 677 470 728 515 q 544 397 626 425 q 348 370 461 370 m 260 476 q 355 469 306 469 q 463 479 414 469 q 544 506 511 489 q 600 545 578 523 q 635 592 623 568 q 653 641 648 616 q 659 686 659 665 q 636 756 659 728 q 567 798 614 785 q 529 805 551 803 q 473 808 507 808 l 329 808 l 260 476 z "},"Σ":{"ha":806,"x_min":7,"x_max":861,"o":"m 311 208 q 193 100 248 147 l 193 97 q 326 100 267 100 l 710 100 l 690 0 l 7 0 l 21 69 l 465 494 l 465 496 l 199 838 l 214 907 l 861 907 l 840 808 l 480 808 q 352 810 399 808 l 352 808 q 427 715 391 762 l 604 486 l 311 208 z "},"Τ":{"ha":718,"x_min":117,"x_max":811,"o":"m 341 0 l 231 0 l 398 808 l 117 808 l 138 907 l 811 907 l 790 808 l 509 808 l 341 0 z "},"Υ":{"ha":758,"x_min":125,"x_max":859,"o":"m 416 464 q 464 566 437 516 q 527 667 491 615 q 612 778 564 720 q 724 907 660 837 l 859 907 q 724 755 792 834 q 597 589 656 676 q 493 407 538 503 q 426 205 448 311 l 383 0 l 273 0 l 309 176 q 325 278 321 233 q 330 351 330 323 q 311 506 330 431 q 262 651 292 581 q 196 785 232 720 q 125 907 160 849 l 248 907 q 310 790 282 844 q 358 685 338 736 q 393 579 379 633 q 413 464 407 526 l 416 464 z "},"Φ":{"ha":1015,"x_min":88,"x_max":981,"o":"m 866 534 q 850 628 866 587 q 805 697 833 669 q 737 742 776 726 q 652 764 698 759 l 527 157 q 678 199 614 164 q 784 287 742 234 q 846 404 825 339 q 866 534 866 468 m 396 61 q 283 91 338 68 q 184 154 227 113 q 115 254 141 195 q 88 392 88 313 q 119 566 88 484 q 210 713 150 649 q 359 818 270 777 q 563 865 448 858 l 585 966 l 695 966 l 673 862 q 787 832 732 855 q 885 769 842 810 q 955 669 928 728 q 981 531 981 610 q 950 357 981 439 q 860 211 920 275 q 711 106 800 146 q 507 58 622 65 l 485 -45 l 374 -45 l 396 61 m 203 389 q 220 295 203 336 q 265 226 236 254 q 333 181 294 197 q 417 159 372 164 l 543 766 q 392 724 456 759 q 286 636 328 689 q 224 519 244 584 q 203 389 203 455 z "},"Χ":{"ha":806,"x_min":-50,"x_max":892,"o":"m 82 0 l -50 0 l 363 472 l 165 907 l 284 907 l 446 551 l 448 551 l 760 907 l 892 907 l 493 452 l 700 0 l 581 0 l 410 373 l 408 373 l 82 0 z "},"Ψ":{"ha":956,"x_min":136,"x_max":1004,"o":"m 348 0 l 406 286 q 281 311 333 292 q 198 364 230 330 q 151 447 165 397 q 136 562 136 496 q 149 715 136 630 q 185 907 161 801 l 295 907 q 259 712 271 795 q 246 569 246 629 q 257 484 246 518 q 290 427 267 449 q 346 395 312 406 q 427 384 380 385 l 536 907 l 647 907 l 538 384 q 630 399 589 387 q 704 437 671 412 q 763 503 736 463 q 812 600 790 543 q 854 733 835 657 q 892 907 873 810 l 1004 907 q 940 630 977 746 q 846 440 903 515 q 710 328 790 365 q 517 286 630 290 l 458 0 l 348 0 z "},"Ω":{"ha":994,"x_min":27,"x_max":954,"o":"m 954 591 q 940 478 954 532 q 905 376 927 424 q 853 287 882 328 q 792 211 824 245 q 728 149 760 176 q 666 102 695 122 l 666 100 l 852 100 l 831 0 l 509 0 l 525 77 q 593 134 557 102 q 664 203 629 165 q 730 285 699 241 q 785 377 762 328 q 823 479 809 426 q 837 591 837 533 q 820 695 837 651 q 771 768 802 739 q 695 812 739 798 q 596 826 650 826 q 441 790 509 826 q 325 695 372 755 q 252 559 277 636 q 227 398 227 481 q 237 299 227 344 q 264 217 247 255 q 304 145 281 179 q 353 77 327 111 l 337 0 l 27 0 l 47 100 l 241 100 l 241 102 q 189 161 213 128 q 148 235 165 195 q 120 321 130 275 q 111 419 111 368 q 124 535 111 475 q 166 650 138 594 q 235 756 193 707 q 331 844 276 806 q 453 903 385 881 q 602 924 521 924 q 756 899 690 924 q 866 828 822 873 q 931 723 909 783 q 954 591 954 662 z "},"Ά":{"ha":849,"x_min":-27,"x_max":747,"o":"m 291 907 l 165 650 l 70 650 l 186 907 l 291 907 m -27 0 l 475 907 l 568 907 l 747 0 l 635 0 l 583 273 l 245 273 l 95 0 l -27 0 m 299 373 l 564 373 l 532 547 q 498 746 509 667 l 495 746 q 387 532 459 663 l 299 373 z "},"Έ":{"ha":840,"x_min":29,"x_max":871,"o":"m 250 907 l 125 650 l 29 650 l 146 907 l 250 907 m 294 100 l 728 100 l 707 0 l 163 0 l 352 907 l 871 907 l 850 808 l 441 808 l 380 515 l 745 515 l 725 415 l 360 415 l 294 100 z "},"Ή":{"ha":1019,"x_min":29,"x_max":1022,"o":"m 250 907 l 125 650 l 29 650 l 146 907 l 250 907 m 380 515 l 830 515 l 911 907 l 1022 907 l 833 0 l 723 0 l 809 415 l 360 415 l 274 0 l 163 0 l 352 907 l 463 907 l 380 515 z "},"Ί":{"ha":459,"x_min":29,"x_max":451,"o":"m 250 907 l 125 650 l 29 650 l 146 907 l 250 907 m 152 0 l 340 907 l 451 907 l 262 0 l 152 0 z "},"Ϊ":{"ha":347,"x_min":8,"x_max":516,"o":"m 51 0 l 239 907 l 350 907 l 161 0 l 51 0 m 123 982 l 147 1097 l 256 1097 l 233 982 l 123 982 m 383 982 l 407 1097 l 516 1097 l 492 982 l 383 982 m 8 907 z "},"Ό":{"ha":1050,"x_min":29,"x_max":1009,"o":"m 250 907 l 125 650 l 29 650 l 146 907 l 250 907 m 518 -17 q 378 4 441 -17 q 270 68 315 26 q 201 172 225 110 q 177 317 177 235 q 191 456 177 385 q 231 595 204 528 q 299 723 258 663 q 395 827 340 783 q 518 898 450 872 q 669 924 587 924 q 809 903 746 924 q 917 840 872 882 q 985 735 961 798 q 1009 591 1009 673 q 996 451 1009 523 q 955 312 982 380 q 887 185 928 245 q 792 80 846 125 q 669 9 737 35 q 518 -17 600 -17 m 519 81 q 632 103 581 81 q 725 163 684 125 q 799 251 767 201 q 851 356 830 300 q 883 470 872 412 q 894 583 894 528 q 837 764 894 703 q 667 826 781 826 q 554 804 606 826 q 461 744 503 782 q 388 657 419 707 q 335 551 356 607 q 303 437 314 496 q 292 325 292 379 q 349 143 292 205 q 519 81 406 81 z "},"Ύ":{"ha":922,"x_min":20,"x_max":1023,"o":"m 241 907 l 116 650 l 20 650 l 137 907 l 241 907 m 580 464 q 628 566 602 516 q 691 667 655 615 q 776 778 728 720 q 888 907 824 837 l 1023 907 q 888 755 956 834 q 761 589 820 676 q 657 407 702 503 q 590 205 612 311 l 547 0 l 437 0 l 473 176 q 489 278 485 233 q 494 351 494 323 q 475 506 494 431 q 426 651 456 581 q 360 785 396 720 q 290 907 324 849 l 412 907 q 474 790 446 844 q 523 685 502 736 q 557 579 543 633 q 577 464 571 526 l 580 464 z "},"Ϋ":{"ha":758,"x_min":125,"x_max":859,"o":"m 416 464 q 464 566 437 516 q 527 667 491 615 q 612 778 564 720 q 724 907 660 837 l 859 907 q 724 755 792 834 q 597 589 656 676 q 493 407 538 503 q 426 205 448 311 l 383 0 l 273 0 l 309 176 q 325 278 321 233 q 330 351 330 323 q 311 506 330 431 q 262 651 292 581 q 196 785 232 720 q 125 907 160 849 l 248 907 q 310 790 282 844 q 358 685 338 736 q 393 579 379 633 q 413 464 407 526 l 416 464 m 311 982 l 334 1097 l 444 1097 l 420 982 l 311 982 m 570 982 l 594 1097 l 703 1097 l 680 982 l 570 982 m 195 907 z "},"Ώ":{"ha":1076,"x_min":29,"x_max":1036,"o":"m 250 907 l 125 650 l 29 650 l 146 907 l 250 907 m 1036 591 q 1022 478 1036 532 q 987 376 1009 424 q 935 287 964 328 q 874 211 906 245 q 810 149 842 176 q 748 102 777 122 l 748 100 l 934 100 l 913 0 l 591 0 l 607 77 q 675 134 640 102 q 746 203 711 165 q 812 285 781 241 q 867 377 844 328 q 905 479 891 426 q 919 591 919 533 q 902 695 919 651 q 853 768 884 739 q 777 812 821 798 q 678 826 732 826 q 523 790 591 826 q 407 695 454 755 q 334 559 359 636 q 309 398 309 481 q 319 299 309 344 q 346 217 329 255 q 386 145 363 179 q 435 77 409 111 l 419 0 l 109 0 l 130 100 l 323 100 l 323 102 q 271 161 295 128 q 230 235 247 195 q 202 321 212 275 q 193 419 193 368 q 207 535 193 475 q 248 650 220 594 q 317 756 275 707 q 413 844 358 806 q 535 903 467 881 q 684 924 603 924 q 838 899 772 924 q 948 828 904 873 q 1014 723 991 783 q 1036 591 1036 662 z "},"α":{"ha":760,"x_min":61,"x_max":753,"o":"m 166 238 q 188 117 166 158 q 256 76 209 76 q 306 89 281 76 q 353 122 330 101 q 396 170 376 142 q 435 226 417 197 q 467 284 452 255 q 492 337 481 313 q 475 431 486 389 q 447 502 464 473 q 408 546 431 530 q 354 561 385 561 q 279 534 314 561 q 220 463 245 507 q 180 359 195 418 q 166 238 166 301 m 61 235 q 82 394 61 317 q 143 530 104 471 q 237 625 182 589 q 358 661 292 661 q 440 642 406 661 q 496 593 473 623 q 532 526 519 563 q 554 452 546 488 l 557 452 q 652 644 602 542 l 753 644 q 577 294 650 435 q 584 206 580 245 q 595 141 587 168 q 616 100 603 114 q 656 86 630 86 q 692 90 673 86 l 673 -4 q 625 -10 648 -10 q 568 2 590 -10 q 533 40 546 15 q 515 102 520 65 q 507 186 509 138 l 504 186 q 458 113 484 149 q 400 48 433 77 q 329 1 368 19 q 241 -17 290 -17 q 108 48 155 -17 q 61 235 61 113 z "},"β":{"ha":713,"x_min":75,"x_max":692,"o":"m 537 538 q 621 463 589 513 q 652 341 652 414 q 627 197 652 263 q 557 84 601 132 q 452 9 513 36 q 325 -17 392 -17 q 214 3 261 -17 q 136 59 167 22 q 90 148 104 96 q 75 265 75 200 q 89 419 75 337 q 130 584 103 502 q 195 740 156 665 q 283 872 233 814 q 394 965 334 930 q 523 999 454 999 q 592 988 561 999 q 646 957 623 977 q 680 907 668 937 q 692 840 692 878 q 655 697 692 774 q 537 541 618 620 l 537 538 m 182 324 q 178 257 178 288 q 188 173 178 208 q 217 116 198 138 q 264 83 237 94 q 326 73 292 73 q 417 94 376 73 q 488 151 459 115 q 532 233 517 186 q 547 329 547 279 q 523 422 547 385 q 458 473 498 458 q 335 395 404 433 q 182 324 267 358 m 193 426 q 370 518 294 465 q 495 627 445 571 q 569 738 545 684 q 593 834 593 792 q 574 888 593 869 q 513 908 554 908 q 416 869 465 908 q 323 765 367 831 q 244 612 279 699 q 191 426 210 524 l 193 426 z "},"γ":{"ha":631,"x_min":68,"x_max":659,"o":"m 157 -95 q 162 -33 161 -66 q 164 39 164 0 q 159 178 164 103 q 142 331 153 252 q 112 490 130 410 q 68 644 94 570 l 178 644 q 207 539 193 600 q 232 412 220 479 q 250 273 243 344 q 256 133 256 201 q 256 106 256 119 q 255 79 256 92 l 258 79 q 325 216 289 143 q 398 362 361 288 q 472 508 435 436 q 540 644 509 581 l 659 644 q 591 513 628 581 q 516 373 555 444 q 439 232 477 302 q 365 95 400 162 q 299 -32 330 28 q 248 -143 269 -92 q 237 -186 243 -163 q 224 -232 231 -209 q 211 -277 218 -255 q 197 -315 203 -298 l 75 -315 q 95 -260 83 -291 q 118 -199 106 -230 q 141 -141 130 -169 q 157 -95 151 -113 z "}}}
